<svg width="1000" height="204" viewBox="0 0 1000 204" fill="none" xmlns="http://www.w3.org/2000/svg">
<g clip-path="url(#clip0_65_49)">
<path d="M1019.01 247.825L354.811 225.993L209.345 221.207L204.906 221.065C204.906 221.065 249.701 174.211 343.248 124.92C372.24 109.633 405.918 94.1174 444.413 79.6941C486.653 63.8612 534.686 49.3394 588.666 37.8773C751.549 3.29398 871.473 2.98803 938.842 7.68655C979.739 10.5384 1001.27 15.237 1001.27 15.237L1001.42 17.2038L1019.01 247.825Z" fill="url(#paint0_linear_65_49)"/>
<g style="mix-blend-mode:overlay" opacity="0.3">
<path d="M1001.42 17.2038C960.333 15.5211 706.424 7.88323 514.62 64.9429C402.703 98.2477 260.017 187.979 209.345 221.207L204.906 221.065C204.906 221.065 249.701 174.211 343.248 124.92C372.24 109.633 405.918 94.1174 444.413 79.6941C486.653 63.8612 534.686 49.3395 588.666 37.8773C751.549 3.29398 871.473 2.98803 938.842 7.68655C979.739 10.5384 1001.27 15.237 1001.27 15.237L1001.42 17.2038Z" fill="white"/>
</g>
<g style="mix-blend-mode:multiply" opacity="0.3">
<path d="M1019.01 247.824L684.768 236.843L551.714 232.461L354.811 225.993C344.508 211.821 336.206 199.616 332.638 193.715C326.067 182.887 335.393 149.953 343.248 124.92C345.885 123.532 348.558 122.134 351.267 120.746C375.996 108.06 403.952 95.2866 435.216 83.2015C438.254 82.0214 441.316 80.8523 444.413 79.694C459.733 83.9664 483.191 90.4897 497.569 94.4998C520.308 100.837 572.639 85.0045 615.857 117.719C659.085 150.434 752.349 105.055 812.629 109.273C872.921 113.502 930.929 122.997 934.344 31.1791C934.674 22.2738 936.263 14.483 938.842 7.68652C979.739 10.5384 1001.27 15.2369 1001.27 15.2369L1019.01 247.824Z" fill="#68A8DE"/>
</g>
<g style="mix-blend-mode:multiply" opacity="0.3">
<path d="M684.768 236.843C680.564 241.629 676.455 244.612 673.946 244.612C663.384 244.612 568.294 236.45 552.456 232.636C552.22 232.582 551.973 232.527 551.714 232.462C533.662 228.222 434.474 208.128 434.474 208.128C434.474 208.128 379.305 175.446 369.331 171.632C359.345 167.819 346.439 130.788 349.96 123.161C350.242 122.538 350.69 121.719 351.267 120.746C375.996 108.06 403.952 95.2867 435.216 83.2017C445.897 87.9657 470.838 98.0949 496.109 101.384C529.564 105.733 576.514 118.812 595.296 144.403C614.078 170.004 634.038 158.017 678.645 174.899C712.642 187.771 698.228 221.524 684.768 236.843Z" fill="#68A8DE"/>
</g>
<path d="M605.941 204.86L598.216 204.892L-8.90659 207.668L-20.5881 17.8695L-20.9885 11.4227C-20.9885 11.4227 -4.65554 8.45062 22.0283 5.65336C79.3174 -0.345446 184.345 -5.53567 278.128 21.235C415.598 60.484 411.064 94.1276 489.62 105.338C517.105 109.261 539.597 122.625 557.237 138.348C589.985 167.545 605.941 204.86 605.941 204.86Z" fill="url(#paint1_linear_65_49)"/>
<g style="mix-blend-mode:multiply" opacity="0.3">
<path d="M605.941 204.86L-8.90659 207.668L-20.9885 11.4232C-20.9885 11.4232 -4.65554 8.45107 22.0283 5.65381C26.4089 15.0399 34.7697 26.3054 49.407 39.6143C105.142 90.2818 149.501 118.779 234.816 114.55C320.12 110.332 364.479 93.4396 400.878 127.214C432.213 156.29 494.731 133.749 557.237 138.349C589.985 167.545 605.941 204.86 605.941 204.86Z" fill="#333973"/>
</g>
<g style="mix-blend-mode:overlay" opacity="0.3">
<path d="M605.941 204.86L598.216 204.892C575.96 155.951 517.034 117.697 499.842 113.501C478.221 108.223 448.652 114.55 423.629 91.3303C398.605 68.1109 291.682 22.7319 193.872 11.1168C113.915 1.6323 13.4438 13.2912 -20.5881 17.8695L-20.9885 11.4227C-20.9885 11.4227 -4.65554 8.45062 22.0283 5.65336C79.3174 -0.345446 184.345 -5.53567 278.128 21.235C415.598 60.484 411.064 94.1275 489.62 105.338C517.105 109.261 539.597 122.625 557.237 138.348C589.985 167.545 605.941 204.86 605.941 204.86Z" fill="white"/>
</g>
</g>
<defs>
<linearGradient id="paint0_linear_65_49" x1="611.959" y1="-91.3101" x2="611.959" y2="288.8" gradientUnits="userSpaceOnUse">
<stop stop-color="#888ACC"/>
<stop offset="0.5" stop-color="#6D6BB7"/>
<stop offset="1" stop-color="#4A4D92"/>
</linearGradient>
<linearGradient id="paint1_linear_65_49" x1="292.471" y1="-22.2209" x2="292.471" y2="261.012" gradientUnits="userSpaceOnUse">
<stop stop-color="#7E72BA"/>
<stop offset="0.5" stop-color="#6769B6"/>
<stop offset="1" stop-color="#333973"/>
</linearGradient>
<clipPath id="clip0_65_49">
<rect width="1040" height="247" fill="white" transform="translate(-6.98853 0.829102)"/>
</clipPath>
</defs>
</svg>
