<svg width="523" height="281" viewBox="0 0 523 281" fill="none" xmlns="http://www.w3.org/2000/svg">
<g clip-path="url(#clip0_85_2)">
<path d="M34.4629 280.861C34.4629 280.861 -27.433 212.903 14.6764 133.746C47.1625 72.678 125.75 83.5589 166.074 109.391C183.248 120.393 220.149 100.216 266.946 38.9511C321.272 -32.1709 531.605 11.2238 495.281 147.114C477.702 212.875 548.779 215.265 512.564 281L34.4629 280.861Z" fill="#EBF3FA"/>
<path d="M475.019 280.317H317.992C302.273 280.317 289.531 267.158 289.531 250.924V110.519C289.531 95.6115 292.362 81.1422 297.945 67.5088C303.334 54.3513 311.045 42.5378 320.863 32.3962C330.681 22.2546 342.12 14.2929 354.861 8.72738C366.236 3.75894 363.516 0.748687 375.846 0.052992C377.825 -0.0588499 394.51 0.037827 396.507 0.037827C410.941 0.037827 424.953 2.96088 438.152 8.72738C450.892 14.2929 462.33 22.2565 472.15 32.3962C481.97 42.5378 489.681 54.3494 495.068 67.5088C500.651 81.1403 503.482 95.6115 503.482 110.519V250.924C503.482 267.158 490.74 280.317 475.021 280.317H475.019ZM322.959 116.374H470.048V110.519C470.048 68.6367 437.056 34.5648 396.505 34.5648C355.954 34.5648 322.961 68.6386 322.961 110.519V116.374H322.959Z" fill="#4F75BA"/>
<path d="M456.075 280.318H299.048C283.329 280.318 270.587 267.158 270.587 250.924V110.519C270.587 95.6118 273.418 81.1425 279.001 67.5092C284.39 54.3516 292.101 42.5381 301.919 32.3965C311.739 22.2549 323.176 14.2933 335.918 8.72769C349.116 2.96309 363.127 0.0400391 377.561 0.0400391C391.995 0.0400391 406.007 2.96309 419.206 8.72959C431.946 14.2951 443.385 22.2587 453.204 32.3984C463.024 42.54 470.735 54.3516 476.122 67.5111C481.706 81.1425 484.536 95.6137 484.536 110.521V250.926C484.536 267.16 471.794 280.32 456.075 280.32V280.318ZM304.017 116.375H451.106V110.519C451.106 68.6371 418.114 34.5651 377.563 34.5651C337.011 34.5651 304.019 68.6389 304.019 110.519V116.375H304.017Z" fill="#739AF0"/>
<path d="M390.798 171.399C390.798 167.987 389.585 164.87 387.584 162.476C385.749 159.663 381.951 157.729 377.561 157.729C373.17 157.729 369.373 159.663 367.537 162.476C365.537 164.87 364.323 167.989 364.323 171.399C364.323 177.527 368.227 182.712 373.607 184.448V205.152C373.607 206.822 375.377 208.176 377.559 208.176C379.741 208.176 381.511 206.822 381.511 205.152V184.448C386.89 182.712 390.795 177.526 390.795 171.399H390.798Z" fill="#4F75BA"/>
<path d="M201.632 153.91C201.381 155.665 199.441 157.697 197.37 159.221C195.142 160.861 194.248 162.544 193.459 163.386C193.167 163.731 192.987 163.921 192.987 163.921L190.608 161.062C190.608 161.062 190.647 161.035 190.719 160.954C191.251 160.355 192.6 158.878 193.499 157.178C195.471 153.449 198.226 152.897 198.226 152.897C198.226 152.897 200.86 153.301 201.632 153.91Z" fill="#FFB27D"/>
<path d="M78.7437 189.76L80.3515 191.108C80.3515 191.108 84.7493 189.479 85.7423 194.876C85.7423 194.876 86.0066 197.175 84.5952 197.181C83.1837 197.185 83.7673 196.929 81.7685 196.99C79.7715 197.05 78.1141 195.962 77.8222 194.288L76.866 192.87L78.7437 189.76Z" fill="#EA8E50"/>
<path d="M78.562 192.654C79.845 191.271 79.7422 190.249 79.7422 190.249C79.7422 190.249 64.8895 177.69 63.3844 176.667C62.3584 175.969 52.0082 165.731 46.3072 159.849C43.565 157.018 40.6301 157.995 37.0362 159.06L34.0756 159.938C30.5019 160.997 29.5713 166.159 32.5044 168.667C40.764 175.732 54.5026 183.679 57.0741 185.349C63.456 189.494 75.9482 194.421 75.9482 194.421C75.9482 194.421 77.4643 193.839 78.5656 192.652L78.562 192.654Z" fill="#992525"/>
<path d="M95.5107 269.81C95.5107 269.81 99.1156 272.599 104.639 271.126C104.639 271.126 109.091 270.077 110.068 272.371C110.068 272.371 103.238 275.954 101.511 276.934C100.208 277.673 98.8495 278.839 97.8877 279.739C97.1278 280.452 95.9421 280.355 95.2942 279.533C94.9931 279.152 94.6499 278.697 94.2736 278.17C93.2201 276.697 90.7679 271.935 90.7679 271.935L95.5126 269.81H95.5107Z" fill="#233862"/>
<path d="M97.6271 268.392C97.6271 268.392 95.4318 273.618 90.3659 272.657C90.3659 272.657 80.0285 263.841 72.9363 254.681C70.6327 251.707 68.6725 248.695 67.5198 245.94C62.8173 234.696 50.125 217.925 42.0562 209.425L62.2465 201.882C62.2465 201.882 68.7128 215.317 77.3175 231.82C83.5178 243.711 90.8285 257.195 97.6271 268.392Z" fill="#2B478B"/>
<path d="M77.3175 231.82L72.9363 254.681C70.6327 251.707 68.6725 248.695 67.5198 245.94C62.8173 234.696 50.125 217.925 42.0562 209.425L62.2465 201.882C62.2465 201.882 68.7128 215.317 77.3175 231.82Z" fill="#233862"/>
<path d="M60.8148 272.843C60.8148 272.843 60.5945 277.013 65.4897 277.57C65.4897 277.57 68.287 277.586 68.2943 280.239L54.0658 280.287C54.0658 280.287 53.6528 279.216 53.5518 276.922C53.4747 275.161 55.2037 270.557 55.2037 270.557L60.8111 272.843H60.8148Z" fill="#233862"/>
<path d="M55.624 201.882C55.624 201.882 64.6179 212.09 70.328 230.478C73.4337 240.483 64.6344 265.638 62.9182 274.378C62.9182 274.378 57.0153 274.896 52.9791 273.285C52.9791 273.285 52.6726 255.233 55.033 241.319C56.3546 233.531 43.1905 224.666 37.4382 210.596C33.5249 201.025 38.2862 201.186 44.1358 200.957L55.624 201.882Z" fill="#2B478B"/>
<path d="M45.2408 156.344C40.2373 159.263 29.9917 156.571 29.9917 156.571C29.9917 156.571 34.1527 151.659 32.2622 143.747L36.1919 145.808L40.4117 148.022C40.4117 148.022 40.6851 149.419 40.8742 151.929C40.9219 152.575 40.966 153.297 40.9953 154.086C43.565 154.89 45.2408 156.344 45.2408 156.344Z" fill="#FFB07B"/>
<path d="M63.59 201.355C63.59 202.263 62.5768 202.699 62.3621 202.743C60.3431 203.124 54.7082 205.387 49.6312 205.907C45.3564 206.369 41.3881 205.929 37.027 205.025C36.4489 204.906 35.0943 204.529 34.997 203.956C34.8777 203.332 18.1786 168.8 31.159 153.967C31.4637 153.618 34.026 154.245 36.3699 154.82C38.534 155.35 40.5199 155.055 42.2912 154.319L44.4882 155.513C47.1864 157.066 52.2927 162.584 52.891 166.914C53.1939 169.116 54.4145 170.747 54.7669 172.682C54.8972 173.399 55.0312 174.098 55.167 174.781C55.4332 176.119 55.7067 177.391 55.9893 178.602C56.7529 181.876 57.5587 184.697 58.3497 187.131C59.1922 189.716 60.0182 191.868 60.7561 193.667C61.7123 196 62.5218 197.744 63.0265 199.079C63.3826 200.019 63.5882 200.756 63.5882 201.353L63.59 201.355Z" fill="#BC3F3F"/>
<path d="M63.0302 199.08C39.459 187.612 31.2948 165.588 31.2948 165.588C31.2948 165.588 50.4462 172.885 55.1707 174.784C55.4368 176.122 55.7103 177.394 55.993 178.606C56.7565 181.879 57.5623 184.7 58.3534 187.134C59.1959 189.72 60.0218 191.871 60.7597 193.67C61.716 196.004 62.5254 197.748 63.0302 199.082V199.08Z" fill="#992525"/>
<path d="M92.9319 193.422H79.9184C67.4353 193.422 57.2815 182.933 57.2815 170.043V126.254C57.2815 113.362 67.4372 102.875 79.9184 102.875H92.9319C105.415 102.875 115.569 113.364 115.569 126.254V170.043C115.569 182.935 105.413 193.422 92.9319 193.422ZM79.9184 116.683C74.8084 116.683 70.6529 120.977 70.6529 126.252V170.041C70.6529 175.319 74.8103 179.61 79.9184 179.61H92.9319C98.0419 179.61 102.197 175.317 102.197 170.041V126.252C102.197 120.975 98.04 116.683 92.9319 116.683H79.9184Z" fill="#F99746"/>
<path d="M229.403 156.215H110.07V140.083H229.403C233.716 140.083 237.213 143.694 237.213 148.149C237.213 152.604 233.716 156.215 229.403 156.215Z" fill="#F99746"/>
<path d="M214.429 152.965H226.964V184.577C226.964 188.15 224.155 191.05 220.696 191.05C217.236 191.05 214.427 188.15 214.427 184.577V152.965H214.429Z" fill="#F99746"/>
<path d="M76.8201 192.433L78.8575 193.204C78.8575 193.204 82.9359 190.226 85.4762 195.069C85.4762 195.069 86.394 197.185 84.9403 197.646C83.4866 198.106 84.0152 197.672 81.9705 198.375C79.9276 199.079 77.9141 198.573 77.1413 197.064L75.7574 196.015L76.8201 192.433Z" fill="#FFB07B"/>
<path d="M78.4978 195.408C79.2503 193.378 79.5954 192.461 79.5954 192.461C79.5954 192.461 64.2049 179.504 62.6356 178.393C61.5673 177.635 50.9271 169.423 45.7419 163.022C43.1685 159.846 39.1121 158.394 35.1879 159.246L31.9575 159.945C28.0552 160.79 26.7888 165.89 29.8155 168.57C38.3394 176.117 52.7148 184.869 55.3946 186.69C62.0482 191.21 76.7669 197.543 76.7669 197.543C76.7669 197.543 77.9086 197.005 78.4996 195.41L78.4978 195.408Z" fill="#BC3F3F"/>
<path d="M40.8742 151.929C35.9533 152.215 32.7522 148.018 32.7522 148.018C32.7522 148.018 34.9768 146.744 36.19 145.808L40.4098 148.022C40.4098 148.022 40.6833 149.419 40.8723 151.929H40.8742Z" fill="#EA8E50"/>
<path d="M42.9703 146.71C42.9703 146.71 35.5146 152.236 32.253 147.387C28.9913 142.538 25.8343 139.986 30.456 136.254C35.0796 132.521 37.2583 133.7 38.7267 135.044C40.1969 136.39 44.8241 145.146 42.9685 146.71H42.9703Z" fill="#FFB07B"/>
<path d="M39.5159 130.667C39.248 128.804 38.6478 127.492 38.6478 127.492C38.6478 127.492 38.1797 129.494 34.6372 129.217C31.0948 128.94 25.4801 129.577 23.6097 133.746C23.4904 134.011 23.3839 134.284 23.2903 134.563C22.9508 133.638 22.87 132.254 22.87 132.254C22.1964 134.049 22.87 136.294 22.87 136.294C22.859 136.358 22.8517 136.424 22.8425 136.491C22.0606 137.173 21.4035 139.294 21.4035 139.294C21.6402 138.703 22.2148 138.316 22.7268 138.079C22.7103 141.323 23.9842 144.494 26.2198 145.438C29.4887 146.818 29.463 145.766 32.7504 148.018C32.7504 148.018 33.6332 146.888 33.0312 146.128C32.4292 145.368 30.1568 144.265 31.427 143.16C32.6971 142.054 33.1652 143.298 33.6332 142.538C34.1013 141.778 31.7611 139.569 34.7694 137.499C37.7777 135.429 39.7821 132.529 39.5141 130.665L39.5159 130.667Z" fill="#233862"/>
<path d="M170.119 275.921L167.371 276.977C167.371 276.977 155.439 259.886 153.971 244.848C153.708 242.164 153.796 239.561 154.363 237.159C154.363 237.159 154.246 236.471 154.042 235.256C153.949 234.689 153.831 234.005 153.699 233.222C153.312 230.926 152.778 227.785 152.166 224.208C150.762 215.978 148.943 205.457 147.53 197.723L148.27 197.478L156.28 194.809L157.935 189.38L163.899 187.759C163.899 187.759 165.231 190.451 166.422 203.165C166.643 204.833 166.841 206.672 166.991 208.666C167.456 214.753 167.489 222.305 166.424 230.938C166.151 233.148 165.806 235.429 165.376 237.773C165.062 239.493 165.015 241.834 165.147 244.524C165.747 256.817 170.117 275.921 170.117 275.921H170.119Z" fill="#BC3F3F"/>
<path d="M166.991 208.666L154.04 235.256C153.947 234.689 153.829 234.005 153.697 233.222C153.31 230.926 152.776 227.785 152.165 224.208C150.76 215.978 148.941 205.457 147.528 197.723L148.268 197.478L156.278 194.809L157.933 189.38L163.897 187.759C163.897 187.759 165.229 190.451 166.421 203.165C166.641 204.833 166.839 206.672 166.99 208.666H166.991Z" fill="#992525"/>
<path d="M161.294 191.172L160.995 188.516C155.973 189.894 142.552 184.666 142.552 184.666C142.552 184.666 137.686 189.083 138.325 199.672C138.637 204.839 139.206 226.8 139.801 233.3C140.015 235.656 140.205 237.332 140.282 238.001C140.282 238.005 140.282 238.007 140.282 238.007C140.306 238.212 140.236 238.405 140.135 238.583C139.259 240.119 138.534 241.717 137.94 243.353C132.101 259.422 138.839 279.21 138.839 279.21L140.588 278.482C140.588 278.482 144.422 256.459 147.537 246.731C148.066 245.08 148.572 243.783 149.039 243.01C150.393 240.752 151.651 237.063 152.792 232.675C154.949 224.379 156.685 213.586 157.84 205.256C157.999 205.264 161.294 191.174 161.294 191.174V191.172Z" fill="#BC3F3F"/>
<path d="M191.937 158.226C193.453 158.849 194.938 160.08 196.409 161.611C196.409 161.611 187.842 177.04 182.912 179.284C180.205 180.516 171.736 171.171 169.987 165.935C169.559 164.656 171.138 160.373 170.622 159.473C169.937 158.288 169.607 157.124 169.469 156.125C169.436 155.974 169.405 155.822 169.416 155.655C169.253 154.065 169.57 152.981 169.57 152.981C169.767 152.459 170.321 152.236 171.143 152.251H171.435C175.871 154.946 181.699 168.187 182.661 168.496C185.168 165.217 191.937 158.226 191.937 158.226Z" fill="#2C3A64"/>
<path d="M170.89 158.967C169.313 159.721 167.41 160.237 165.106 160.366C156.471 160.855 154.51 153.037 154.154 147.849C155.399 147.383 156.489 147.428 157.117 147.462C157.73 147.496 158.368 147.563 158.895 147.629C159.952 147.058 161.848 144.291 162.946 139.662L163.319 139.84L169.55 142.865C169.55 142.865 168.888 144.96 168.399 146.964C168.018 148.531 167.744 150.046 167.973 150.47C168.465 150.677 168.759 150.806 168.759 150.806C168.759 150.806 168.759 150.808 168.761 150.814C168.823 150.979 170.178 154.542 170.892 158.969L170.89 158.967Z" fill="#FFB27D"/>
<path d="M173.05 164.819C172.986 164.997 172.913 165.171 172.836 165.349C170.65 170.213 166.6 190.364 166.6 190.364C167.177 193.987 140.238 189.653 140.168 186.355C139.219 182.857 143.534 177.237 145.968 174.418C146.273 174.063 146.546 173.684 146.785 173.282C147.387 172.278 147.767 171.142 147.888 169.956C148.365 165.279 146.586 154.497 147.067 152.414C147.255 151.598 150.823 156.26 151.249 155.792C151.717 155.282 152.01 154.76 152.045 154.173C152.069 153.727 152.056 153.272 152.012 152.815C151.992 152.599 151.964 152.385 151.933 152.169C151.597 149.906 147.407 150.872 147.407 150.872C148.943 147.055 157.12 147.358 157.118 147.462C157.118 147.566 157.115 147.699 157.111 148.086C157.098 149.64 157.111 153.631 157.594 154.387C158.198 155.327 169.234 159.448 169.818 158.172C170.393 156.918 168.82 151.035 168.763 150.814C168.761 150.81 168.761 150.806 168.761 150.806C169.969 151.312 171.439 152.251 171.439 152.251C172.825 155.119 174.776 160.1 173.054 164.82L173.05 164.819Z" fill="#2B478B"/>
<path d="M165.615 122.787C165.602 122.4 165.312 118.234 159.167 118.016C159.167 118.016 162.188 118.387 162.711 119.76C162.711 119.76 160.654 118.065 158.978 118.609C157.302 119.155 156.318 122.186 156.309 123.183C156.3 124.18 157.23 127.395 158.293 127.668C158.695 127.772 159.159 127.744 159.582 127.668C159.299 128.125 159.022 128.627 158.756 129.19C156.303 134.388 158.833 139.468 160.909 138.907C162.239 138.547 162.618 140.894 162.618 140.894L175.55 130.079C175.55 130.079 170.8 119.928 165.617 122.785L165.615 122.787Z" fill="#BC3F3F"/>
<path d="M169.548 142.865C169.548 142.865 168.886 144.958 168.397 146.964C164.756 145.913 163.649 141.961 163.317 139.842L169.548 142.867V142.865Z" fill="#ED985F"/>
<path d="M170.316 145.081C170.316 145.081 161.603 142.998 162.941 137.415C164.28 131.831 164.057 127.803 169.677 128.895C175.297 129.988 175.862 132.394 175.855 134.371C175.848 136.346 172.615 145.479 170.316 145.081Z" fill="#FFB27D"/>
<path d="M176.345 131.2C175.409 129.175 174.306 129.283 173.616 129.644C169.521 125.731 165.507 128.927 165.507 128.927C163.961 132.783 160.611 134.36 160.611 134.36C160.611 134.36 161.949 135.776 165.83 135.744C167.015 135.734 168.207 135.173 169.289 134.398C167.199 136.574 164.747 137.897 164.747 137.897C169.603 136.938 172.859 131.13 173.194 130.514C173.605 131.141 174.392 132.478 174.458 133.605C174.548 135.139 174.038 138.115 174.888 138.227C174.888 138.227 177.751 134.235 176.345 131.2Z" fill="#BC3F3F"/>
<path d="M149.007 280.685H135.172C135.172 280.685 134.839 278.507 135.563 276.856C136.255 275.271 137.339 274.549 137.081 272.63C137.96 273.565 139.393 274.613 141.394 274.335C141.638 274.744 142.976 276.941 143.795 277.548C144.7 278.219 148.73 277.98 149.009 280.685H149.007Z" fill="#233862"/>
<path d="M178.716 280.685H164.881C164.881 280.685 164.363 278.406 165.272 276.856C166.076 275.483 165.767 274.702 165.173 273.567C165.798 273.832 166.61 274.073 167.504 274.02C168.194 273.978 168.922 273.656 169.561 273.273C170.156 273.974 172.707 276.958 173.504 277.549C174.409 278.221 178.439 277.982 178.718 280.687L178.716 280.685Z" fill="#233862"/>
<path d="M197.537 156.215H218.596L217.427 147.779L198.622 148.558L197.537 156.215Z" fill="#F99746"/>
<path d="M201.234 140.083C200.252 141.093 200.276 144.331 198.204 145.855C195.975 147.495 195.082 149.178 194.292 150.02C194 150.365 193.821 150.554 193.821 150.554L191.442 147.696C191.442 147.696 191.48 147.669 191.552 147.588C192.084 146.989 193.433 145.512 194.333 143.812C196.304 140.083 199.059 139.531 199.059 139.531C199.059 139.531 200.461 139.473 201.234 140.081V140.083Z" fill="#FFB27D"/>
<path d="M192.899 145.451L196.409 149.508C196.409 149.508 187.029 157.941 185.071 159.693C183.678 160.916 182.365 161.913 181.295 162.485C181.189 162.546 181.093 162.588 180.969 162.635C178.215 163.88 172.268 163.742 166.327 162.834C165.507 162.711 164.695 162.569 163.902 162.438C160.973 161.909 158.185 161.217 155.889 160.425C154.512 159.964 153.293 159.477 152.357 158.959C152.023 158.783 151.709 158.616 151.432 158.425C146.785 155.551 147.01 152.88 147.099 151.921C147.187 150.962 147.855 149.695 149.408 149.176C153.095 147.94 165.464 152.865 167.287 153.219C168.381 153.458 171.226 154.499 172.184 154.681C174.016 155.018 175.53 155.238 176.565 155.242C177.235 155.25 178.419 154.821 179.849 154.167C182.343 153.039 192.903 145.453 192.903 145.453L192.899 145.451Z" fill="#253D78"/>
<path d="M194.278 157.686C193.986 157.189 193.956 156.385 193.956 156.385C194.36 155.312 195.26 154.103 195.594 153.866C195.928 153.629 196.366 153.045 196.471 153.434C196.576 153.822 196.075 155.851 195.489 156.649C194.904 157.447 194.278 157.684 194.278 157.684V157.686Z" fill="#FFB27D"/>
<path d="M402.916 109.02C405.867 114.325 409.581 116.375 409.581 116.375H425.028C425.028 116.375 400.662 104.97 402.914 109.02H402.916Z" fill="#ED7D2B"/>
<path d="M413.863 150.353C414.265 150.829 414.613 150.805 414.413 151.373C414.413 151.375 414.323 151.656 414.322 151.658C413.953 152.71 413.257 153.447 411.844 154.619C411.664 154.768 411.478 154.895 411.339 155.02C411.302 155.055 411.053 155.106 411.018 155.138C410.988 155.164 410.77 155.633 410.742 155.657C409.425 156.912 409.692 156.548 407.325 159.096C404.623 161.998 404.704 161.699 404.173 161.433C403.725 161.208 403.54 160.667 404.548 158.937C404.597 158.853 404.645 158.768 404.695 158.685C404.829 158.455 404.962 158.22 405.095 157.991C406.275 155.909 405.972 154.931 405.693 151.832C405.465 149.315 401.899 137.765 401.899 137.765L407.075 136.843C407.075 136.843 408.633 146.041 410.351 147.457C411.269 148.211 412.297 148.221 413.18 148.78C413.242 148.818 413.303 148.86 413.363 148.899C413.865 149.243 413.459 149.872 413.863 150.35V150.353Z" fill="#FFB27D"/>
<path d="M414.78 150.077C415.182 150.553 415.234 151.085 415.036 151.654C415.036 151.656 415.036 151.66 415.032 151.662C414.58 152.712 413.395 153.88 412.027 155.049C411.849 155.203 411.691 155.343 411.55 155.474C411.513 155.508 411.477 155.54 411.442 155.574C411.412 155.601 411.387 155.627 411.359 155.652C410.041 156.907 410.537 157.195 408.167 159.743C405.465 162.645 403.606 162.698 403.078 162.433C402.63 162.207 403.54 160.668 404.546 158.937C405.073 158.738 407.514 157.712 409.36 155.273C410.987 153.129 412.071 150.376 413.178 148.78C413.241 148.818 413.301 148.86 413.362 148.9C413.863 149.243 414.375 149.597 414.779 150.075L414.78 150.077Z" fill="#BC3F3F"/>
<path d="M372.082 146.42C371.762 148.069 370.725 147.607 368.181 146.966C365.638 146.323 366.227 146.953 362.605 146.539C358.984 146.126 358.655 145.531 358.545 144.976C358.446 144.483 359.202 144.149 361.122 143.92C361.363 143.891 361.607 143.861 361.849 143.831C364.017 143.55 365.603 142.106 367.57 140.919C369.435 139.795 372.218 135.219 372.218 135.219L377.184 135.624C377.184 135.624 374.578 139.713 373.57 141.489C372.978 142.534 373.009 143.918 373.082 144.985C373.121 145.565 372.196 145.838 372.082 146.42Z" fill="#FFB27D"/>
<path d="M367.902 147.472C365.358 146.83 365.962 147.594 362.341 147.18C358.72 146.767 357.622 145.372 357.512 144.817C357.413 144.324 359.202 144.149 361.122 143.92L361.141 143.958C361.141 143.958 363.312 145.548 366.326 145.622C368.782 145.685 371.384 144.957 373.082 144.985C373.121 145.565 373.157 146.159 373.044 146.741C372.724 148.39 370.446 148.115 367.902 147.474V147.472Z" fill="#BC3F3F"/>
<path d="M392.076 113.944L396.718 126.846L402.778 143.692C402.778 143.692 404.423 143.857 405.998 143.389C407.448 142.957 409.113 141.823 409.113 141.823C409.113 141.823 407.429 123.735 404.291 113.353C403.487 110.688 402.584 108.532 401.589 107.319C396.721 101.378 392.076 113.946 392.076 113.946V113.944Z" fill="#ED7D2B"/>
<path d="M396.797 93.4545C399.838 92.4423 408.512 93.7427 417.227 95.5037L419.052 92.3949L437.873 90.8765C437.873 90.8765 444.073 105.097 440.683 114.164C439.857 116.373 437.162 116.371 437.16 116.373C437.16 116.373 426.019 116.373 422.381 116.373C413.02 116.373 402.571 109.727 401.22 109.448C399.008 108.991 398.122 113.561 395.91 118.359C393.698 123.157 375.112 139.611 375.112 139.611C375.112 139.611 372.256 139.64 371.076 139.183C369.808 138.692 369.343 138.053 369.343 138.053C369.343 138.053 389.937 95.7368 396.797 93.4526V93.4545Z" fill="#F99746"/>
<path d="M419.162 65.6247C425.865 69.4368 439.46 77.3378 439.532 77.2866C439.532 77.2866 444.53 79.2315 447.366 77.2866C452.092 74.0451 454.625 65.3233 445.984 57.8166C441.674 54.0727 438.612 53.1609 438.146 47.184C437.893 43.9406 433.601 33.2379 426.469 34.2274C425.872 34.3108 425.272 34.3696 424.672 34.3487C423.839 34.3203 422.464 34.4473 421.052 35.3136C417.016 37.795 409.116 64.1499 419.164 65.6247H419.162Z" fill="#233862"/>
<path d="M424.778 62.3813C424.749 62.4002 428.077 63.5736 430.301 62.5557C432.394 61.6003 433.98 58.0441 433.948 58.0422C432.996 57.9967 431.951 57.138 431.146 51.4966L430.74 51.6463L423.923 54.1789C423.923 54.1789 424.417 56.4385 424.736 58.5881C425.006 60.3947 425.149 62.1235 424.776 62.3794L424.778 62.3813Z" fill="#FFB27D"/>
<path d="M423.925 54.181C423.925 54.181 424.419 56.4406 424.738 58.5902C428.653 57.8623 430.189 53.8341 430.742 51.6484L423.925 54.181Z" fill="#ED975D"/>
<path d="M422.91 56.4231C422.91 56.4231 432.236 55.1303 431.368 49.1439C430.499 43.1575 431.118 38.9587 425.125 39.5312C419.134 40.1037 418.312 42.5661 418.13 44.638C417.95 46.708 420.461 56.6051 422.91 56.4231Z" fill="#FFB27D"/>
<path d="M418.47 41.3569C418.47 41.3569 424.441 46.6704 428.501 47.0988C432.561 47.5272 434.099 46.1813 434.099 46.1813C434.099 46.1813 431.705 44.1283 430.264 40.8167C429.84 39.8404 428.943 39.1694 427.91 39.0784C425.01 38.8206 419.512 38.7012 418.468 41.3569H418.47Z" fill="#233862"/>
<path d="M422.201 40.881C422.201 40.881 420.204 42.8752 419.575 44.3557C418.967 45.7831 418.785 49.1971 419.27 50.5544C419.27 50.5544 416.159 44.3045 417.919 41.2696C419.788 38.0509 422.201 40.8829 422.201 40.8829V40.881Z" fill="#233862"/>
<path d="M416.926 76.5701C417.209 96.0685 417.003 91.9929 419.068 93.8431C419.566 94.2885 420.964 94.5539 422.805 94.679C428.594 95.0752 438.77 94.0914 439.157 92.9862C440.492 89.1628 439.55 87.9761 440.664 82.1224C440.78 81.5006 440.925 80.8258 441.094 80.0922C442.023 76.0716 442.927 74.7048 439.631 68.2464C436.643 62.3965 433.537 57.648 433.258 57.8205C425.373 62.6543 424.738 58.592 424.738 58.592C424.738 58.592 416.787 67.0598 416.926 76.5701Z" fill="#BC3F3F"/>
<path d="M396.718 126.846L402.778 143.692C402.778 143.692 404.423 143.857 405.998 143.389C407.448 142.957 409.112 141.823 409.112 141.823C409.112 141.823 407.429 123.735 404.291 113.353L396.718 126.847V126.846Z" fill="#F99746"/>
<path d="M424.738 58.5898C424.738 58.5898 416.625 60.0097 415.673 63.6189C414.72 67.2263 409.114 88.4346 409.114 88.4346C409.114 88.4346 413.239 89.2004 415.144 87.2328C417.049 85.2651 421.774 68.976 421.774 68.976L424.738 58.5917V58.5898Z" fill="#BC3F3F"/>
<path d="M422.805 94.6809C428.594 95.0771 438.77 94.0933 439.157 92.9881C440.492 89.1646 439.55 87.978 440.664 82.1243L437.873 74.0034C437.873 74.0034 438.335 83.0456 435.753 85.4246C433.174 87.8036 425.18 90.0158 423.927 92.0024C423.321 92.9559 422.923 93.9132 422.807 94.6809H422.805Z" fill="#992525"/>
<path d="M429.439 90.8765C429.439 90.8765 423.727 89.5628 422.805 90.086C421.884 90.6092 419.632 92.5162 419.349 93.1797C419.066 93.8431 421.401 92.6754 422.159 92.465C422.651 92.3285 423.945 92.793 424.586 93.0128C427.282 93.9398 428.932 93.464 428.932 93.464L429.437 90.8746L429.439 90.8765Z" fill="#FFB27D"/>
<path d="M433.264 57.8164C433.264 57.8164 440.932 58.3036 443.586 62.129C447.323 67.5125 454.737 90.4515 450.488 93.511C445.703 96.9573 428.712 94.4115 428.712 94.4115C428.712 94.4115 428.146 91.6818 428.934 90.3624C429.721 89.0431 442.505 86.9086 443.094 86.3001C443.684 85.6916 435.72 74.4164 435.72 72.589C435.72 70.7616 433.264 57.8164 433.264 57.8164Z" fill="#BC3F3F"/>
<path d="M422.53 91.7294C422.53 91.7294 421.333 93.3237 420.94 93.5132C420.548 93.7028 420.294 93.6554 420.294 93.6554L421.1 92.1559L422.528 91.7275L422.53 91.7294Z" fill="#FFB27D"/>
<path d="M422.805 90.0879L419.325 91.8338C419.325 91.8338 419.474 92.084 419.901 92.0631C420.329 92.0423 421.41 91.6347 421.41 91.6347L422.803 90.0879H422.805Z" fill="#FFB27D"/>
<path d="M420.94 95.9547H393.419L385.139 74.6934H412.618L420.94 95.9547Z" fill="#163560"/>
<path d="M393.096 95.1265H429.439V95.9549H393.419L393.096 95.1265Z" fill="#11294A"/>
<path d="M400.367 85.3242C400.159 84.5773 400.578 83.9707 401.301 83.9707C402.024 83.9707 402.78 84.5773 402.988 85.3242C403.195 86.0711 402.776 86.6777 402.053 86.6777C401.33 86.6777 400.574 86.0711 400.367 85.3242Z" fill="white"/>
</g>
<defs>
<clipPath id="clip0_85_2">
<rect width="523" height="281" fill="white"/>
</clipPath>
</defs>
</svg>
