<svg width="534" height="276" viewBox="0 0 534 276" fill="none" xmlns="http://www.w3.org/2000/svg">
<g clip-path="url(#clip0_86_954)">
<path d="M34.6349 275.331C34.6349 275.331 -27.5699 208.711 14.7497 131.112C47.3979 71.2469 126.378 81.9135 166.903 107.237C184.163 118.022 221.248 98.2424 268.278 38.184C322.876 -31.5374 534.258 11.0027 497.753 144.217C480.087 208.683 551.519 211.026 515.122 275.466L34.6349 275.331Z" fill="#EBF3FA"/>
<path d="M477.39 274.798H319.579C303.782 274.798 290.977 261.897 290.977 245.983V108.342C290.977 93.7287 293.821 79.5443 299.432 66.1795C304.848 53.281 312.598 41.7001 322.464 31.7582C332.331 21.8163 343.827 14.0115 356.633 8.5555C368.064 3.6849 365.33 0.733925 377.722 0.0519293C379.711 -0.0577103 396.479 0.0370629 398.486 0.0370629C412.992 0.0370629 427.074 2.90256 440.339 8.5555C453.142 14.0115 464.638 21.8182 474.507 31.7582C484.376 41.7001 492.125 53.2792 497.539 66.1795C503.15 79.5425 505.995 93.7287 505.995 108.342V245.983C505.995 261.897 493.189 274.798 477.392 274.798H477.39ZM324.571 114.083H472.395V108.342C472.395 67.2851 439.237 33.8841 398.484 33.8841C357.73 33.8841 324.573 67.287 324.573 108.342V114.083H324.571Z" fill="#4F75BA"/>
<path d="M458.351 274.798H300.541C284.744 274.798 271.938 261.897 271.938 245.983V108.343C271.938 93.7289 274.782 79.5445 280.394 66.1796C285.81 53.2812 293.559 41.7002 303.426 31.7583C313.295 21.8165 324.789 14.0116 337.594 8.55564C350.859 2.90456 364.939 0.0390625 379.445 0.0390625C393.952 0.0390625 408.033 2.90456 421.298 8.5575C434.102 14.0135 445.598 21.8202 455.466 31.7602C465.335 41.7021 473.085 53.2812 478.499 66.1815C484.11 79.5445 486.954 93.7307 486.954 108.344V245.985C486.954 261.899 474.149 274.8 458.351 274.8V274.798ZM305.534 114.083H453.358V108.343C453.358 67.2853 420.201 33.8842 379.447 33.8842C338.694 33.8842 305.536 67.2872 305.536 108.343V114.083H305.534Z" fill="#739AF0"/>
<path d="M392.749 168.024C392.749 164.679 391.529 161.624 389.519 159.277C387.674 156.519 383.858 154.624 379.445 154.624C375.033 154.624 371.216 156.519 369.372 159.277C367.361 161.624 366.142 164.681 366.142 168.024C366.142 174.032 370.065 179.114 375.472 180.816V201.113C375.472 202.75 377.25 204.077 379.443 204.077C381.637 204.077 383.415 202.75 383.415 201.113V180.816C388.822 179.114 392.745 174.03 392.745 168.024H392.749Z" fill="#4F75BA"/>
<path d="M202.639 150.879C202.386 152.599 200.436 154.591 198.356 156.086C196.116 157.693 195.218 159.343 194.425 160.168C194.131 160.506 193.951 160.692 193.951 160.692L191.56 157.89C191.56 157.89 191.599 157.864 191.671 157.784C192.205 157.197 193.561 155.749 194.465 154.082C196.446 150.427 199.215 149.886 199.215 149.886C199.215 149.886 201.862 150.282 202.639 150.879Z" fill="#FFB27D"/>
<path d="M79.1366 186.023L80.7525 187.344C80.7525 187.344 85.1723 185.748 86.1702 191.039C86.1702 191.039 86.4359 193.293 85.0173 193.298C83.5988 193.302 84.1854 193.051 82.1766 193.111C80.1696 193.17 78.5039 192.103 78.2106 190.462L77.2496 189.072L79.1366 186.023Z" fill="#EA8E50"/>
<path d="M78.954 188.86C80.2434 187.504 80.1401 186.502 80.1401 186.502C80.1401 186.502 65.2133 174.191 63.7007 173.188C62.6696 172.504 52.2677 162.467 46.5382 156.701C43.7824 153.926 40.8328 154.883 37.221 155.928L34.2456 156.788C30.6541 157.827 29.7189 162.887 32.6666 165.346C40.9674 172.271 54.7745 180.061 57.3589 181.699C63.7727 185.763 76.3273 190.592 76.3273 190.592C76.3273 190.592 77.8509 190.022 78.9577 188.859L78.954 188.86Z" fill="#992525"/>
<path d="M95.9874 264.497C95.9874 264.497 99.6103 267.231 105.161 265.787C105.161 265.787 109.636 264.759 110.617 267.008C110.617 267.008 103.753 270.52 102.018 271.481C100.708 272.205 99.3428 273.348 98.3762 274.231C97.6126 274.93 96.4209 274.835 95.7698 274.028C95.4672 273.655 95.1223 273.209 94.7441 272.692C93.6853 271.248 91.2209 266.58 91.2209 266.58L95.9893 264.497H95.9874Z" fill="#233862"/>
<path d="M98.1143 263.107C98.1143 263.107 95.9081 268.23 90.8169 267.288C90.8169 267.288 80.4279 258.645 73.3003 249.666C70.9853 246.75 69.0152 243.797 67.8567 241.097C63.1308 230.074 50.3751 213.634 42.2661 205.301L62.5571 197.907C62.5571 197.907 69.0558 211.077 77.7034 227.255C83.9346 238.912 91.2818 252.13 98.1143 263.107Z" fill="#2B478B"/>
<path d="M77.7034 227.255L73.3003 249.666C70.9852 246.75 69.0152 243.797 67.8567 241.097C63.1308 230.074 50.3751 213.634 42.2661 205.301L62.5571 197.907C62.5571 197.907 69.0558 211.077 77.7034 227.255Z" fill="#233862"/>
<path d="M61.1183 267.47C61.1183 267.47 60.8969 271.558 65.8166 272.105C65.8166 272.105 68.6278 272.12 68.6352 274.721L54.3355 274.768C54.3355 274.768 53.9205 273.718 53.819 271.469C53.7416 269.743 55.4792 265.229 55.4792 265.229L61.1146 267.47H61.1183Z" fill="#233862"/>
<path d="M55.9017 197.907C55.9017 197.907 64.9404 207.914 70.679 225.939C73.8002 235.747 64.957 260.407 63.2323 268.976C63.2323 268.976 57.2999 269.483 53.2435 267.903C53.2435 267.903 52.9355 250.207 55.3077 236.567C56.6358 228.933 43.4061 220.242 37.625 206.449C33.6922 197.067 38.4772 197.225 44.3561 197L55.9017 197.907Z" fill="#2B478B"/>
<path d="M45.4665 153.265C40.4381 156.127 30.1413 153.488 30.1413 153.488C30.1413 153.488 34.3231 148.673 32.4231 140.917L36.3725 142.936L40.6133 145.107C40.6133 145.107 40.8881 146.477 41.0781 148.937C41.1261 149.571 41.1704 150.279 41.1999 151.052C43.7824 151.84 45.4665 153.265 45.4665 153.265Z" fill="#FFB07B"/>
<path d="M63.9074 197.39C63.9074 198.28 62.8891 198.707 62.6733 198.75C60.6442 199.124 54.9812 201.343 49.8789 201.852C45.5827 202.305 41.5946 201.874 37.2118 200.988C36.6307 200.871 35.2694 200.501 35.1716 199.94C35.0517 199.328 18.2692 165.476 31.3145 150.934C31.6207 150.592 34.1958 151.207 36.5514 151.771C38.7262 152.291 40.7221 152.001 42.5022 151.28L44.7102 152.451C47.4218 153.973 52.5536 159.382 53.155 163.627C53.4593 165.786 54.686 167.384 55.0402 169.281C55.1712 169.984 55.3058 170.669 55.4423 171.338C55.7098 172.65 55.9846 173.897 56.2687 175.085C57.0361 178.294 57.8459 181.059 58.6409 183.445C59.4876 185.98 60.3177 188.089 61.0592 189.853C62.0203 192.14 62.8338 193.85 63.341 195.158C63.6989 196.08 63.9055 196.803 63.9055 197.388L63.9074 197.39Z" fill="#BC3F3F"/>
<path d="M63.3448 195.16C39.6559 183.917 31.451 162.328 31.451 162.328C31.451 162.328 50.6979 169.48 55.446 171.342C55.7135 172.654 55.9883 173.901 56.2724 175.089C57.0398 178.298 57.8496 181.063 58.6446 183.449C59.4913 185.984 60.3214 188.093 61.0629 189.856C62.024 192.144 62.8375 193.854 63.3448 195.162V195.16Z" fill="#992525"/>
<path d="M93.3957 189.613H80.3172C67.7719 189.613 57.5673 179.331 57.5673 166.695V123.768C57.5673 111.13 67.7737 100.85 80.3172 100.85H93.3957C105.941 100.85 116.146 111.132 116.146 123.768V166.695C116.146 179.333 105.939 189.613 93.3957 189.613ZM80.3172 114.385C75.1818 114.385 71.0055 118.595 71.0055 123.766V166.693C71.0055 171.866 75.1836 176.074 80.3172 176.074H93.3957C98.5312 176.074 102.707 171.864 102.707 166.693V123.766C102.707 118.593 98.5293 114.385 93.3957 114.385H80.3172Z" fill="#F99746"/>
<path d="M230.548 153.138H110.619V137.324H230.548C234.883 137.324 238.397 140.864 238.397 145.231C238.397 149.598 234.883 153.138 230.548 153.138Z" fill="#F99746"/>
<path d="M215.5 149.953H228.097V180.942C228.097 184.445 225.274 187.288 221.797 187.288C218.32 187.288 215.498 184.445 215.498 180.942V149.953H215.5Z" fill="#F99746"/>
<path d="M77.2035 188.643L79.251 189.399C79.251 189.399 83.3498 186.48 85.9028 191.228C85.9028 191.228 86.8251 193.302 85.3642 193.753C83.9032 194.205 84.4345 193.779 82.3795 194.469C80.3265 195.158 78.3029 194.662 77.5263 193.183L76.1354 192.155L77.2035 188.643Z" fill="#FFB07B"/>
<path d="M78.8895 191.561C79.6458 189.57 79.9926 188.671 79.9926 188.671C79.9926 188.671 64.5253 175.97 62.9481 174.881C61.8746 174.137 51.1812 166.087 45.9701 159.812C43.3839 156.699 39.3073 155.276 35.3635 156.11L32.1169 156.796C28.1952 157.624 26.9224 162.623 29.9642 165.251C38.5307 172.649 52.9779 181.229 55.6711 183.014C62.3579 187.445 77.15 193.653 77.15 193.653C77.15 193.653 78.2974 193.125 78.8913 191.563L78.8895 191.561Z" fill="#BC3F3F"/>
<path d="M41.0782 148.937C36.1327 149.218 32.9156 145.103 32.9156 145.103C32.9156 145.103 35.1513 143.855 36.3707 142.937L40.6115 145.107C40.6115 145.107 40.8863 146.477 41.0763 148.937H41.0782Z" fill="#EA8E50"/>
<path d="M43.1847 143.821C43.1847 143.821 35.6918 149.238 32.4139 144.484C29.136 139.731 25.9632 137.229 30.608 133.57C35.2547 129.911 37.4442 131.067 38.9199 132.385C40.3975 133.704 45.0478 142.288 43.1829 143.821H43.1847Z" fill="#FFB07B"/>
<path d="M39.7131 128.094C39.4438 126.267 38.8406 124.981 38.8406 124.981C38.8406 124.981 38.3702 126.944 34.8101 126.672C31.2499 126.401 25.6072 127.026 23.7275 131.112C23.6076 131.372 23.5006 131.64 23.4065 131.913C23.0653 131.006 22.9841 129.649 22.9841 129.649C22.3071 131.409 22.9841 133.61 22.9841 133.61C22.9731 133.673 22.9657 133.738 22.9564 133.803C22.1706 134.472 21.5103 136.551 21.5103 136.551C21.7482 135.971 22.3256 135.592 22.8402 135.36C22.8236 138.54 24.1038 141.649 26.3506 142.574C29.6359 143.927 29.6101 142.895 32.9138 145.103C32.9138 145.103 33.8011 143.996 33.196 143.25C32.591 142.505 30.3073 141.424 31.5838 140.34C32.8603 139.257 33.3307 140.476 33.8011 139.731C34.2714 138.986 31.9195 136.821 34.9429 134.791C37.9663 132.762 39.9806 129.919 39.7113 128.092L39.7131 128.094Z" fill="#233862"/>
<path d="M170.968 270.488L168.207 271.523C168.207 271.523 156.215 254.769 154.739 240.027C154.475 237.396 154.564 234.844 155.134 232.49C155.134 232.49 155.016 231.815 154.811 230.624C154.717 230.068 154.599 229.398 154.466 228.63C154.077 226.38 153.54 223.3 152.926 219.794C151.515 211.725 149.687 201.412 148.266 193.83L149.01 193.59L157.06 190.974L158.723 185.651L164.717 184.062C164.717 184.062 166.056 186.701 167.253 199.165C167.474 200.8 167.674 202.603 167.825 204.558C168.292 210.525 168.325 217.928 167.255 226.391C166.98 228.558 166.633 230.793 166.202 233.092C165.886 234.777 165.838 237.072 165.971 239.709C166.574 251.76 170.966 270.488 170.966 270.488H170.968Z" fill="#BC3F3F"/>
<path d="M167.825 204.558L154.809 230.624C154.715 230.068 154.597 229.398 154.464 228.63C154.075 226.38 153.538 223.3 152.924 219.794C151.513 211.725 149.685 201.412 148.264 193.83L149.008 193.59L157.058 190.974L158.722 185.651L164.715 184.062C164.715 184.062 166.054 186.701 167.251 199.165C167.473 200.8 167.672 202.603 167.823 204.558H167.825Z" fill="#992525"/>
<path d="M162.099 187.407L161.799 184.804C156.752 186.155 143.264 181.03 143.264 181.03C143.264 181.03 138.373 185.36 139.015 195.74C139.329 200.806 139.901 222.334 140.498 228.706C140.714 231.016 140.904 232.659 140.982 233.315C140.982 233.319 140.982 233.32 140.982 233.32C141.006 233.521 140.936 233.711 140.834 233.885C139.954 235.391 139.226 236.957 138.628 238.561C132.76 254.314 139.532 273.712 139.532 273.712L141.29 272.999C141.29 272.999 145.143 251.409 148.274 241.872C148.805 240.254 149.314 238.983 149.783 238.224C151.144 236.011 152.407 232.395 153.555 228.093C155.722 219.961 157.467 209.38 158.628 201.215C158.788 201.222 162.099 187.409 162.099 187.409V187.407Z" fill="#BC3F3F"/>
<path d="M192.895 155.11C194.419 155.721 195.911 156.927 197.389 158.429C197.389 158.429 188.78 173.554 183.825 175.754C181.104 176.962 172.593 167.8 170.835 162.668C170.406 161.413 171.992 157.215 171.474 156.333C170.786 155.171 170.454 154.03 170.315 153.051C170.282 152.902 170.251 152.754 170.262 152.59C170.097 151.031 170.417 149.968 170.417 149.968C170.614 149.457 171.171 149.238 171.997 149.253H172.291C176.749 151.895 182.606 164.875 183.573 165.178C186.092 161.963 192.895 155.11 192.895 155.11Z" fill="#2C3A64"/>
<path d="M171.743 155.837C170.158 156.576 168.245 157.082 165.93 157.208C157.251 157.687 155.281 150.024 154.924 144.938C156.174 144.48 157.27 144.525 157.901 144.559C158.517 144.592 159.159 144.657 159.688 144.722C160.751 144.163 162.656 141.45 163.759 136.912L164.134 137.086L170.396 140.052C170.396 140.052 169.73 142.106 169.24 144.07C168.856 145.607 168.581 147.091 168.812 147.508C169.306 147.71 169.601 147.837 169.601 147.837C169.601 147.837 169.601 147.838 169.603 147.844C169.666 148.006 171.027 151.499 171.745 155.838L171.743 155.837Z" fill="#FFB27D"/>
<path d="M173.914 161.573C173.85 161.748 173.776 161.919 173.698 162.094C171.501 166.862 167.432 186.616 167.432 186.616C168.011 190.167 140.938 185.919 140.867 182.686C139.914 179.257 144.25 173.747 146.696 170.984C147.003 170.636 147.278 170.265 147.517 169.871C148.122 168.886 148.504 167.773 148.626 166.609C149.106 162.025 147.318 151.455 147.801 149.413C147.99 148.614 151.576 153.183 152.003 152.724C152.474 152.224 152.769 151.713 152.804 151.137C152.828 150.7 152.815 150.254 152.771 149.807C152.751 149.595 152.723 149.385 152.692 149.173C152.354 146.954 148.143 147.902 148.143 147.902C149.687 144.159 157.904 144.457 157.903 144.559C157.903 144.661 157.899 144.791 157.895 145.17C157.882 146.694 157.895 150.606 158.38 151.347C158.987 152.269 170.079 156.309 170.666 155.058C171.243 153.828 169.662 148.062 169.605 147.844C169.603 147.841 169.603 147.837 169.603 147.837C170.817 148.333 172.294 149.253 172.294 149.253C173.687 152.064 175.648 156.948 173.918 161.575L173.914 161.573Z" fill="#2B478B"/>
<path d="M166.441 120.369C166.429 119.99 166.137 115.906 159.961 115.692C159.961 115.692 162.997 116.056 163.523 117.402C163.523 117.402 161.455 115.74 159.771 116.274C158.087 116.809 157.098 119.78 157.089 120.758C157.08 121.735 158.015 124.887 159.083 125.154C159.487 125.257 159.954 125.229 160.378 125.154C160.094 125.602 159.815 126.095 159.548 126.647C157.084 131.742 159.625 136.722 161.712 136.172C163.049 135.819 163.429 138.12 163.429 138.12L176.426 127.518C176.426 127.518 171.653 117.567 166.443 120.367L166.441 120.369Z" fill="#BC3F3F"/>
<path d="M170.394 140.052C170.394 140.052 169.729 142.104 169.238 144.07C165.578 143.041 164.466 139.166 164.132 137.088L170.394 140.054V140.052Z" fill="#ED985F"/>
<path d="M171.166 142.225C171.166 142.225 162.409 140.183 163.754 134.71C165.1 129.235 164.875 125.286 170.524 126.357C176.172 127.429 176.74 129.787 176.733 131.725C176.725 133.662 173.477 142.615 171.166 142.225Z" fill="#FFB27D"/>
<path d="M177.225 128.616C176.284 126.632 175.176 126.738 174.482 127.091C170.367 123.255 166.333 126.388 166.333 126.388C164.779 130.168 161.413 131.714 161.413 131.714C161.413 131.714 162.758 133.102 166.657 133.071C167.849 133.061 169.046 132.511 170.134 131.751C168.033 133.885 165.569 135.182 165.569 135.182C170.45 134.241 173.722 128.548 174.058 127.944C174.471 128.559 175.262 129.869 175.329 130.974C175.419 132.478 174.906 135.395 175.761 135.505C175.761 135.505 178.638 131.591 177.225 128.616Z" fill="#BC3F3F"/>
<path d="M149.751 275.158H135.846C135.846 275.158 135.512 273.023 136.239 271.404C136.935 269.851 138.025 269.143 137.765 267.262C138.648 268.178 140.089 269.206 142.1 268.933C142.345 269.334 143.69 271.488 144.512 272.083C145.422 272.74 149.473 272.506 149.753 275.158H149.751Z" fill="#233862"/>
<path d="M179.608 275.158H165.704C165.704 275.158 165.183 272.924 166.096 271.404C166.904 270.059 166.595 269.293 165.997 268.18C166.626 268.44 167.441 268.676 168.34 268.624C169.033 268.583 169.765 268.267 170.407 267.892C171.005 268.58 173.569 271.505 174.37 272.084C175.279 272.742 179.33 272.508 179.61 275.16L179.608 275.158Z" fill="#233862"/>
<path d="M198.523 153.139H219.687L218.512 144.869L199.614 145.633L198.523 153.139Z" fill="#F99746"/>
<path d="M202.238 137.324C201.252 138.315 201.276 141.489 199.193 142.983C196.954 144.59 196.055 146.241 195.262 147.066C194.969 147.404 194.788 147.59 194.788 147.59L192.397 144.787C192.397 144.787 192.436 144.761 192.508 144.682C193.043 144.094 194.399 142.647 195.303 140.98C197.284 137.325 200.053 136.784 200.053 136.784C200.053 136.784 201.462 136.726 202.238 137.323V137.324Z" fill="#FFB27D"/>
<path d="M193.862 142.587L197.389 146.564C197.389 146.564 187.963 154.831 185.995 156.548C184.595 157.747 183.276 158.724 182.2 159.286C182.093 159.345 181.997 159.386 181.872 159.432C179.105 160.653 173.128 160.518 167.157 159.628C166.333 159.507 165.517 159.367 164.72 159.239C161.776 158.721 158.974 158.042 156.667 157.266C155.283 156.814 154.058 156.336 153.118 155.829C152.782 155.656 152.467 155.493 152.188 155.305C147.517 152.488 147.744 149.87 147.833 148.929C147.921 147.989 148.593 146.748 150.153 146.238C153.859 145.027 166.29 149.855 168.122 150.202C169.221 150.436 172.081 151.457 173.043 151.635C174.884 151.966 176.406 152.181 177.447 152.185C178.12 152.192 179.31 151.772 180.747 151.131C183.254 150.026 193.866 142.589 193.866 142.589L193.862 142.587Z" fill="#253D78"/>
<path d="M195.247 154.58C194.954 154.093 194.924 153.305 194.924 153.305C195.33 152.254 196.234 151.068 196.57 150.836C196.906 150.604 197.347 150.031 197.452 150.412C197.557 150.793 197.053 152.781 196.465 153.564C195.876 154.346 195.247 154.578 195.247 154.578V154.58Z" fill="#FFB27D"/>
<path d="M404.927 106.873C407.893 112.074 411.625 114.083 411.625 114.083H427.149C427.149 114.083 402.662 102.903 404.925 106.873H404.927Z" fill="#ED7D2B"/>
<path d="M415.928 147.393C416.332 147.859 416.683 147.835 416.482 148.392C416.482 148.394 416.391 148.669 416.39 148.671C416.019 149.702 415.32 150.425 413.899 151.574C413.719 151.72 413.532 151.845 413.392 151.968C413.355 152.001 413.104 152.051 413.069 152.083C413.04 152.109 412.82 152.568 412.793 152.592C411.468 153.822 411.737 153.465 409.358 155.963C406.643 158.808 406.724 158.514 406.191 158.254C405.741 158.033 405.554 157.504 406.567 155.807C406.617 155.725 406.665 155.642 406.715 155.56C406.849 155.335 406.984 155.104 407.117 154.88C408.303 152.839 407.998 151.88 407.718 148.842C407.489 146.374 403.905 135.052 403.905 135.052L409.107 134.148C409.107 134.148 410.673 143.165 412.4 144.553C413.322 145.293 414.355 145.302 415.242 145.85C415.305 145.887 415.366 145.928 415.427 145.967C415.93 146.304 415.523 146.921 415.928 147.389V147.393Z" fill="#FFB27D"/>
<path d="M416.851 147.121C417.255 147.588 417.306 148.11 417.107 148.667C417.107 148.669 417.107 148.673 417.104 148.675C416.65 149.704 415.458 150.849 414.084 151.995C413.905 152.146 413.746 152.284 413.604 152.412C413.567 152.445 413.53 152.477 413.495 152.51C413.466 152.536 413.44 152.562 413.412 152.586C412.088 153.817 412.586 154.099 410.205 156.597C407.489 159.442 405.621 159.494 405.089 159.234C404.639 159.012 405.554 157.503 406.565 155.807C407.095 155.612 409.548 154.606 411.404 152.215C413.038 150.113 414.128 147.415 415.24 145.85C415.303 145.887 415.364 145.928 415.425 145.967C415.929 146.304 416.443 146.651 416.849 147.119L416.851 147.121Z" fill="#BC3F3F"/>
<path d="M373.939 143.537C373.618 145.154 372.576 144.7 370.019 144.072C367.463 143.442 368.055 144.059 364.415 143.654C360.776 143.249 360.446 142.665 360.335 142.121C360.235 141.638 360.995 141.311 362.925 141.086C363.166 141.058 363.412 141.028 363.655 140.998C365.834 140.723 367.427 139.307 369.405 138.144C371.279 137.042 374.076 132.556 374.076 132.556L379.067 132.954C379.067 132.954 376.448 136.962 375.435 138.703C374.839 139.727 374.871 141.084 374.944 142.13C374.983 142.699 374.053 142.966 373.939 143.537Z" fill="#FFB27D"/>
<path d="M369.739 144.568C367.182 143.938 367.789 144.687 364.15 144.282C360.51 143.877 359.407 142.509 359.296 141.964C359.197 141.481 360.995 141.31 362.925 141.085L362.943 141.123C362.943 141.123 365.125 142.682 368.154 142.754C370.622 142.816 373.238 142.102 374.944 142.13C374.983 142.698 375.02 143.28 374.906 143.851C374.585 145.467 372.295 145.198 369.739 144.57V144.568Z" fill="#BC3F3F"/>
<path d="M394.033 111.7L398.698 124.348L404.789 140.863C404.789 140.863 406.441 141.024 408.024 140.565C409.481 140.142 411.155 139.03 411.155 139.03C411.155 139.03 409.463 121.299 406.309 111.121C405.501 108.508 404.593 106.395 403.593 105.206C398.701 99.3818 394.033 111.702 394.033 111.702V111.7Z" fill="#ED7D2B"/>
<path d="M398.777 91.6142C401.834 90.6219 410.551 91.8967 419.31 93.623L421.143 90.5754L440.058 89.0869C440.058 89.0869 446.289 103.028 442.882 111.916C442.052 114.081 439.344 114.079 439.342 114.081C439.342 114.081 428.145 114.081 424.489 114.081C415.082 114.081 404.58 107.566 403.223 107.293C401 106.845 400.109 111.325 397.886 116.029C395.663 120.732 376.985 136.862 376.985 136.862C376.985 136.862 374.114 136.89 372.928 136.442C371.654 135.961 371.187 135.334 371.187 135.334C371.187 135.334 391.884 93.8516 398.777 91.6123V91.6142Z" fill="#F99746"/>
<path d="M421.254 64.3323C427.991 68.0693 441.654 75.8147 441.726 75.7645C441.726 75.7645 446.749 77.6712 449.599 75.7645C454.349 72.5869 456.894 64.0368 448.21 56.678C443.878 53.0078 440.802 52.114 440.333 46.2548C440.078 43.0752 435.766 32.5833 428.597 33.5533C427.998 33.6351 427.395 33.6927 426.791 33.6722C425.954 33.6444 424.572 33.7689 423.154 34.6181C419.098 37.0506 411.158 62.8865 421.256 64.3323H421.254Z" fill="#233862"/>
<path d="M426.899 61.1528C426.869 61.1713 430.213 62.3216 432.449 61.3237C434.552 60.3871 436.146 56.901 436.114 56.8991C435.157 56.8545 434.107 56.0127 433.298 50.4824L432.89 50.6292L426.039 53.1119C426.039 53.1119 426.535 55.327 426.856 57.4343C427.127 59.2053 427.271 60.9 426.897 61.1509L426.899 61.1528Z" fill="#FFB27D"/>
<path d="M426.041 53.1135C426.041 53.1135 426.537 55.3286 426.858 57.4359C430.793 56.7224 432.337 52.7735 432.892 50.6309L426.041 53.1135Z" fill="#ED975D"/>
<path d="M425.021 55.3121C425.021 55.3121 434.393 54.0447 433.521 48.1762C432.648 42.3077 433.27 38.1916 427.247 38.7528C421.226 39.314 420.4 41.7279 420.217 43.7591C420.036 45.7883 422.56 55.4905 425.021 55.3121Z" fill="#FFB27D"/>
<path d="M420.558 40.5425C420.558 40.5425 426.559 45.7513 430.639 46.1713C434.72 46.5912 436.266 45.2719 436.266 45.2719C436.266 45.2719 433.86 43.2593 432.412 40.0129C431.986 39.0558 431.084 38.398 430.045 38.3088C427.131 38.0561 421.606 37.939 420.557 40.5425H420.558Z" fill="#233862"/>
<path d="M424.309 40.0762C424.309 40.0762 422.302 42.0311 421.669 43.4824C421.058 44.8817 420.876 48.2285 421.363 49.5591C421.363 49.5591 418.236 43.4323 420.005 40.4571C421.883 37.3017 424.309 40.078 424.309 40.078V40.0762Z" fill="#233862"/>
<path d="M419.007 75.0621C419.291 94.1766 419.085 90.1813 421.16 91.9949C421.66 92.4316 423.065 92.6918 424.916 92.8145C430.734 93.2028 440.96 92.2384 441.349 91.155C442.69 87.4068 441.744 86.2435 442.864 80.5051C442.98 79.8956 443.126 79.234 443.296 78.5149C444.229 74.5734 445.138 73.2336 441.825 66.9024C438.822 61.1676 435.701 56.5126 435.421 56.6817C427.496 61.4204 426.858 57.438 426.858 57.438C426.858 57.438 418.867 65.7391 419.007 75.0621Z" fill="#BC3F3F"/>
<path d="M398.698 124.348L404.789 140.863C404.789 140.863 406.442 141.024 408.024 140.565C409.481 140.142 411.155 139.03 411.155 139.03C411.155 139.03 409.463 121.299 406.309 111.121L398.698 124.35V124.348Z" fill="#F99746"/>
<path d="M426.858 57.436C426.858 57.436 418.705 58.8279 417.747 62.3661C416.79 65.9024 411.156 86.6931 411.156 86.6931C411.156 86.6931 415.301 87.4438 417.216 85.5149C419.131 83.586 423.879 67.6177 423.879 67.6177L426.858 57.4379V57.436Z" fill="#BC3F3F"/>
<path d="M424.916 92.8162C430.734 93.2046 440.96 92.2401 441.349 91.1568C442.69 87.4086 441.744 86.2453 442.864 80.5068L440.058 72.5459C440.058 72.5459 440.523 81.41 437.928 83.7421C435.336 86.0743 427.302 88.2429 426.043 90.1904C425.434 91.1252 425.034 92.0636 424.917 92.8162H424.916Z" fill="#992525"/>
<path d="M431.582 89.0865C431.582 89.0865 425.842 87.7987 424.916 88.3116C423.99 88.8245 421.726 90.6939 421.442 91.3443C421.158 91.9947 423.504 90.85 424.266 90.6438C424.761 90.51 426.061 90.9653 426.705 91.1808C429.415 92.0895 431.073 91.6231 431.073 91.6231L431.58 89.0847L431.582 89.0865Z" fill="#FFB27D"/>
<path d="M435.426 56.6777C435.426 56.6777 443.133 57.1553 445.801 60.9054C449.556 66.1829 457.007 88.6702 452.736 91.6695C447.927 95.0479 430.852 92.5522 430.852 92.5522C430.852 92.5522 430.283 89.8762 431.075 88.5829C431.866 87.2895 444.714 85.197 445.306 84.6005C445.898 84.004 437.894 72.9509 437.894 71.1595C437.894 69.3681 435.426 56.6777 435.426 56.6777Z" fill="#BC3F3F"/>
<path d="M424.639 89.9228C424.639 89.9228 423.436 91.4856 423.041 91.6714C422.647 91.8572 422.392 91.8108 422.392 91.8108L423.202 90.3409L424.637 89.9209L424.639 89.9228Z" fill="#FFB27D"/>
<path d="M424.916 88.3135L421.418 90.025C421.418 90.025 421.568 90.2703 421.997 90.2498C422.427 90.2294 423.514 89.8298 423.514 89.8298L424.914 88.3135H424.916Z" fill="#FFB27D"/>
<path d="M423.041 94.0648H395.383L387.062 73.2222H414.678L423.041 94.0648Z" fill="#163560"/>
<path d="M395.058 93.2529H431.582V94.065H395.383L395.058 93.2529Z" fill="#11294A"/>
<path d="M402.365 83.6437C402.156 82.9115 402.577 82.3169 403.304 82.3169C404.031 82.3169 404.791 82.9115 404.999 83.6437C405.207 84.3759 404.787 84.9705 404.06 84.9705C403.333 84.9705 402.573 84.3759 402.365 83.6437Z" fill="white"/>
<path d="M533.295 276H3.26129C2.87392 276 2.55664 275.68 2.55664 275.29C2.55664 274.9 2.87392 274.58 3.26129 274.58H533.295C533.683 274.58 534 274.9 534 275.29C534 275.68 533.683 276 533.295 276Z" fill="#2E3552"/>
</g>
<defs>
<clipPath id="clip0_86_954">
<rect width="534" height="276" fill="white"/>
</clipPath>
</defs>
</svg>
