<svg width="1000" height="283" viewBox="0 0 1000 283" fill="none" xmlns="http://www.w3.org/2000/svg">
<path d="M503.87 282.831L-32.1691 243.574L-34.2852 221.816L-40.9885 152.97C-40.9885 152.97 56.0644 44.668 135.465 6.13055C135.965 5.89474 136.451 5.65892 136.938 5.44793C146.703 1.01705 155.641 -0.0627471 163.921 1.5135C214.617 11.0579 240.063 119.31 271.871 156.967C274.67 160.28 277.509 163.048 280.427 165.146C282.346 166.523 284.304 167.628 286.289 168.41C322.066 182.41 353.874 172.965 382.908 173.648C389.691 173.797 396.302 174.516 402.782 176.204C403.636 176.428 404.503 176.664 405.358 176.924C435.181 185.935 468.658 229.362 487.9 257.735C497.745 272.256 503.87 282.831 503.87 282.831Z" fill="url(#paint0_linear_65_18)"/>
<g style="mix-blend-mode:overlay" opacity="0.3">
<path d="M271.871 156.967C265.417 155.626 256.545 151.406 251.564 138.883C243.125 117.635 242.56 98.5214 221.754 92.1419C200.947 85.7748 208.82 52.3136 189.131 33.7213C175.133 20.5032 163.698 9.70521 163.922 1.51367C214.617 11.0581 240.063 119.311 271.871 156.967Z" fill="white"/>
</g>
<g style="mix-blend-mode:overlay" opacity="0.3">
<path d="M487.9 257.735L482.722 258.38C482.722 258.38 468.093 241.91 460.785 234.476C453.477 227.041 432.657 229.697 427.597 216.951C422.537 204.204 421.971 196.77 411.286 188.802C407.369 185.873 404.359 181.169 402.782 176.204C403.636 176.428 404.503 176.663 405.358 176.924C435.181 185.935 468.658 229.362 487.9 257.735Z" fill="white"/>
</g>
<g style="mix-blend-mode:multiply" opacity="0.3">
<path d="M189.631 241.339C144.85 254.396 22.8241 234.29 -34.2852 221.816L-40.9885 152.97C-40.9885 152.97 56.0644 44.6679 135.465 6.13038C135.965 5.89457 136.451 5.65875 136.938 5.44775C128.933 18.5294 120.718 35.9302 117.892 55.2672C111.846 96.8951 161.109 121.37 186.174 140.149C211.239 158.915 248.396 224.199 189.631 241.339Z" fill="#3C2381"/>
</g>
<g style="mix-blend-mode:multiply" opacity="0.3">
<path d="M410.839 262.513C376.718 264.077 332.673 238.087 301.299 218.85C269.925 199.612 268.269 179.344 282.583 178.302C294.031 177.47 286.447 175.31 280.427 165.146C282.346 166.523 284.305 167.628 286.289 168.41C322.066 182.41 353.874 172.965 382.908 173.647C378.006 177.532 373.655 182.782 371.763 189.745C366.255 210.013 393.226 211.577 409.196 225.08C425.152 238.596 444.973 260.949 410.839 262.513Z" fill="#68A8DE"/>
</g>
<path d="M1030.01 195.268L832.107 213.699L621.742 233.284L609.19 234.451L600.634 235.245C600.634 235.245 600.686 235.071 600.804 234.724C602.723 228.977 620.691 177.396 653.051 164.81L654.312 164.326C662.803 161.149 671.57 158.977 680.757 157.401C708.28 152.697 739.746 153.317 780.045 147.683C786.564 146.777 792.991 144.555 799.34 141.39C805.846 138.163 812.26 133.956 818.582 129.165C846.276 108.214 872.235 76.3293 896.432 67.8647C899.876 66.6608 903.28 65.9286 906.645 65.7672C912.954 65.4693 919.131 67.1821 925.191 71.5385C967.513 101.996 1030.01 195.268 1030.01 195.268Z" fill="url(#paint1_linear_65_18)"/>
<g style="mix-blend-mode:overlay" opacity="0.3">
<path d="M621.742 233.284C619.652 233.818 617.786 234.14 616.235 234.19C614.224 234.252 611.832 234.351 609.19 234.451C606.588 234.55 603.749 234.649 600.804 234.724C602.723 228.977 620.691 177.395 653.051 164.81L654.312 164.326C648.91 169.986 642.588 177.445 641.195 182.72C638.645 192.339 668.705 190.415 670.229 200.518C671.583 209.529 638.947 228.853 621.742 233.284Z" fill="white"/>
</g>
<g style="mix-blend-mode:overlay" opacity="0.3">
<path d="M896.432 67.8647C888.375 74.6538 876.519 84.856 872.169 89.8454C865.321 97.7018 871.196 112.931 863.363 120.328C855.529 127.725 839.415 124.945 830.609 127.253C827.507 128.06 823.051 128.768 818.582 129.165C846.276 108.214 872.235 76.3293 896.432 67.8647Z" fill="white"/>
</g>
<g style="mix-blend-mode:multiply" opacity="0.3">
<path d="M1030.01 195.268L832.107 213.699C815.651 195.64 825.785 169.626 841.925 159.933C864.283 146.491 908.34 147.137 914.439 113.861C917.804 95.4553 912.283 77.8435 906.645 65.7672C912.954 65.4693 919.131 67.1821 925.191 71.5385C967.513 101.996 1030.01 195.268 1030.01 195.268Z" fill="#3C2381"/>
</g>
<g style="mix-blend-mode:multiply" opacity="0.3">
<path d="M799.34 141.39C784.211 159.945 752.522 198.16 744.36 203.075C733.503 209.591 756.189 179.779 746.331 176.055C736.46 172.332 711.803 184.433 695.018 177.917C687.802 175.124 681.336 166.97 680.757 157.401C708.28 152.697 739.746 153.318 780.045 147.683C786.564 146.777 792.991 144.555 799.34 141.39Z" fill="#68A8DE"/>
</g>
<path d="M699.027 207.742C699.027 207.742 695.925 143.786 699.908 142.532C703.89 141.278 709.2 197.291 709.2 197.291C709.2 197.291 709.647 181.405 712.302 178.475C714.957 175.546 715.838 192.277 715.838 192.277C715.838 192.277 716.719 178.066 718.94 177.644C721.161 177.222 723.369 203.149 723.369 203.149L699.014 207.754L699.027 207.742Z" fill="url(#paint2_linear_65_18)"/>
<path d="M804.913 198.11C804.913 198.11 802.074 139.491 805.728 138.337C809.382 137.183 814.245 188.529 814.245 188.529C814.245 188.529 814.652 173.97 817.084 171.289C819.515 168.609 820.33 183.937 820.33 183.937C820.33 183.937 821.145 170.905 823.169 170.532C825.193 170.16 827.231 193.903 827.231 193.903L804.913 198.123V198.11Z" fill="url(#paint3_linear_65_18)"/>
<path d="M808.764 188.579C808.764 188.579 801.955 152.126 799.55 151.89C797.145 151.655 801.627 183.887 801.627 183.887C801.627 183.887 799.248 174.976 797.368 173.648C795.489 172.32 797.211 181.852 797.211 181.852C797.211 181.852 794.805 173.946 793.504 173.97C792.203 173.995 794.411 188.889 794.411 188.889L808.764 188.579Z" fill="url(#paint4_linear_65_18)"/>
<defs>
<linearGradient id="paint0_linear_65_18" x1="231.441" y1="-111.902" x2="231.441" y2="330.528" gradientUnits="userSpaceOnUse">
<stop stop-color="#DDCEFF"/>
<stop offset="0.5" stop-color="#977BD6"/>
<stop offset="1" stop-color="#623FB3"/>
</linearGradient>
<linearGradient id="paint1_linear_65_18" x1="815.322" y1="-2.02398" x2="815.322" y2="263.916" gradientUnits="userSpaceOnUse">
<stop stop-color="#C1B1E9"/>
<stop offset="0.5" stop-color="#9F86DB"/>
<stop offset="1" stop-color="#735AB5"/>
</linearGradient>
<linearGradient id="paint2_linear_65_18" x1="706.453" y1="147.05" x2="710.98" y2="209.519" gradientUnits="userSpaceOnUse">
<stop stop-color="#0075B0"/>
<stop offset="0.54" stop-color="#014870"/>
<stop offset="1" stop-color="#032036"/>
</linearGradient>
<linearGradient id="paint3_linear_65_18" x1="811.721" y1="142.495" x2="815.861" y2="199.748" gradientUnits="userSpaceOnUse">
<stop stop-color="#0075B0"/>
<stop offset="0.54" stop-color="#014870"/>
<stop offset="1" stop-color="#032036"/>
</linearGradient>
<linearGradient id="paint4_linear_65_18" x1="796.467" y1="155.29" x2="801.383" y2="191.18" gradientUnits="userSpaceOnUse">
<stop stop-color="#0075B0"/>
<stop offset="0.54" stop-color="#014870"/>
<stop offset="1" stop-color="#032036"/>
</linearGradient>
</defs>
</svg>
