<svg width="434" height="216" viewBox="0 0 434 216" fill="none" xmlns="http://www.w3.org/2000/svg">
<g clip-path="url(#clip0_85_78)">
<path d="M28.149 215.476C28.149 215.476 -22.4069 163.339 11.9877 102.609C38.522 55.7583 102.712 64.1061 135.648 83.9242C149.676 92.365 179.815 76.8852 218.039 29.8831C262.412 -24.6816 434.21 8.61073 404.541 112.865C390.183 163.317 448.238 165.151 418.657 215.582L28.149 215.476Z" fill="#EBF3FA"/>
<path d="M387.991 215.059H259.733C246.894 215.059 236.487 204.963 236.487 192.508V84.7895C236.487 73.3527 238.798 62.2519 243.359 51.7924C247.761 41.698 254.059 32.6347 262.078 24.854C270.097 17.0734 279.44 10.9653 289.848 6.6954C299.138 2.88362 296.916 0.574164 306.988 0.040428C308.604 -0.0453769 322.232 0.0287934 323.863 0.0287934C335.653 0.0287934 347.097 2.27136 357.878 6.6954C368.284 10.9653 377.627 17.0749 385.648 24.854C393.669 32.6347 399.967 41.6965 404.367 51.7924C408.927 62.2504 411.239 73.3527 411.239 84.7895V192.508C411.239 204.963 400.832 215.059 387.993 215.059H387.991ZM263.79 89.2819H383.931V84.7895C383.931 52.6577 356.983 26.5178 323.861 26.5178C290.74 26.5178 263.792 52.6592 263.792 84.7895V89.2819H263.79Z" fill="#4F75BA"/>
<path d="M372.518 215.059H244.26C231.421 215.059 221.013 204.963 221.013 192.508V84.7895C221.013 73.3527 223.325 62.2519 227.886 51.7924C232.287 41.698 238.585 32.6347 246.605 24.8541C254.625 17.0735 263.967 10.9653 274.374 6.69542C285.155 2.27284 296.598 0.0302734 308.388 0.0302734C320.178 0.0302734 331.623 2.27284 342.403 6.69688C352.809 10.9668 362.152 17.0764 370.173 24.8555C378.194 32.6361 384.492 41.698 388.892 51.7939C393.453 62.2519 395.764 73.3542 395.764 84.791V192.51C395.764 204.964 385.357 215.06 372.518 215.06V215.059ZM248.318 89.2819H368.46V84.7895C368.46 52.6578 341.511 26.5178 308.39 26.5178C275.268 26.5178 248.32 52.6592 248.32 84.7895V89.2819H248.318Z" fill="#739AF0"/>
<path d="M319.2 131.496C319.2 128.879 318.209 126.488 316.575 124.651C315.076 122.493 311.974 121.009 308.388 121.009C304.802 121.009 301.7 122.493 300.201 124.651C298.567 126.488 297.576 128.88 297.576 131.496C297.576 136.198 300.765 140.176 305.159 141.508V157.392C305.159 158.673 306.604 159.712 308.387 159.712C310.169 159.712 311.614 158.673 311.614 157.392V141.508C316.009 140.176 319.197 136.197 319.197 131.496H319.2Z" fill="#4F75BA"/>
<path d="M164.691 118.079C164.486 119.426 162.901 120.985 161.21 122.154C159.39 123.412 158.66 124.703 158.016 125.349C157.777 125.614 157.63 125.759 157.63 125.759L155.687 123.566C155.687 123.566 155.719 123.546 155.777 123.483C156.212 123.024 157.314 121.891 158.048 120.586C159.659 117.725 161.909 117.302 161.909 117.302C161.909 117.302 164.06 117.612 164.691 118.079Z" fill="#FFB27D"/>
<path d="M64.3171 145.583L65.6304 146.617C65.6304 146.617 69.2225 145.368 70.0336 149.508C70.0336 149.508 70.2494 151.272 69.0966 151.277C67.9437 151.28 68.4204 151.083 66.7878 151.13C65.1567 151.176 63.8029 150.342 63.5645 149.057L62.7834 147.97L64.3171 145.583Z" fill="#EA8E50"/>
<path d="M64.1687 147.804C65.2166 146.742 65.1327 145.958 65.1327 145.958C65.1327 145.958 53.0012 136.323 51.7718 135.538C50.9338 135.003 42.4798 127.148 37.8233 122.635C35.5835 120.464 33.1863 121.213 30.2508 122.03L27.8326 122.704C24.9137 123.517 24.1536 127.477 26.5493 129.401C33.2957 134.821 44.5172 140.918 46.6176 142.199C51.8303 145.379 62.0338 149.159 62.0338 149.159C62.0338 149.159 63.2722 148.713 64.1717 147.802L64.1687 147.804Z" fill="#992525"/>
<path d="M78.0123 206.998C78.0123 206.998 80.9567 209.137 85.4678 208.007C85.4678 208.007 89.1049 207.203 89.9024 208.962C89.9024 208.962 84.3239 211.711 82.9132 212.463C81.8487 213.03 80.7393 213.924 79.9538 214.615C79.3331 215.162 78.3646 215.088 77.8354 214.457C77.5895 214.164 77.3092 213.815 77.0018 213.411C76.1413 212.281 74.1384 208.628 74.1384 208.628L78.0138 206.998H78.0123Z" fill="#233862"/>
<path d="M79.7409 205.91C79.7409 205.91 77.9478 209.919 73.81 209.182C73.81 209.182 65.3666 202.418 59.5737 195.39C57.6922 193.109 56.091 190.798 55.1495 188.685C51.3086 180.058 40.9416 167.191 34.3511 160.67L50.8423 154.883C50.8423 154.883 56.124 165.19 63.1522 177.851C68.2165 186.974 74.1878 197.319 79.7409 205.91Z" fill="#2B478B"/>
<path d="M63.1522 177.851L59.5737 195.39C57.6922 193.109 56.091 190.798 55.1495 188.685C51.3086 180.058 40.9416 167.191 34.3511 160.67L50.8423 154.883C50.8423 154.883 56.124 165.19 63.1522 177.851Z" fill="#233862"/>
<path d="M49.6729 209.325C49.6729 209.325 49.493 212.524 53.4914 212.952C53.4914 212.952 55.7762 212.963 55.7822 214.999L44.1604 215.036C44.1604 215.036 43.8231 214.214 43.7406 212.454C43.6776 211.103 45.0899 207.571 45.0899 207.571L49.6699 209.325H49.6729Z" fill="#233862"/>
<path d="M45.4332 154.884C45.4332 154.884 52.7793 162.715 57.4433 176.822C59.9799 184.498 52.7928 203.797 51.391 210.503C51.391 210.503 46.5696 210.9 43.2729 209.663C43.2729 209.663 43.0225 195.814 44.9505 185.139C46.0299 179.165 35.2776 172.363 30.5791 161.569C27.3829 154.226 31.2718 154.35 36.0497 154.174L45.4332 154.884Z" fill="#2B478B"/>
<path d="M36.9522 119.946C32.8654 122.186 24.4969 120.121 24.4969 120.121C24.4969 120.121 27.8956 116.353 26.3514 110.282L29.5612 111.863L33.0079 113.562C33.0079 113.562 33.2312 114.634 33.3857 116.559C33.4246 117.055 33.4606 117.609 33.4846 118.214C35.5835 118.831 36.9522 119.946 36.9522 119.946Z" fill="#FFB07B"/>
<path d="M51.9397 154.479C51.9397 155.176 51.1122 155.51 50.9368 155.544C49.2876 155.836 44.6851 157.572 40.5383 157.971C37.0467 158.326 33.8054 157.988 30.2433 157.295C29.7711 157.203 28.6647 156.914 28.5852 156.474C28.4878 155.996 14.848 129.502 25.4504 118.122C25.6992 117.855 27.7921 118.336 29.7066 118.777C31.4742 119.184 33.0963 118.957 34.543 118.393L36.3376 119.309C38.5414 120.5 42.7122 124.734 43.2009 128.055C43.4483 129.745 44.4452 130.996 44.7331 132.481C44.8395 133.031 44.949 133.567 45.0599 134.091C45.2773 135.118 45.5007 136.093 45.7315 137.023C46.3552 139.534 47.0134 141.698 47.6595 143.566C48.3476 145.549 49.0223 147.2 49.625 148.58C50.406 150.371 51.0672 151.708 51.4795 152.732C51.7703 153.454 51.9382 154.019 51.9382 154.478L51.9397 154.479Z" fill="#BC3F3F"/>
<path d="M51.4825 152.734C32.2298 143.935 25.5613 127.039 25.5613 127.039C25.5613 127.039 41.204 132.637 45.0629 134.094C45.2803 135.121 45.5037 136.097 45.7345 137.026C46.3582 139.537 47.0164 141.702 47.6625 143.569C48.3506 145.553 49.0253 147.203 49.628 148.583C50.409 150.374 51.0702 151.712 51.4825 152.735V152.734Z" fill="#992525"/>
<path d="M75.9059 148.393H65.2766C55.0806 148.393 46.787 140.346 46.787 130.457V96.8619C46.787 86.9711 55.0821 78.9258 65.2766 78.9258H75.9059C86.102 78.9258 94.3955 86.9725 94.3955 96.8619V130.457C94.3955 140.348 86.1005 148.393 75.9059 148.393ZM65.2766 89.519C61.1028 89.519 57.7087 92.8131 57.7087 96.8605V130.455C57.7087 134.504 61.1043 137.797 65.2766 137.797H75.9059C80.0797 137.797 83.4739 134.503 83.4739 130.455V96.8605C83.4739 92.8116 80.0782 89.519 75.9059 89.519H65.2766Z" fill="#F99746"/>
<path d="M187.374 119.847H89.9039V107.471H187.374C190.897 107.471 193.753 110.242 193.753 113.659C193.753 117.077 190.897 119.847 187.374 119.847Z" fill="#F99746"/>
<path d="M175.144 117.354H185.382V141.607C185.382 144.348 183.088 146.573 180.262 146.573C177.436 146.573 175.142 144.348 175.142 141.607V117.354H175.144Z" fill="#F99746"/>
<path d="M62.746 147.634L64.4101 148.226C64.4101 148.226 67.7413 145.941 69.8162 149.657C69.8162 149.657 70.5658 151.28 69.3784 151.633C68.191 151.987 68.6228 151.654 66.9527 152.193C65.2841 152.733 63.6395 152.344 63.0083 151.187L61.8779 150.382L62.746 147.634Z" fill="#FFB07B"/>
<path d="M64.1162 149.917C64.7309 148.359 65.0127 147.655 65.0127 147.655C65.0127 147.655 52.442 137.715 51.1601 136.863C50.2876 136.281 41.5968 129.981 37.3615 125.07C35.2596 122.634 31.9464 121.52 28.7411 122.173L26.1025 122.709C22.9152 123.358 21.8808 127.27 24.353 129.326C31.3153 135.116 43.057 141.831 45.2458 143.228C50.6804 146.695 62.7025 151.554 62.7025 151.554C62.7025 151.554 63.635 151.141 64.1177 149.918L64.1162 149.917Z" fill="#BC3F3F"/>
<path d="M33.3856 116.559C29.3663 116.779 26.7517 113.559 26.7517 113.559C26.7517 113.559 28.5687 112.582 29.5597 111.863L33.0064 113.562C33.0064 113.562 33.2297 114.634 33.3841 116.559H33.3856Z" fill="#EA8E50"/>
<path d="M35.0977 112.555C35.0977 112.555 29.008 116.795 26.3439 113.075C23.6798 109.354 21.1012 107.397 24.8762 104.533C28.6527 101.67 30.4322 102.574 31.6316 103.605C32.8324 104.638 36.6119 111.356 35.0962 112.555H35.0977Z" fill="#FFB07B"/>
<path d="M32.2762 100.248C32.0574 98.8179 31.5671 97.8115 31.5671 97.8115C31.5671 97.8115 31.1848 99.3473 28.2914 99.135C25.3979 98.9226 20.8119 99.4113 19.2842 102.609C19.1867 102.813 19.0998 103.022 19.0233 103.236C18.746 102.526 18.68 101.465 18.68 101.465C18.1298 102.842 18.68 104.564 18.68 104.564C18.671 104.613 18.665 104.664 18.6575 104.715C18.0189 105.239 17.4821 106.866 17.4821 106.866C17.6755 106.412 18.1448 106.116 18.5631 105.934C18.5496 108.422 19.59 110.855 21.416 111.58C24.0861 112.638 24.0651 111.831 26.7502 113.559C26.7502 113.559 27.4713 112.692 26.9796 112.109C26.4878 111.526 24.6318 110.679 25.6693 109.831C26.7067 108.984 27.089 109.938 27.4713 109.354C27.8536 108.771 25.9421 107.077 28.3993 105.489C30.8565 103.901 32.4936 101.676 32.2747 100.246L32.2762 100.248Z" fill="#233862"/>
<path d="M138.952 211.686L136.707 212.496C136.707 212.496 126.961 199.384 125.762 187.847C125.547 185.788 125.619 183.791 126.083 181.948C126.083 181.948 125.987 181.421 125.82 180.488C125.744 180.053 125.648 179.528 125.54 178.928C125.224 177.167 124.787 174.757 124.288 172.013C123.141 165.698 121.655 157.626 120.501 151.693L121.105 151.505L127.648 149.457L129 145.292L133.871 144.049C133.871 144.049 134.959 146.114 135.932 155.868C136.112 157.148 136.274 158.559 136.397 160.089C136.776 164.758 136.803 170.552 135.934 177.175C135.71 178.871 135.429 180.621 135.078 182.42C134.821 183.739 134.782 185.535 134.89 187.598C135.381 197.03 138.95 211.686 138.95 211.686H138.952Z" fill="#BC3F3F"/>
<path d="M136.397 160.089L125.819 180.488C125.742 180.053 125.646 179.528 125.538 178.928C125.222 177.167 124.786 174.757 124.287 172.013C123.14 165.698 121.654 157.626 120.5 151.693L121.104 151.505L127.646 149.457L128.999 145.292L133.869 144.049C133.869 144.049 134.958 146.114 135.931 155.868C136.111 157.148 136.273 158.559 136.396 160.089H136.397Z" fill="#992525"/>
<path d="M131.744 146.667L131.499 144.629C127.397 145.686 116.435 141.675 116.435 141.675C116.435 141.675 112.461 145.064 112.983 153.188C113.237 157.152 113.702 174 114.188 178.987C114.363 180.795 114.518 182.081 114.581 182.594C114.581 182.597 114.581 182.598 114.581 182.598C114.6 182.755 114.543 182.904 114.461 183.041C113.746 184.219 113.153 185.445 112.668 186.7C107.899 199.028 113.402 214.21 113.402 214.21L114.831 213.651C114.831 213.651 117.963 196.755 120.507 189.291C120.939 188.024 121.353 187.03 121.733 186.436C122.84 184.704 123.867 181.874 124.799 178.507C126.561 172.143 127.979 163.862 128.922 157.472C129.052 157.478 131.744 146.668 131.744 146.668V146.667Z" fill="#BC3F3F"/>
<path d="M156.773 121.391C158.011 121.869 159.224 122.813 160.425 123.988C160.425 123.988 153.428 135.825 149.401 137.547C147.19 138.492 140.272 131.322 138.844 127.305C138.494 126.324 139.784 123.038 139.362 122.348C138.803 121.439 138.533 120.546 138.421 119.779C138.394 119.663 138.369 119.547 138.378 119.419C138.244 118.198 138.503 117.367 138.503 117.367C138.664 116.967 139.117 116.795 139.788 116.807H140.027C143.65 118.875 148.41 129.033 149.196 129.27C151.244 126.754 156.773 121.391 156.773 121.391Z" fill="#2C3A64"/>
<path d="M139.581 121.959C138.294 122.538 136.739 122.934 134.857 123.033C127.804 123.408 126.203 117.41 125.912 113.43C126.928 113.072 127.819 113.107 128.331 113.133C128.832 113.159 129.354 113.21 129.784 113.261C130.648 112.823 132.196 110.7 133.093 107.148L133.397 107.285L138.487 109.606C138.487 109.606 137.946 111.213 137.547 112.75C137.235 113.953 137.012 115.115 137.199 115.441C137.601 115.599 137.841 115.698 137.841 115.698C137.841 115.698 137.841 115.7 137.842 115.704C137.893 115.831 139 118.565 139.583 121.961L139.581 121.959Z" fill="#FFB27D"/>
<path d="M141.346 126.448C141.293 126.585 141.233 126.719 141.171 126.856C139.385 130.587 136.078 146.047 136.078 146.047C136.548 148.826 114.545 145.501 114.488 142.971C113.713 140.288 117.237 135.976 119.225 133.813C119.474 133.541 119.698 133.25 119.892 132.942C120.384 132.171 120.694 131.3 120.793 130.39C121.183 126.802 119.73 118.53 120.123 116.931C120.276 116.306 123.191 119.882 123.538 119.523C123.921 119.132 124.161 118.732 124.189 118.281C124.209 117.939 124.198 117.59 124.162 117.24C124.146 117.074 124.123 116.91 124.098 116.744C123.823 115.007 120.401 115.749 120.401 115.749C121.655 112.82 128.334 113.053 128.333 113.133C128.333 113.213 128.33 113.314 128.327 113.611C128.316 114.804 128.327 117.865 128.721 118.445C129.214 119.167 138.229 122.328 138.706 121.35C139.175 120.387 137.89 115.874 137.844 115.704C137.842 115.701 137.842 115.698 137.842 115.698C138.829 116.086 140.03 116.806 140.03 116.806C141.162 119.007 142.755 122.829 141.349 126.45L141.346 126.448Z" fill="#2B478B"/>
<path d="M135.273 94.202C135.262 93.9053 135.025 90.7088 130.006 90.5415C130.006 90.5415 132.474 90.8266 132.901 91.8795C132.901 91.8795 131.22 90.5793 129.852 90.9967C128.483 91.4156 127.679 93.741 127.672 94.506C127.664 95.271 128.424 97.7375 129.292 97.9469C129.621 98.0269 130 98.0051 130.345 97.9469C130.114 98.2974 129.888 98.6828 129.67 99.1147C127.667 103.102 129.733 107 131.429 106.57C132.516 106.293 132.824 108.094 132.824 108.094L143.388 99.7968C143.388 99.7968 139.508 92.0089 135.274 94.2006L135.273 94.202Z" fill="#BC3F3F"/>
<path d="M138.485 109.606C138.485 109.606 137.944 111.212 137.545 112.751C134.571 111.945 133.667 108.913 133.396 107.287L138.485 109.608V109.606Z" fill="#ED985F"/>
<path d="M139.112 111.306C139.112 111.306 131.995 109.708 133.088 105.425C134.183 101.141 134 98.0503 138.59 98.888C143.181 99.7271 143.643 101.573 143.637 103.09C143.631 104.605 140.991 111.612 139.112 111.306Z" fill="#FFB27D"/>
<path d="M144.037 100.656C143.272 99.1032 142.371 99.1861 141.808 99.4625C138.463 96.4607 135.184 98.9127 135.184 98.9127C133.922 101.871 131.186 103.081 131.186 103.081C131.186 103.081 132.279 104.167 135.448 104.142C136.417 104.135 137.39 103.705 138.274 103.11C136.566 104.779 134.564 105.795 134.564 105.795C138.53 105.059 141.19 100.603 141.463 100.13C141.799 100.611 142.442 101.637 142.496 102.502C142.569 103.679 142.152 105.962 142.847 106.048C142.847 106.048 145.185 102.985 144.037 100.656Z" fill="#BC3F3F"/>
<path d="M121.708 215.341H110.407C110.407 215.341 110.136 213.67 110.726 212.403C111.292 211.187 112.178 210.633 111.966 209.162C112.684 209.879 113.855 210.683 115.489 210.469C115.689 210.783 116.782 212.469 117.45 212.934C118.189 213.449 121.482 213.266 121.709 215.341H121.708Z" fill="#233862"/>
<path d="M145.974 215.341H134.673C134.673 215.341 134.25 213.593 134.992 212.403C135.649 211.351 135.397 210.751 134.911 209.88C135.423 210.084 136.085 210.269 136.815 210.228C137.379 210.196 137.974 209.949 138.496 209.655C138.982 210.193 141.066 212.482 141.716 212.936C142.455 213.451 145.748 213.267 145.975 215.343L145.974 215.341Z" fill="#233862"/>
<path d="M161.347 119.847H178.547L177.592 113.375L162.233 113.973L161.347 119.847Z" fill="#F99746"/>
<path d="M164.366 107.471C163.564 108.246 163.584 110.73 161.891 111.9C160.071 113.158 159.341 114.449 158.696 115.095C158.458 115.359 158.311 115.505 158.311 115.505L156.368 113.312C156.368 113.312 156.399 113.291 156.458 113.229C156.893 112.769 157.995 111.636 158.729 110.332C160.339 107.471 162.59 107.048 162.59 107.048C162.59 107.048 163.735 107.003 164.366 107.47V107.471Z" fill="#FFB27D"/>
<path d="M157.558 111.59L160.425 114.702C160.425 114.702 152.764 121.172 151.164 122.516C150.026 123.454 148.954 124.219 148.08 124.658C147.993 124.705 147.915 124.737 147.813 124.773C145.565 125.729 140.707 125.623 135.854 124.926C135.184 124.831 134.522 124.722 133.874 124.622C131.481 124.216 129.204 123.685 127.328 123.078C126.204 122.724 125.209 122.35 124.444 121.953C124.171 121.818 123.915 121.69 123.688 121.543C119.892 119.338 120.077 117.289 120.149 116.553C120.221 115.818 120.766 114.846 122.035 114.448C125.047 113.499 135.15 117.278 136.638 117.55C137.532 117.733 139.856 118.531 140.638 118.671C142.135 118.93 143.371 119.099 144.217 119.101C144.764 119.107 145.731 118.779 146.899 118.277C148.936 117.411 157.561 111.591 157.561 111.591L157.558 111.59Z" fill="#253D78"/>
<path d="M158.684 120.976C158.446 120.595 158.422 119.978 158.422 119.978C158.752 119.155 159.486 118.227 159.759 118.046C160.032 117.864 160.39 117.416 160.476 117.714C160.561 118.012 160.152 119.568 159.674 120.181C159.195 120.793 158.684 120.975 158.684 120.975V120.976Z" fill="#FFB27D"/>
<path d="M329.098 83.6389C331.509 87.7095 334.542 89.2816 334.542 89.2816H347.159C347.159 89.2816 327.257 80.5324 329.097 83.6389H329.098Z" fill="#ED7D2B"/>
<path d="M338.039 115.35C338.368 115.715 338.652 115.696 338.489 116.133C338.489 116.134 338.416 116.349 338.414 116.351C338.113 117.158 337.545 117.724 336.39 118.623C336.243 118.737 336.092 118.835 335.978 118.931C335.948 118.957 335.744 118.996 335.716 119.021C335.692 119.041 335.513 119.401 335.491 119.419C334.414 120.382 334.633 120.103 332.699 122.058C330.492 124.284 330.558 124.054 330.125 123.851C329.759 123.678 329.608 123.263 330.431 121.935C330.471 121.871 330.51 121.806 330.551 121.742C330.66 121.566 330.77 121.386 330.878 121.21C331.842 119.613 331.594 118.862 331.366 116.485C331.18 114.553 328.268 105.692 328.268 105.692L332.495 104.985C332.495 104.985 333.768 112.042 335.171 113.128C335.921 113.707 336.761 113.714 337.482 114.143C337.533 114.172 337.582 114.204 337.632 114.235C338.041 114.498 337.709 114.981 338.039 115.347V115.35Z" fill="#FFB27D"/>
<path d="M338.789 115.138C339.117 115.503 339.159 115.912 338.997 116.348C338.997 116.35 338.997 116.353 338.994 116.354C338.625 117.16 337.657 118.056 336.54 118.953C336.395 119.071 336.266 119.178 336.15 119.279C336.12 119.305 336.09 119.33 336.062 119.356C336.038 119.376 336.017 119.397 335.994 119.415C334.918 120.378 335.323 120.599 333.387 122.554C331.18 124.78 329.662 124.821 329.23 124.618C328.864 124.445 329.608 123.264 330.429 121.936C330.86 121.783 332.854 120.996 334.362 119.125C335.69 117.48 336.576 115.368 337.48 114.144C337.531 114.173 337.581 114.205 337.63 114.235C338.039 114.498 338.458 114.77 338.787 115.137L338.789 115.138Z" fill="#BC3F3F"/>
<path d="M303.913 112.333C303.652 113.598 302.805 113.243 300.727 112.752C298.649 112.259 299.131 112.741 296.173 112.424C293.215 112.107 292.946 111.651 292.856 111.225C292.776 110.847 293.393 110.591 294.961 110.415C295.158 110.393 295.357 110.37 295.555 110.346C297.326 110.131 298.621 109.023 300.228 108.112C301.751 107.25 304.024 103.739 304.024 103.739L308.081 104.05C308.081 104.05 305.952 107.187 305.129 108.55C304.645 109.351 304.67 110.413 304.73 111.232C304.762 111.677 304.006 111.886 303.913 112.333Z" fill="#FFB27D"/>
<path d="M300.499 113.14C298.421 112.647 298.915 113.233 295.957 112.916C292.999 112.599 292.102 111.529 292.012 111.102C291.931 110.724 293.393 110.591 294.961 110.415L294.976 110.444C294.976 110.444 296.75 111.664 299.212 111.721C301.217 111.769 303.343 111.21 304.73 111.232C304.762 111.677 304.792 112.132 304.699 112.579C304.438 113.844 302.577 113.633 300.499 113.141V113.14Z" fill="#BC3F3F"/>
<path d="M320.244 87.4174L324.035 97.3155L328.986 110.24C328.986 110.24 330.329 110.367 331.615 110.007C332.8 109.676 334.159 108.806 334.159 108.806C334.159 108.806 332.785 94.9289 330.221 86.9636C329.564 84.9188 328.827 83.2653 328.014 82.3345C324.038 77.7767 320.244 87.4188 320.244 87.4188V87.4174Z" fill="#ED7D2B"/>
<path d="M324.1 71.6976C326.584 70.921 333.669 71.9187 340.787 73.2697L342.278 70.8846L357.65 69.7197C357.65 69.7197 362.715 80.63 359.946 87.5861C359.271 89.2803 357.07 89.2789 357.069 89.2803C357.069 89.2803 347.968 89.2803 344.997 89.2803C337.351 89.2803 328.816 84.1815 327.713 83.9677C325.906 83.6172 325.182 87.1236 323.376 90.8045C321.569 94.4853 306.388 107.109 306.388 107.109C306.388 107.109 304.055 107.131 303.091 106.78C302.056 106.403 301.676 105.913 301.676 105.913C301.676 105.913 318.497 73.4486 324.1 71.6961V71.6976Z" fill="#F99746"/>
<path d="M342.367 50.3467C347.843 53.2714 358.947 59.333 359.006 59.2937C359.006 59.2937 363.088 60.7859 365.404 59.2937C369.265 56.8068 371.333 50.1155 364.275 44.3564C360.755 41.4841 358.254 40.7846 357.874 36.1991C357.667 33.7108 354.162 25.4997 348.336 26.2588C347.849 26.3228 347.358 26.3679 346.868 26.3519C346.187 26.3301 345.065 26.4275 343.912 27.0922C340.615 28.9959 334.162 49.2153 342.369 50.3467H342.367Z" fill="#233862"/>
<path d="M346.955 47.8585C346.931 47.8731 349.649 48.7733 351.466 47.9923C353.175 47.2593 354.471 44.531 354.445 44.5296C353.667 44.4947 352.814 43.8359 352.156 39.5078L351.824 39.6227L346.256 41.5657C346.256 41.5657 346.66 43.2992 346.921 44.9484C347.141 46.3344 347.258 47.6607 346.954 47.8571L346.955 47.8585Z" fill="#FFB27D"/>
<path d="M346.258 41.567C346.258 41.567 346.661 43.3005 346.922 44.9497C350.12 44.3913 351.375 41.3009 351.826 39.624L346.258 41.567Z" fill="#ED975D"/>
<path d="M345.429 43.2876C345.429 43.2876 353.046 42.2957 352.337 37.703C351.628 33.1102 352.133 29.8889 347.238 30.3281C342.345 30.7673 341.673 32.6565 341.525 34.2461C341.378 35.8342 343.429 43.4272 345.429 43.2876Z" fill="#FFB27D"/>
<path d="M341.802 31.7286C341.802 31.7286 346.679 35.8051 349.995 36.1338C353.312 36.4624 354.568 35.4299 354.568 35.4299C354.568 35.4299 352.613 33.8548 351.436 31.3141C351.09 30.5652 350.357 30.0503 349.513 29.9805C347.144 29.7827 342.654 29.6911 341.801 31.7286H341.802Z" fill="#233862"/>
<path d="M344.85 31.3634C344.85 31.3634 343.219 32.8934 342.705 34.0292C342.209 35.1243 342.06 37.7435 342.456 38.7848C342.456 38.7848 339.915 33.9899 341.353 31.6615C342.879 29.1921 344.85 31.3649 344.85 31.3649V31.3634Z" fill="#233862"/>
<path d="M340.541 58.7441C340.772 73.7033 340.604 70.5765 342.291 71.9959C342.697 72.3377 343.84 72.5413 345.343 72.6373C350.072 72.9412 358.383 72.1864 358.7 71.3385C359.79 68.4052 359.021 67.4948 359.931 63.0038C360.025 62.5268 360.144 62.0091 360.281 61.4463C361.04 58.3617 361.779 57.3131 359.087 52.3582C356.646 47.8702 354.109 44.2271 353.881 44.3595C347.441 48.068 346.922 44.9514 346.922 44.9514C346.922 44.9514 340.428 51.4478 340.541 58.7441Z" fill="#BC3F3F"/>
<path d="M324.035 97.3152L328.986 110.24C328.986 110.24 330.329 110.366 331.615 110.007C332.8 109.676 334.159 108.806 334.159 108.806C334.159 108.806 332.785 94.9287 330.221 86.9634L324.035 97.3167V97.3152Z" fill="#F99746"/>
<path d="M346.922 44.9497C346.922 44.9497 340.296 46.039 339.517 48.808C338.739 51.5756 334.161 67.8465 334.161 67.8465C334.161 67.8465 337.53 68.4341 339.086 66.9245C340.642 65.4149 344.501 52.9179 344.501 52.9179L346.922 44.9512V44.9497Z" fill="#BC3F3F"/>
<path d="M345.343 72.6386C350.072 72.9426 358.383 72.1878 358.7 71.3399C359.79 68.4066 359.021 67.4961 359.931 63.0052L357.65 56.7749C357.65 56.7749 358.028 63.712 355.919 65.5372C353.812 67.3624 347.283 69.0595 346.259 70.5837C345.765 71.3152 345.439 72.0496 345.345 72.6386H345.343Z" fill="#992525"/>
<path d="M350.761 69.7199C350.761 69.7199 346.096 68.7121 345.343 69.1135C344.591 69.5149 342.751 70.9779 342.52 71.4869C342.289 71.996 344.196 71.1001 344.816 70.9387C345.217 70.834 346.274 71.1903 346.798 71.359C349 72.0701 350.348 71.7051 350.348 71.7051L350.76 69.7185L350.761 69.7199Z" fill="#FFB27D"/>
<path d="M353.886 44.3564C353.886 44.3564 360.149 44.7302 362.317 47.665C365.37 51.7953 371.425 69.394 367.954 71.7413C364.046 74.3852 350.168 72.4321 350.168 72.4321C350.168 72.4321 349.706 70.3379 350.349 69.3257C350.992 68.3135 361.434 66.6759 361.916 66.2091C362.397 65.7422 355.892 57.0919 355.892 55.69C355.892 54.288 353.886 44.3564 353.886 44.3564Z" fill="#BC3F3F"/>
<path d="M345.119 70.374C345.119 70.374 344.141 71.5971 343.82 71.7425C343.499 71.888 343.293 71.8516 343.293 71.8516L343.951 70.7012L345.117 70.3726L345.119 70.374Z" fill="#FFB27D"/>
<path d="M345.343 69.1147L342.501 70.4542C342.501 70.4542 342.622 70.6461 342.972 70.6301C343.321 70.6142 344.204 70.3015 344.204 70.3015L345.342 69.1147H345.343Z" fill="#FFB27D"/>
<path d="M343.82 73.6159H321.341L314.578 57.3042H337.023L343.82 73.6159Z" fill="#163560"/>
<path d="M321.077 72.9805H350.761V73.616H321.341L321.077 72.9805Z" fill="#11294A"/>
<path d="M327.016 65.4603C326.846 64.8873 327.188 64.4219 327.779 64.4219C328.369 64.4219 328.987 64.8873 329.157 65.4603C329.326 66.0333 328.984 66.4986 328.393 66.4986C327.803 66.4986 327.185 66.0333 327.016 65.4603Z" fill="white"/>
<path d="M433.427 216H2.65059C2.33576 216 2.0779 215.75 2.0779 215.444C2.0779 215.139 2.33576 214.889 2.65059 214.889H433.427C433.742 214.889 434 215.139 434 215.444C434 215.75 433.742 216 433.427 216Z" fill="#2E3552"/>
</g>
<defs>
<clipPath id="clip0_85_78">
<rect width="434" height="216" fill="white"/>
</clipPath>
</defs>
</svg>
