<svg width="1000" height="478" viewBox="0 0 1000 478" fill="none" xmlns="http://www.w3.org/2000/svg">
<path d="M1007.11 106.863C1007.11 106.863 943.433 82.0426 909.817 100.243C876.202 118.443 862.058 144.913 862.058 144.913C862.058 144.913 830.219 141.603 817.838 151.534C805.457 161.464 794.84 187.934 794.84 187.934C794.84 187.934 776.687 167.706 740.002 171.395C707.575 174.656 678.086 234.265 678.086 234.265C678.086 234.265 646.246 230.955 630.327 235.914C614.407 240.874 587.87 270.654 587.87 270.654C587.87 270.654 555.625 256.631 537.929 273.182C520.233 289.734 525.954 305.405 525.954 305.405C525.954 305.405 501.192 307.054 492.338 315.336C492.338 315.336 462.261 267.356 437.5 267.356C412.739 267.356 398.582 278.936 398.582 278.936C398.582 278.936 393.28 247.494 368.506 237.576C343.732 227.657 308.366 242.535 308.366 242.535C308.366 242.535 288.907 148.223 255.304 131.684C221.689 115.145 193.388 121.753 193.388 121.753C193.388 121.753 177.469 75.4221 133.248 50.6135C89.0283 25.7927 32.4145 52.2625 32.4145 52.2625C32.4145 52.2625 30.6515 5.93118 -29.5015 0.971903C-89.6153 -3.98737 -225.828 121.753 -227.591 139.954C-229.354 158.154 -262.97 280.585 -239.972 316.985C-216.974 353.386 -110.837 500.637 -75.4586 507.258C-40.0799 513.878 522.427 522.148 522.427 522.148L962.892 494.017L1109.71 434.456L1138.01 255.776L1007.11 106.876V106.863Z" fill="url(#paint0_linear_65_11)"/>
<g style="mix-blend-mode:multiply" opacity="0.48">
<path d="M1007.11 164.372C1007.11 164.372 943.433 139.551 909.817 157.751C876.202 175.951 862.058 202.421 862.058 202.421C862.058 202.421 830.219 199.111 817.838 209.042C805.457 218.973 794.84 245.442 794.84 245.442C794.84 245.442 776.687 225.214 740.002 228.903C707.575 232.165 678.086 291.774 678.086 291.774C678.086 291.774 646.246 288.463 630.327 293.423C614.407 298.382 587.87 328.162 587.87 328.162C587.87 328.162 550.728 318.231 533.032 334.783C515.336 351.334 525.954 362.914 525.954 362.914C525.954 362.914 501.192 364.563 492.338 372.844C492.338 372.844 462.261 324.864 437.5 324.864C412.739 324.864 398.582 336.444 398.582 336.444C398.582 336.444 393.28 305.003 368.506 295.084C343.732 285.165 308.366 300.043 308.366 300.043C308.366 300.043 288.907 205.732 255.304 189.192C221.702 172.653 193.388 179.262 193.388 179.262C193.388 179.262 177.469 132.93 133.248 108.122C89.0283 83.3132 32.4145 109.771 32.4145 109.771C32.4145 109.771 30.6515 63.4395 -29.5015 58.4802C-89.6545 53.5209 -225.828 179.262 -227.591 197.462C-229.354 215.662 -262.97 338.093 -239.972 374.493C-216.974 410.894 -110.837 558.145 -75.4586 564.766C-40.0799 571.386 522.427 579.656 522.427 579.656L962.892 551.525L1109.71 491.965L1138.01 313.284L1007.11 164.384V164.372Z" fill="#9E8AAF"/>
</g>
<defs>
<linearGradient id="paint0_linear_65_11" x1="-247.99" y1="62.8773" x2="-246.848" y2="714.973" gradientUnits="userSpaceOnUse">
<stop stop-color="#E0BDC4"/>
<stop offset="0.79" stop-color="#E0BDC4"/>
<stop offset="1" stop-color="#DCBEC5"/>
</linearGradient>
</defs>
</svg>
