<svg width="645" height="317" viewBox="0 0 645 317" fill="none" xmlns="http://www.w3.org/2000/svg">
<g clip-path="url(#clip0_85_78)">
<path d="M41.8343 316.232C41.8343 316.232 -33.3007 239.716 17.8157 150.589C57.2504 81.8314 152.647 94.0826 201.596 123.167C222.444 135.555 267.237 112.837 324.044 43.857C389.991 -36.2216 645.312 12.6379 601.218 165.641C579.88 239.684 666.16 242.375 622.198 316.388L41.8343 316.232Z" fill="#EBF3FA"/>
<path d="M576.623 315.619H386.009C366.928 315.619 351.461 300.802 351.461 282.524V124.437C351.461 107.652 354.896 91.3609 361.674 76.0106C368.216 61.1961 377.576 47.8948 389.494 36.4761C401.412 25.0573 415.297 16.093 430.764 9.82657C444.572 4.23244 441.27 0.843095 456.238 0.0597885C458.64 -0.0661382 478.893 0.0427137 481.317 0.0427137C498.839 0.0427137 515.848 3.33388 531.87 9.82657C547.335 16.093 561.22 25.0594 573.14 36.4761C585.06 47.8948 594.421 61.194 600.96 76.0106C607.738 91.3587 611.173 107.652 611.173 124.437V282.524C611.173 300.802 595.706 315.619 576.625 315.619H576.623ZM392.038 131.03H570.589V124.437C570.589 77.2806 530.54 38.9178 481.315 38.9178C432.09 38.9178 392.04 77.2827 392.04 124.437V131.03H392.038Z" fill="#4F75BA"/>
<path d="M553.627 315.619H363.013C343.932 315.619 328.465 300.803 328.465 282.524V124.437C328.465 107.652 331.9 91.3609 338.678 76.0107C345.22 61.1962 354.58 47.8949 366.498 36.4761C378.418 25.0574 392.301 16.0931 407.768 9.82665C423.79 3.33609 440.797 0.0449219 458.319 0.0449219C475.84 0.0449219 492.849 3.33609 508.871 9.82878C524.337 16.0952 538.222 25.0616 550.142 36.4783C562.062 47.897 571.422 61.1962 577.962 76.0128C584.74 91.3609 588.175 107.655 588.175 124.439V282.526C588.175 300.805 572.708 315.621 553.627 315.621V315.619ZM369.044 131.03H547.595V124.437C547.595 77.2806 507.546 38.9178 458.321 38.9178C409.096 38.9178 369.047 77.2828 369.047 124.437V131.03H369.044Z" fill="#739AF0"/>
<path d="M474.388 192.984C474.388 189.142 472.915 185.633 470.486 182.937C468.258 179.77 463.648 177.593 458.319 177.593C452.989 177.593 448.379 179.77 446.151 182.937C443.723 185.633 442.25 189.144 442.25 192.984C442.25 199.884 446.989 205.721 453.52 207.676V230.988C453.52 232.868 455.667 234.392 458.317 234.392C460.966 234.392 463.114 232.868 463.114 230.988V207.676C469.644 205.721 474.383 199.882 474.383 192.984H474.388Z" fill="#4F75BA"/>
<path d="M244.76 173.292C244.455 175.268 242.1 177.557 239.587 179.273C236.882 181.119 235.797 183.014 234.839 183.962C234.485 184.35 234.266 184.564 234.266 184.564L231.379 181.345C231.379 181.345 231.425 181.315 231.512 181.223C232.158 180.549 233.796 178.886 234.888 176.972C237.281 172.773 240.625 172.152 240.625 172.152C240.625 172.152 243.822 172.607 244.76 173.292Z" fill="#FFB27D"/>
<path d="M95.5865 213.657L97.5383 215.174C97.5383 215.174 102.877 213.341 104.082 219.417C104.082 219.417 104.403 222.006 102.69 222.013C100.976 222.017 101.685 221.729 99.2584 221.797C96.8342 221.865 94.8223 220.64 94.468 218.756L93.3072 217.159L95.5865 213.657Z" fill="#EA8E50"/>
<path d="M95.3659 216.916C96.9234 215.358 96.7986 214.207 96.7986 214.207C96.7986 214.207 78.769 200.067 76.942 198.915C75.6965 198.129 63.1324 186.602 56.212 179.979C52.8833 176.792 49.3206 177.891 44.958 179.091L41.3642 180.079C37.0261 181.272 35.8965 187.084 39.4569 189.908C49.4833 197.863 66.1604 206.81 69.2819 208.69C77.0289 213.358 92.1932 218.905 92.1932 218.905C92.1932 218.905 94.0336 218.25 95.3704 216.914L95.3659 216.916Z" fill="#992525"/>
<path d="M115.94 303.788C115.94 303.788 120.316 306.928 127.02 305.269C127.02 305.269 132.425 304.089 133.611 306.672C133.611 306.672 125.32 310.706 123.224 311.809C121.642 312.641 119.993 313.954 118.825 314.968C117.903 315.77 116.464 315.661 115.677 314.735C115.312 314.306 114.895 313.794 114.438 313.201C113.159 311.542 110.183 306.181 110.183 306.181L115.942 303.788H115.94Z" fill="#233862"/>
<path d="M118.509 302.192C118.509 302.192 115.844 308.076 109.695 306.994C109.695 306.994 97.1462 297.067 88.5369 286.754C85.7407 283.405 83.3611 280.014 81.9619 276.913C76.2535 264.252 60.8464 245.369 51.0518 235.799L75.5606 227.306C75.5606 227.306 83.4101 242.432 93.8553 261.014C101.382 274.403 110.256 289.584 118.509 302.192Z" fill="#2B478B"/>
<path d="M93.8553 261.014L88.5369 286.754C85.7407 283.405 83.3611 280.014 81.9619 276.913C76.2535 264.252 60.8464 245.369 51.0518 235.799L75.5606 227.306C75.5606 227.306 83.4101 242.432 93.8553 261.014Z" fill="#233862"/>
<path d="M73.8227 307.203C73.8227 307.203 73.5553 311.899 79.4976 312.526C79.4976 312.526 82.8932 312.544 82.9021 315.532L65.6301 315.585C65.6301 315.585 65.1288 314.379 65.0062 311.797C64.9126 309.814 67.0115 304.629 67.0115 304.629L73.8182 307.203H73.8227Z" fill="#233862"/>
<path d="M67.5217 227.306C67.5217 227.306 78.4393 238.8 85.3708 259.503C89.1407 270.768 78.4593 299.091 76.3761 308.932C76.3761 308.932 69.2106 309.515 64.3111 307.701C64.3111 307.701 63.939 287.375 66.8043 271.709C68.4085 262.941 52.4288 252.959 45.446 237.118C40.6957 226.341 46.4754 226.523 53.5762 226.265L67.5217 227.306Z" fill="#2B478B"/>
<path d="M54.9175 176.032C48.8438 179.319 36.4067 176.288 36.4067 176.288C36.4067 176.288 41.4577 170.758 39.1628 161.85L43.9331 164.17L49.0555 166.663C49.0555 166.663 49.3874 168.236 49.6169 171.061C49.6749 171.789 49.7283 172.602 49.764 173.49C52.8833 174.395 54.9175 176.032 54.9175 176.032Z" fill="#FFB07B"/>
<path d="M77.1915 226.713C77.1915 227.735 75.9617 228.226 75.701 228.275C73.2501 228.704 66.4099 231.253 60.2471 231.837C55.0579 232.358 50.2408 231.863 44.9469 230.845C44.2451 230.71 42.6007 230.286 42.4826 229.641C42.3378 228.939 22.0668 190.057 37.8237 173.356C38.1936 172.963 41.304 173.67 44.1492 174.317C46.7761 174.914 49.1869 174.581 51.337 173.753L54.004 175.098C57.2793 176.846 63.4778 183.059 64.2041 187.934C64.5717 190.414 66.0534 192.249 66.4812 194.429C66.6394 195.235 66.802 196.023 66.9669 196.791C67.29 198.298 67.622 199.73 67.9651 201.094C68.892 204.78 69.8701 207.956 70.8304 210.697C71.8531 213.608 72.8557 216.03 73.7514 218.056C74.9122 220.683 75.8948 222.647 76.5075 224.149C76.9398 225.208 77.1893 226.038 77.1893 226.711L77.1915 226.713Z" fill="#BC3F3F"/>
<path d="M76.512 224.152C47.8991 211.239 37.9886 186.442 37.9886 186.442C37.9886 186.442 61.2363 194.657 66.9714 196.796C67.2945 198.302 67.6264 199.735 67.9696 201.098C68.8964 204.784 69.8746 207.96 70.8349 210.701C71.8576 213.612 72.8602 216.035 73.7559 218.06C74.9167 220.688 75.8993 222.651 76.512 224.154V224.152Z" fill="#992525"/>
<path d="M112.81 217.78H97.0125C81.8594 217.78 69.5337 205.971 69.5337 191.457V142.154C69.5337 127.638 81.8616 115.831 97.0125 115.831H112.81C127.963 115.831 140.288 127.64 140.288 142.154V191.457C140.288 205.973 127.96 217.78 112.81 217.78ZM97.0125 131.378C90.8095 131.378 85.7652 136.212 85.7652 142.152V191.455C85.7652 197.397 90.8118 202.23 97.0125 202.23H112.81C119.012 202.23 124.057 197.395 124.057 191.455V142.152C124.057 136.21 119.01 131.378 112.81 131.378H97.0125Z" fill="#F99746"/>
<path d="M278.471 175.887H133.613V157.724H278.471C283.707 157.724 287.952 161.79 287.952 166.806C287.952 171.822 283.707 175.887 278.471 175.887Z" fill="#F99746"/>
<path d="M260.294 172.229H275.51V207.821C275.51 211.845 272.101 215.11 267.901 215.11C263.701 215.11 260.292 211.845 260.292 207.821V172.229H260.294Z" fill="#F99746"/>
<path d="M93.2515 216.666L95.7247 217.535C95.7247 217.535 100.675 214.182 103.759 219.635C103.759 219.635 104.873 222.017 103.108 222.536C101.344 223.054 101.986 222.566 99.5035 223.358C97.0236 224.149 94.5794 223.58 93.6414 221.881L91.9614 220.7L93.2515 216.666Z" fill="#FFB07B"/>
<path d="M95.288 220.017C96.2015 217.731 96.6203 216.698 96.6203 216.698C96.6203 216.698 77.938 202.11 76.033 200.859C74.7362 200.005 61.8201 190.759 55.5258 183.552C52.402 179.977 47.478 178.342 42.7144 179.3L38.793 180.088C34.0561 181.04 32.5187 186.781 36.1928 189.799C46.54 198.296 63.9902 208.15 67.2432 210.201C75.32 215.29 93.1869 222.42 93.1869 222.42C93.1869 222.42 94.5727 221.814 95.2902 220.019L95.288 220.017Z" fill="#BC3F3F"/>
<path d="M49.6169 171.062C43.6435 171.384 39.7577 166.659 39.7577 166.659C39.7577 166.659 42.4581 165.224 43.9309 164.17L49.0532 166.663C49.0532 166.663 49.3852 168.236 49.6147 171.062H49.6169Z" fill="#EA8E50"/>
<path d="M52.1614 165.186C52.1614 165.186 43.111 171.407 39.1517 165.948C35.1924 160.488 31.3601 157.615 36.9704 153.413C42.5829 149.21 45.2276 150.538 47.0101 152.051C48.7948 153.566 54.4117 163.425 52.1592 165.186H52.1614Z" fill="#FFB07B"/>
<path d="M47.9682 147.123C47.6429 145.025 46.9143 143.548 46.9143 143.548C46.9143 143.548 46.3461 145.802 42.0459 145.49C37.7458 145.178 30.9301 145.896 28.6597 150.589C28.5149 150.888 28.3856 151.195 28.272 151.509C27.8598 150.467 27.7618 148.909 27.7618 148.909C26.9441 150.931 27.7618 153.458 27.7618 153.458C27.7484 153.53 27.7395 153.605 27.7284 153.68C26.7792 154.448 25.9816 156.836 25.9816 156.836C26.269 156.17 26.9664 155.735 27.588 155.468C27.5679 159.12 29.1142 162.691 31.828 163.754C35.7962 165.308 35.765 164.123 39.7555 166.659C39.7555 166.659 40.8272 165.387 40.0964 164.531C39.3656 163.675 36.6072 162.433 38.1491 161.188C39.6909 159.944 40.259 161.344 40.8272 160.488C41.3954 159.632 38.5546 157.146 42.2064 154.815C45.8582 152.484 48.2912 149.219 47.9659 147.121L47.9682 147.123Z" fill="#233862"/>
<path d="M206.507 310.669L203.171 311.858C203.171 311.858 188.686 292.615 186.904 275.683C186.585 272.661 186.692 269.73 187.381 267.026C187.381 267.026 187.238 266.251 186.991 264.883C186.877 264.245 186.735 263.474 186.574 262.593C186.104 260.008 185.456 256.472 184.714 252.444C183.009 243.177 180.801 231.331 179.086 222.623L179.984 222.348L189.707 219.342L191.717 213.23L198.956 211.405C198.956 211.405 200.573 214.436 202.019 228.751C202.287 230.629 202.527 232.699 202.71 234.945C203.274 241.798 203.314 250.301 202.021 260.021C201.69 262.51 201.271 265.077 200.749 267.717C200.368 269.653 200.31 272.289 200.471 275.318C201.199 289.159 206.504 310.669 206.504 310.669H206.507Z" fill="#BC3F3F"/>
<path d="M202.71 234.945L186.989 264.883C186.875 264.245 186.732 263.474 186.572 262.593C186.102 260.008 185.454 256.472 184.712 252.444C183.007 243.177 180.799 231.331 179.083 222.623L179.981 222.348L189.705 219.342L191.714 213.23L198.953 211.405C198.953 211.405 200.571 214.436 202.017 228.751C202.284 230.629 202.525 232.699 202.708 234.945H202.71Z" fill="#992525"/>
<path d="M195.794 215.247L195.431 212.257C189.335 213.808 173.043 207.922 173.043 207.922C173.043 207.922 167.137 212.895 167.912 224.817C168.291 230.636 168.981 255.362 169.703 262.681C169.964 265.334 170.194 267.221 170.287 267.974C170.287 267.978 170.287 267.98 170.287 267.98C170.316 268.211 170.231 268.429 170.109 268.629C169.046 270.358 168.166 272.157 167.444 273.999C160.357 292.092 168.536 314.373 168.536 314.373L170.659 313.553C170.659 313.553 175.314 288.756 179.095 277.803C179.736 275.944 180.351 274.484 180.917 273.613C182.562 271.071 184.088 266.917 185.474 261.976C188.092 252.637 190.199 240.484 191.601 231.105C191.795 231.114 195.794 215.249 195.794 215.249V215.247Z" fill="#BC3F3F"/>
<path d="M232.992 178.152C234.832 178.854 236.635 180.239 238.419 181.964C238.419 181.964 228.021 199.335 222.036 201.862C218.75 203.249 208.47 192.727 206.346 186.832C205.827 185.391 207.743 180.57 207.117 179.556C206.286 178.222 205.885 176.912 205.718 175.787C205.678 175.616 205.64 175.445 205.653 175.257C205.455 173.467 205.84 172.246 205.84 172.246C206.079 171.659 206.752 171.407 207.75 171.424H208.104C213.489 174.459 220.564 189.368 221.731 189.716C224.775 186.023 232.992 178.152 232.992 178.152Z" fill="#2C3A64"/>
<path d="M207.442 178.986C205.528 179.836 203.218 180.416 200.422 180.561C189.939 181.112 187.559 172.31 187.127 166.468C188.637 165.943 189.961 165.994 190.723 166.033C191.467 166.071 192.242 166.146 192.882 166.221C194.165 165.578 196.467 162.462 197.799 157.25L198.252 157.451L205.816 160.857C205.816 160.857 205.012 163.216 204.419 165.472C203.955 167.237 203.623 168.942 203.902 169.42C204.499 169.653 204.856 169.798 204.856 169.798C204.856 169.798 204.856 169.8 204.858 169.806C204.934 169.992 206.578 174.005 207.445 178.988L207.442 178.986Z" fill="#FFB27D"/>
<path d="M210.065 185.575C209.987 185.775 209.898 185.972 209.804 186.172C207.151 191.649 202.235 214.337 202.235 214.337C202.935 218.416 170.234 213.537 170.149 209.823C168.997 205.885 174.235 199.557 177.19 196.383C177.56 195.984 177.891 195.557 178.181 195.105C178.912 193.973 179.373 192.695 179.52 191.359C180.099 186.093 177.941 173.953 178.524 171.608C178.752 170.69 183.083 175.938 183.6 175.411C184.168 174.837 184.524 174.25 184.567 173.588C184.596 173.087 184.58 172.574 184.527 172.06C184.502 171.817 184.469 171.576 184.431 171.332C184.023 168.784 178.936 169.872 178.936 169.872C180.801 165.574 190.727 165.915 190.725 166.033C190.725 166.15 190.721 166.299 190.716 166.735C190.701 168.485 190.716 172.978 191.302 173.829C192.035 174.888 205.433 179.528 206.141 178.092C206.839 176.679 204.929 170.056 204.86 169.806C204.858 169.802 204.858 169.798 204.858 169.798C206.324 170.368 208.109 171.424 208.109 171.424C209.791 174.653 212.159 180.262 210.069 185.577L210.065 185.575Z" fill="#2B478B"/>
<path d="M201.039 138.25C201.023 137.815 200.671 133.123 193.212 132.878C193.212 132.878 196.879 133.296 197.514 134.842C197.514 134.842 195.016 132.933 192.982 133.546C190.948 134.161 189.754 137.574 189.743 138.696C189.731 139.819 190.861 143.439 192.151 143.746C192.639 143.863 193.203 143.831 193.715 143.746C193.372 144.26 193.036 144.826 192.713 145.46C189.736 151.312 192.806 157.032 195.326 156.401C196.942 155.995 197.4 158.637 197.4 158.637L213.099 146.461C213.099 146.461 207.333 135.031 201.041 138.248L201.039 138.25Z" fill="#BC3F3F"/>
<path d="M205.814 160.857C205.814 160.857 205.009 163.213 204.417 165.471C199.996 164.289 198.653 159.839 198.249 157.453L205.814 160.859V160.857Z" fill="#ED985F"/>
<path d="M206.745 163.352C206.745 163.352 196.168 161.007 197.793 154.721C199.419 148.433 199.147 143.898 205.97 145.127C212.792 146.359 213.478 149.067 213.469 151.293C213.46 153.517 209.537 163.8 206.745 163.352Z" fill="#FFB27D"/>
<path d="M214.064 147.723C212.928 145.443 211.589 145.565 210.751 145.97C205.78 141.565 200.907 145.163 200.907 145.163C199.031 149.505 194.965 151.281 194.965 151.281C194.965 151.281 196.589 152.875 201.3 152.839C202.739 152.828 204.185 152.196 205.5 151.323C202.962 153.773 199.985 155.263 199.985 155.263C205.881 154.183 209.833 147.644 210.239 146.95C210.738 147.656 211.694 149.161 211.774 150.431C211.883 152.158 211.264 155.509 212.295 155.635C212.295 155.635 215.771 151.14 214.064 147.723Z" fill="#BC3F3F"/>
<path d="M180.879 316.033H164.084C164.084 316.033 163.681 313.58 164.559 311.721C165.399 309.937 166.715 309.124 166.401 306.964C167.469 308.016 169.209 309.196 171.637 308.883C171.934 309.344 173.558 311.817 174.552 312.5C175.65 313.256 180.543 312.987 180.882 316.033H180.879Z" fill="#233862"/>
<path d="M216.943 316.033H200.148C200.148 316.033 199.519 313.467 200.622 311.721C201.598 310.176 201.224 309.297 200.502 308.018C201.262 308.317 202.247 308.588 203.332 308.528C204.169 308.481 205.054 308.119 205.829 307.688C206.551 308.477 209.648 311.837 210.615 312.503C211.714 313.258 216.606 312.989 216.945 316.035L216.943 316.033Z" fill="#233862"/>
<path d="M239.79 175.888H265.352L263.933 166.39L241.106 167.267L239.79 175.888Z" fill="#F99746"/>
<path d="M244.277 157.724C243.085 158.862 243.114 162.507 240.598 164.223C237.893 166.069 236.808 167.965 235.85 168.912C235.496 169.301 235.278 169.514 235.278 169.514L232.39 166.295C232.39 166.295 232.437 166.266 232.524 166.174C233.17 165.499 234.808 163.837 235.899 161.922C238.292 157.724 241.637 157.103 241.637 157.103C241.637 157.103 243.339 157.037 244.277 157.722V157.724Z" fill="#FFB27D"/>
<path d="M234.159 163.769L238.419 168.336C238.419 168.336 227.034 177.832 224.656 179.804C222.965 181.181 221.372 182.303 220.073 182.948C219.944 183.016 219.828 183.063 219.677 183.116C216.335 184.519 209.116 184.363 201.903 183.341C200.907 183.202 199.923 183.042 198.96 182.894C195.404 182.299 192.02 181.52 189.232 180.628C187.561 180.109 186.082 179.561 184.946 178.978C184.54 178.779 184.159 178.592 183.823 178.376C178.181 175.14 178.455 172.133 178.562 171.053C178.669 169.973 179.48 168.547 181.365 167.963C185.841 166.571 200.856 172.116 203.069 172.515C204.397 172.784 207.85 173.956 209.013 174.161C211.237 174.541 213.075 174.788 214.332 174.792C215.145 174.801 216.582 174.319 218.318 173.582C221.346 172.312 234.164 163.771 234.164 163.771L234.159 163.769Z" fill="#253D78"/>
<path d="M235.832 177.544C235.478 176.984 235.443 176.079 235.443 176.079C235.933 174.871 237.025 173.51 237.43 173.243C237.836 172.976 238.368 172.319 238.495 172.756C238.622 173.194 238.014 175.478 237.303 176.376C236.592 177.275 235.832 177.541 235.832 177.541V177.544Z" fill="#FFB27D"/>
<path d="M489.097 122.749C492.68 128.723 497.188 131.03 497.188 131.03H515.939C515.939 131.03 486.361 118.19 489.095 122.749H489.097Z" fill="#ED7D2B"/>
<path d="M502.386 169.288C502.874 169.824 503.297 169.796 503.054 170.436C503.054 170.439 502.945 170.754 502.943 170.757C502.495 171.941 501.65 172.771 499.935 174.09C499.716 174.259 499.491 174.402 499.322 174.543C499.277 174.581 498.974 174.639 498.932 174.675C498.896 174.705 498.631 175.232 498.598 175.26C496.998 176.673 497.323 176.263 494.449 179.132C491.169 182.399 491.268 182.062 490.624 181.763C490.08 181.509 489.855 180.901 491.078 178.953C491.138 178.859 491.196 178.763 491.256 178.669C491.419 178.41 491.582 178.146 491.742 177.887C493.175 175.544 492.807 174.443 492.468 170.953C492.192 168.119 487.863 155.114 487.863 155.114L494.146 154.077C494.146 154.077 496.038 164.433 498.123 166.027C499.237 166.876 500.485 166.887 501.557 167.517C501.633 167.559 501.706 167.606 501.78 167.651C502.388 168.037 501.895 168.746 502.386 169.284V169.288Z" fill="#FFB27D"/>
<path d="M503.5 168.977C503.988 169.512 504.05 170.112 503.809 170.752C503.809 170.754 503.809 170.759 503.805 170.761C503.257 171.943 501.817 173.258 500.158 174.575C499.941 174.748 499.75 174.906 499.578 175.053C499.534 175.091 499.489 175.128 499.447 175.166C499.411 175.196 499.38 175.226 499.347 175.254C497.747 176.667 498.348 176.991 495.472 179.86C492.192 183.127 489.935 183.187 489.293 182.888C488.75 182.634 489.855 180.901 491.076 178.952C491.715 178.728 494.679 177.574 496.92 174.827C498.894 172.413 500.211 169.314 501.555 167.517C501.63 167.559 501.704 167.606 501.777 167.651C502.386 168.037 503.007 168.437 503.497 168.974L503.5 168.977Z" fill="#BC3F3F"/>
<path d="M451.668 164.859C451.28 166.716 450.021 166.196 446.933 165.474C443.845 164.751 444.56 165.459 440.164 164.994C435.768 164.529 435.37 163.858 435.236 163.233C435.116 162.678 436.034 162.302 438.364 162.044C438.656 162.012 438.952 161.978 439.246 161.944C441.878 161.628 443.803 160.002 446.191 158.666C448.455 157.4 451.833 152.248 451.833 152.248L457.862 152.704C457.862 152.704 454.698 157.308 453.475 159.308C452.755 160.484 452.793 162.042 452.882 163.244C452.929 163.897 451.806 164.204 451.668 164.859Z" fill="#FFB27D"/>
<path d="M446.595 166.044C443.507 165.32 444.24 166.18 439.844 165.715C435.448 165.25 434.115 163.679 433.982 163.054C433.861 162.499 436.034 162.302 438.364 162.044L438.386 162.087C438.386 162.087 441.022 163.877 444.681 163.961C447.662 164.031 450.821 163.211 452.882 163.243C452.929 163.897 452.974 164.565 452.836 165.22C452.448 167.077 449.683 166.767 446.595 166.046V166.044Z" fill="#BC3F3F"/>
<path d="M475.938 128.294L481.573 142.82L488.93 161.788C488.93 161.788 490.927 161.974 492.838 161.446C494.598 160.96 496.619 159.683 496.619 159.683C496.619 159.683 494.576 139.317 490.766 127.628C489.79 124.627 488.694 122.2 487.486 120.834C481.578 114.145 475.938 128.296 475.938 128.296V128.294Z" fill="#ED7D2B"/>
<path d="M481.669 105.224C485.361 104.084 495.891 105.548 506.47 107.531L508.684 104.03L531.531 102.321C531.531 102.321 539.057 118.333 534.942 128.541C533.94 131.028 530.669 131.026 530.667 131.028C530.667 131.028 517.142 131.028 512.726 131.028C501.363 131.028 488.679 123.545 487.039 123.231C484.354 122.717 483.278 127.863 480.593 133.265C477.908 138.667 455.347 157.193 455.347 157.193C455.347 157.193 451.88 157.225 450.447 156.71C448.907 156.158 448.344 155.438 448.344 155.438C448.344 155.438 473.343 107.793 481.669 105.221V105.224Z" fill="#F99746"/>
<path d="M508.818 73.889C516.955 78.1812 533.458 87.0772 533.545 87.0195C533.545 87.0195 539.612 89.2094 543.055 87.0195C548.792 83.3698 551.867 73.5496 541.377 65.0976C536.145 60.8823 532.429 59.8557 531.863 53.1261C531.556 49.4742 526.346 37.4236 517.688 38.5378C516.964 38.6317 516.235 38.6979 515.507 38.6744C514.495 38.6424 512.826 38.7854 511.113 39.7608C506.213 42.5546 496.624 72.2285 508.82 73.889H508.818Z" fill="#233862"/>
<path d="M515.636 70.2374C515.6 70.2587 519.64 71.5799 522.34 70.4337C524.88 69.358 526.805 65.354 526.767 65.3518C525.611 65.3006 524.343 64.3338 523.365 57.9819L522.873 58.1505L514.598 61.002C514.598 61.002 515.197 63.5462 515.585 65.9665C515.912 68.0006 516.086 69.9471 515.634 70.2352L515.636 70.2374Z" fill="#FFB27D"/>
<path d="M514.6 61.0038C514.6 61.0038 515.199 63.548 515.587 65.9683C520.339 65.1487 522.204 60.6132 522.875 58.1523L514.6 61.0038Z" fill="#ED975D"/>
<path d="M513.368 63.5291C513.368 63.5291 524.689 62.0735 523.635 55.3332C522.581 48.5929 523.332 43.8653 516.057 44.5099C508.785 45.1545 507.786 47.927 507.566 50.2599C507.348 52.5906 510.396 63.734 513.368 63.5291Z" fill="#FFB27D"/>
<path d="M507.978 46.5651C507.978 46.5651 515.226 52.5477 520.155 53.0301C525.083 53.5124 526.95 51.997 526.95 51.997C526.95 51.997 524.045 49.6855 522.296 45.9568C521.781 44.8576 520.691 44.1021 519.437 43.9996C515.917 43.7094 509.244 43.5749 507.976 46.5651H507.978Z" fill="#233862"/>
<path d="M512.508 46.0292C512.508 46.0292 510.084 48.2746 509.319 49.9415C508.582 51.5487 508.361 55.3926 508.949 56.9208C508.949 56.9208 505.173 49.8839 507.31 46.4668C509.578 42.8426 512.508 46.0314 512.508 46.0314V46.0292Z" fill="#233862"/>
<path d="M506.104 86.2127C506.447 108.167 506.198 103.578 508.704 105.661C509.308 106.162 511.006 106.461 513.241 106.602C520.268 107.048 532.621 105.94 533.091 104.696C534.71 100.391 533.567 99.055 534.92 92.4642C535.06 91.7641 535.236 91.0043 535.441 90.1783C536.569 85.6513 537.667 84.1125 533.665 76.8407C530.038 70.2541 526.268 64.9076 525.93 65.1018C516.358 70.5444 515.587 65.9705 515.587 65.9705C515.587 65.9705 505.935 75.5046 506.104 86.2127Z" fill="#BC3F3F"/>
<path d="M481.573 142.82L488.93 161.788C488.93 161.788 490.927 161.973 492.838 161.446C494.599 160.96 496.619 159.683 496.619 159.683C496.619 159.683 494.576 139.317 490.766 127.627L481.573 142.822V142.82Z" fill="#F99746"/>
<path d="M515.587 65.9683C515.587 65.9683 505.739 67.5669 504.582 71.6307C503.426 75.6924 496.622 99.5715 496.622 99.5715C496.622 99.5715 501.628 100.434 503.941 98.2183C506.254 96.0028 511.989 77.6624 511.989 77.6624L515.587 65.9704V65.9683Z" fill="#BC3F3F"/>
<path d="M513.241 106.604C520.268 107.05 532.621 105.943 533.091 104.698C534.711 100.393 533.567 99.0572 534.92 92.4663L531.531 83.3228C531.531 83.3228 532.093 93.5036 528.958 96.1822C525.827 98.8608 516.124 101.352 514.602 103.588C513.867 104.662 513.383 105.74 513.243 106.604H513.241Z" fill="#992525"/>
<path d="M521.293 102.321C521.293 102.321 514.359 100.842 513.241 101.431C512.122 102.02 509.388 104.167 509.045 104.914C508.702 105.661 511.536 104.346 512.457 104.109C513.054 103.956 514.624 104.478 515.402 104.726C518.675 105.77 520.678 105.234 520.678 105.234L521.291 102.318L521.293 102.321Z" fill="#FFB27D"/>
<path d="M525.936 65.0977C525.936 65.0977 535.245 65.6462 538.467 69.9533C543.003 76.0149 552.003 101.843 546.845 105.287C541.036 109.168 520.411 106.301 520.411 106.301C520.411 106.301 519.724 103.228 520.68 101.742C521.636 100.257 537.155 97.8535 537.87 97.1684C538.585 96.4833 528.917 83.7882 528.917 81.7306C528.917 79.6731 525.936 65.0977 525.936 65.0977Z" fill="#BC3F3F"/>
<path d="M512.907 103.281C512.907 103.281 511.454 105.076 510.977 105.289C510.5 105.503 510.193 105.449 510.193 105.449L511.171 103.761L512.904 103.279L512.907 103.281Z" fill="#FFB27D"/>
<path d="M513.241 101.433L509.016 103.398C509.016 103.398 509.197 103.68 509.716 103.657C510.235 103.633 511.547 103.174 511.547 103.174L513.239 101.433H513.241Z" fill="#FFB27D"/>
<path d="M510.977 108.038H477.569L467.519 84.0996H500.875L510.977 108.038Z" fill="#163560"/>
<path d="M477.177 107.106H521.293V108.039H477.569L477.177 107.106Z" fill="#11294A"/>
<path d="M486.003 96.0688C485.751 95.2279 486.259 94.5449 487.137 94.5449C488.015 94.5449 488.933 95.2279 489.184 96.0688C489.436 96.9098 488.928 97.5928 488.05 97.5928C487.172 97.5928 486.254 96.9098 486.003 96.0688Z" fill="white"/>
<path d="M644.149 317H3.93923C3.47133 317 3.0881 316.633 3.0881 316.184C3.0881 315.736 3.47133 315.369 3.93923 315.369H644.149C644.617 315.369 645 315.736 645 316.184C645 316.633 644.617 317 644.149 317Z" fill="#2E3552"/>
</g>
<defs>
<clipPath id="clip0_85_78">
<rect width="645" height="317" fill="white"/>
</clipPath>
</defs>
</svg>
