<svg width="354" height="361" viewBox="0 0 354 361" fill="none" xmlns="http://www.w3.org/2000/svg">
<g clip-path="url(#clip0_86_755)">
<path d="M336.951 280.314C335.151 273.545 336.174 276.295 335.456 272.811C335.043 270.882 331.881 270.515 331.08 272.572L330.998 272.404C323.996 265.037 315.996 261.378 306.724 257.798C220.528 224.375 84.3965 239.508 27.5267 270.387C27.1304 269.08 24.8681 268.171 23.448 270.1C11.7653 285.855 12.4753 302.901 20.3519 320.378C37.4921 358.441 75.1412 344.337 105.219 340.238C127.437 337.528 136.337 344.871 155.071 353.498C167.736 359.358 193.661 363.934 223.756 358.784C236.694 356.567 242.002 354.406 251.448 349.248C257.945 345.724 263.419 342.718 270.718 342.718C283.755 342.718 313.899 357.612 331.51 333.573C344.802 315.506 341.805 298.173 336.959 280.33L336.951 280.314Z" fill="#C5D3E4"/>
<path d="M328.124 84.5452C313.461 71.2862 288.378 74.013 285.067 52.9882C283.433 39.9365 288.659 16.1771 247.509 4.83152C209.101 -5.81239 182.68 4.0422 161.288 6.97625C127.965 11.1302 89.1356 -12.8924 57.7449 42.9343C44.9063 65.6972 48.085 74.5392 27.1303 88.9463C16.2484 96.5047 3.44278 111.374 0.412695 139.981C-4.64846 187.715 39.1268 230.363 20.3931 273.377C20.228 273.943 20.3105 274.533 20.55 274.972C20.6078 276.144 21.6398 277.092 22.8535 277.092C352.027 277.092 333.598 277.523 334.663 276.223C336.67 276.247 336.084 275.298 340.773 268.027C353.95 247.425 351.11 228.266 347.766 204.554L347.692 204.626C341.863 160.552 351.052 162.33 353.546 144.04C356.51 121.907 344.926 99.7337 328.133 84.5293L328.124 84.5452Z" fill="#D7EAFF"/>
<path d="M243.406 39.3065C237.932 39.9045 207.796 36.8349 207.07 38.9398C206.318 39.2108 206.657 40.6141 206.971 52.1828C207.474 69.4523 207.103 68.9659 207.961 68.9739C207.953 68.9739 207.945 68.9739 207.945 68.9899C207.945 68.9899 207.97 69.0696 207.97 69.0776C208.143 69.6596 208.614 69.5241 209.216 69.4523L209.315 69.4045C219.842 68.2404 229.296 70.1619 240.227 70.2257C241.168 70.2257 242.11 70.2097 243.043 70.1699C243.365 70.1699 243.629 69.9546 243.703 69.6516C243.703 69.6277 243.703 69.5958 243.703 69.5639V69.548C245.049 69.548 243.621 66.3428 244.554 39.6573C244.578 39.1072 243.794 38.7564 243.373 39.3145L243.406 39.3065Z" fill="white"/>
<path d="M248.31 36.6514C248.343 35.3439 246.775 34.3552 245.511 35.0728C236.157 35.0568 219.512 33.4064 204.849 34.6502C203.536 34.1001 202.141 35.1764 202.232 36.3166C203.115 47.7259 202.479 59.0316 203.115 70.704C203.181 71.884 204.205 72.6574 205.253 72.5059C210.182 74.2998 217.341 73.0879 222.798 73.2872C223.624 73.3191 224.433 73.4068 225.258 73.4626C230.683 73.7975 232.301 73.4387 245.437 73.3191C246.015 73.3191 246.576 73.048 246.931 72.5936C249.879 72.1311 247.402 71.0388 248.319 36.6514H248.31ZM243.728 69.5399C243.645 70.3372 242.869 70.2176 240.236 70.2176C229.37 70.1538 219.768 68.2324 209.324 69.3964L209.225 69.4442C208.638 69.516 208.143 69.6515 207.978 69.0695C207.978 69.0695 207.961 68.9898 207.953 68.9898C207.07 68.8941 207.417 69.5001 206.954 51.832C206.632 39.3463 206.426 39.1629 207.061 38.9397C207.796 36.8827 238.048 39.8885 243.398 39.3064C243.811 38.7483 244.603 39.0991 244.578 39.6493C243.637 66.1674 245.074 69.5399 243.728 69.5399Z" fill="#A1B0C1"/>
<path d="M245.008 51.2582C244.884 51.2343 244.768 51.2024 244.653 51.1546C242.886 50.3732 241.639 47.6544 239.914 47.774C239.938 46.0838 239.955 44.4015 239.938 42.7112C239.938 41.9059 238.692 41.9378 238.7 42.7112C238.716 44.6247 238.7 46.5302 238.667 48.4438C238.114 49.0577 237.742 49.9746 237.478 50.7559C235.587 49.8629 234.167 50.6044 233.292 52.4382C232.838 52.1432 232.326 52.5179 232.342 52.9325C232.359 53.395 232.376 53.8574 232.384 54.3119C232.384 54.4394 232.442 54.559 232.516 54.6547C232.4 55.1012 232.285 55.5477 232.177 55.9942C230.287 55.7231 229.444 56.5044 228.619 57.0386C228.924 41.9697 229.023 42.2089 228.198 42.2089C227.29 42.2089 227.694 42.0016 227.372 57.4133C222.922 57.1582 221.634 47.9574 217.498 56.4885C217.431 56.4725 217.374 56.4486 217.308 56.4327C217.242 52.1273 217.217 47.8219 217.324 43.5165C217.349 42.759 216.11 42.6952 216.086 43.5165C215.978 47.6863 216.003 51.8562 216.061 56.026C214.806 55.5397 213.328 54.7265 211.858 54.7982C211.891 53.2913 212.081 52.3027 211.256 52.3027C210.925 52.3027 210.636 52.5738 210.636 52.9006C210.653 53.6342 210.636 54.3677 210.62 55.1012C209.629 55.5556 207.772 57.3894 208.779 57.9555C209.415 58.3143 209.662 57.6206 210.092 57.0625C210.884 56.1138 211.528 55.9144 212.428 56.0021C213.064 56.1058 213.667 56.321 214.261 56.5682C214.055 56.4725 215.359 57.0466 216.086 57.3097C216.243 67.3955 216.044 67.6028 216.87 67.6028C217.696 67.6028 217.489 67.4513 217.332 57.6685C218.893 57.9954 217.96 57.3336 219.933 54.7583C220.643 53.8973 220.916 53.9212 221.584 54.5909C221.494 55.0613 221.469 56.2094 221.477 56.6958C221.477 57.501 222.724 57.4692 222.716 56.6958C222.716 56.4247 222.716 56.1536 222.724 55.8825C223.904 57.2459 225.481 58.5296 227.347 58.6252C227.199 65.5139 226.976 65.9046 227.818 65.9046C228.66 65.9046 228.437 65.5219 228.586 58.4179C229.965 57.8519 230.303 56.7436 232.466 57.2778C232.788 57.3496 233.152 57.1821 233.226 56.8632C234.151 53.1079 234.687 50.4051 237.511 52.1671C237.849 52.3824 238.312 52.1671 238.419 51.8084C238.469 51.6409 238.527 51.4735 238.584 51.3061C238.46 56.2015 238.271 61.0969 238.337 66.0002C238.353 66.8135 239.592 66.7656 239.575 66.0002C239.501 60.3235 239.757 54.6547 239.872 48.9859C240.442 48.8185 241.895 50.5406 242.316 50.9473C243.208 51.8243 245.099 53.1159 245.412 51.9997C245.503 51.6967 245.313 51.33 244.983 51.2662L245.008 51.2582Z" fill="#E2D5C4"/>
<path d="M211.867 45.5336C211.594 41.603 211.809 40.8296 210.983 40.8296C210.158 40.8296 210.356 41.5551 210.628 45.5336C210.686 46.3788 211.916 46.2751 211.867 45.5336Z" fill="#E2D5C4"/>
<path d="M210.851 49.7275C210.851 50.5248 212.098 50.5009 212.09 49.7275C212.09 48.3163 212.279 47.3516 211.454 47.3516C210.628 47.3516 210.843 48.2685 210.851 49.7275Z" fill="#E2D5C4"/>
<path d="M211.883 62.7633C211.916 61.2006 211.908 59.6299 211.85 58.0672C211.842 57.7403 211.578 57.4692 211.231 57.4692C210.306 57.4692 210.752 58.1549 210.645 62.7633C210.62 63.5127 211.858 63.5845 211.883 62.7633Z" fill="#E2D5C4"/>
<path d="M210.711 65.0992C210.661 66.2314 210.496 67.3316 211.322 67.3316C212.147 67.3316 211.891 66.4865 211.949 65.0992C211.982 64.3497 210.744 64.27 210.711 65.0992Z" fill="#E2D5C4"/>
<path d="M223.013 46.5145C223.062 45.4222 223.079 44.3299 223.062 43.2376C223.062 42.4323 221.816 42.4642 221.824 43.2376C221.84 44.3299 221.824 45.4222 221.774 46.5145C221.741 47.2639 222.972 47.3436 223.013 46.5145Z" fill="#E2D5C4"/>
<path d="M222.633 51.9118C222.897 51.6646 222.963 49.791 222.988 49.4402C223.029 48.6907 221.799 48.603 221.75 49.4402C221.708 50.1258 221.65 50.8035 221.576 51.4892C221.527 51.9676 222.228 52.3104 222.633 51.9118Z" fill="#E2D5C4"/>
<path d="M222.872 60.4194C222.963 59.7417 221.741 59.5105 221.634 60.4194C221.535 61.2566 221.353 62.2053 222.162 62.2053C222.972 62.2053 222.757 61.3602 222.872 60.4194Z" fill="#E2D5C4"/>
<path d="M221.824 64.4614C221.84 65.1152 221.807 65.7769 221.741 66.4307C221.667 67.1164 222.872 67.3316 222.98 66.4307C223.054 65.7769 223.079 65.1231 223.062 64.4614C223.038 63.6402 221.799 63.7039 221.824 64.4614Z" fill="#E2D5C4"/>
<path d="M233.664 44.9358C233.688 43.3811 233.919 42.52 233.086 42.52C232.252 42.52 232.442 43.5645 232.425 44.9358C232.425 45.7092 233.655 45.7411 233.664 44.9358Z" fill="#E2D5C4"/>
<path d="M232.45 48.8426C232.433 49.5522 232.318 50.2937 233.053 50.2937C233.787 50.2937 233.672 49.5442 233.688 48.8426C233.705 48.0772 232.466 48.0294 232.45 48.8426Z" fill="#E2D5C4"/>
<path d="M232.301 57.9238C232.285 58.2666 232.268 58.6094 232.227 58.9602C232.177 59.4306 232.871 59.7894 233.284 59.3828C233.531 59.1516 233.523 58.2825 233.54 57.9317C233.564 57.1823 232.326 57.1025 232.301 57.9317V57.9238Z" fill="#E2D5C4"/>
<path d="M232.202 60.6582C232.227 61.7026 232.004 62.6434 232.83 62.6434C233.655 62.6434 233.465 61.6309 233.441 60.6582C233.416 59.8369 232.177 59.9087 232.202 60.6582Z" fill="#E2D5C4"/>
<path d="M232.153 64.1985C232.194 64.8443 232.21 65.4901 232.21 66.1439C232.21 66.9332 233.449 66.9332 233.449 66.1439C233.449 65.4981 233.432 64.8522 233.391 64.1985C233.35 63.3613 232.12 63.449 232.153 64.1985Z" fill="#E2D5C4"/>
<path d="M226.885 29.9702C226.951 29.6992 226.753 29.4839 226.497 29.4839C226.423 29.4839 226.249 29.5158 226.158 29.5317C225.118 29.6433 224.07 29.5556 223.038 29.6912C222.583 29.755 222.517 30.1536 222.74 30.3689C222.616 30.6479 222.831 36.2928 223.219 36.4523C223.269 36.54 223.36 36.5958 223.45 36.6117C224.367 36.7792 226.753 37.0901 226.456 36.229C226.522 36.1493 226.885 29.9782 226.877 29.9702H226.885Z" fill="#E2D5C4"/>
<path d="M114.508 214.083C111.048 245.416 104.476 305.006 104.691 303.005C104.608 303.802 105.417 304.799 106.548 304.799C107.779 304.799 108.406 303.77 108.406 302.973C118.941 207.553 118.603 213.7 117.678 212.815C116.687 211.858 114.722 212.161 114.508 214.083Z" fill="#49362E"/>
<path d="M132.721 213.564V285.512C132.721 286.493 133.563 287.306 134.579 287.306C135.594 287.306 136.436 286.493 136.436 285.512V213.564C136.436 211.196 132.721 211.196 132.721 213.564Z" fill="#49362E"/>
<path d="M154.023 215.422V276.551C154.023 278.919 157.738 278.919 157.738 276.551V215.422C157.738 213.054 154.023 213.054 154.023 215.422Z" fill="#49362E"/>
<path d="M190.227 258.571C188.963 257.336 186.924 258.476 187.056 259.839C188.204 271.4 191.465 304.185 191.465 304.185C191.738 306.919 195.379 306.178 195.18 304.185C190.425 256.379 190.945 259.273 190.227 258.571Z" fill="#49362E"/>
<path d="M164.615 285.169C165.35 281.199 160.471 278.663 156.169 278.878C156.384 278.631 157.779 277.076 157.779 276.75C157.779 276.168 157.003 275.944 156.706 276.319C152.503 281.517 147.789 286.405 143.801 291.787C143.372 292.002 143.529 292.401 143.248 294.466L143.281 294.306C143.149 295.103 142.777 297.487 142.629 298.715C142.389 298.898 142.332 299.225 142.488 299.488C143.636 301.442 144.561 303.523 145.634 305.508C145.725 305.675 145.907 305.787 146.121 305.803C147.715 306.72 154.13 307.214 155.41 307.31C155.773 307.31 156.029 307.015 156.037 306.712C157.309 306.561 155.443 301.809 155.327 295.422C159.042 291.842 162.419 288.621 166.011 285.584C166.267 285.368 166.242 284.946 166.011 284.723C165.532 284.26 165.103 284.738 164.615 285.153V285.169Z" fill="#FFC9A9"/>
<path d="M228.313 310.244C228.008 309.678 223.789 307.541 222.526 306.848C222.047 305.548 220.371 300.621 219.669 297.758C219.958 297.304 219.504 296.18 219.231 295.717C219.198 295.526 219.083 294.8 219.066 294.721C219.24 293.652 217.869 293.573 217.795 294.362C217.671 294.242 216.82 293.939 215.846 293.939C212.94 293.939 209.249 296.164 207.871 298.157C207.689 297.599 207.491 297.041 207.301 296.483C207.194 296.18 206.905 295.972 206.533 296.06C205.526 296.323 205.914 296.236 213.353 316.981C213.411 317.157 213.543 317.3 213.708 317.372C213.757 318.201 214.426 317.747 217.993 318.185H218.092C219.562 318.392 224.92 319.349 224.92 319.349C225.036 319.349 225.135 319.325 225.225 319.269C225.366 319.19 225.473 319.062 225.514 318.903C225.556 318.767 225.539 318.6 225.457 318.456C226.035 318.105 228.082 314.645 228.619 310.922C228.668 310.627 228.594 310.388 228.322 310.228L228.313 310.244Z" fill="#FFC9A9"/>
<path d="M154.708 295.287C154.956 295.51 155.344 295.526 155.583 295.287C156.409 294.49 154.724 293.708 147.294 287.912C146.575 287.33 145.849 288.311 146.418 288.757C149.193 290.918 152.091 292.943 154.708 295.287Z" fill="#49362E"/>
<path d="M157.243 306.848C157.226 305.708 150.175 305.142 145.436 303.993C144.866 303.053 144.008 301.53 143.454 300.501C143.611 300.445 143.735 300.31 143.776 300.142C144.024 299.122 145.626 291.141 145.378 290.647C145.32 290.328 145.023 290.128 144.726 290.128C144.363 290.128 139.822 293.74 139.5 293.971C139.153 294.211 139.112 294.545 139.268 294.809C139.326 294.904 139.417 294.984 139.533 295.048C141.473 300.15 144.511 304.95 147.393 309.638C146.955 311.073 155.55 311.839 161.371 313.673C161.42 313.689 161.47 313.697 161.544 313.697C161.817 313.697 162.081 313.505 162.155 313.242C162.205 313.067 162.172 312.891 162.072 312.748C162.163 312.166 157.68 307.27 157.243 306.848Z" fill="#49362E"/>
<path d="M211.338 310.874C214.88 309.814 218.463 308.889 221.857 307.43C222.377 307.206 222.212 306.313 221.56 306.313C221.37 306.313 220.726 306.608 220.528 306.688C220.577 306.664 220.627 306.648 220.676 306.624C213.386 309.558 210.215 309.184 210.57 310.443C210.661 310.754 211.008 310.962 211.33 310.866L211.338 310.874Z" fill="#49362E"/>
<path d="M241.779 318.648C241.779 318.449 241.664 318.249 241.474 318.13C237.007 315.323 232.367 312.549 228.008 309.519C227.628 309.12 227.034 309.319 226.918 309.75C226.579 311.058 226.092 312.413 225.448 313.896L225.531 313.76C224.78 315.419 223.401 318.09 223.401 318.09C221.7 317.994 220.214 317.874 218.843 317.723C219.322 316.567 213.807 313.37 212.312 311.895C212.255 311.839 212.189 311.799 212.114 311.767C211.635 311.313 210.892 311.775 211.049 312.365C211.545 314.111 212.379 315.801 212.948 317.38C213.014 317.564 213.155 317.715 213.32 317.787C214.121 319.628 236.462 319.445 241.499 319.804C242.143 319.804 242.39 318.951 241.788 318.656L241.779 318.648Z" fill="#49362E"/>
<path d="M215.136 245.895L209.497 223.1C209.497 223.1 209.489 223.076 209.481 223.06C209.687 222.821 209.637 222.382 209.324 222.223C206.517 220.939 201.133 217.264 200.151 217.264C199.54 217.264 199.358 218.069 199.862 218.316C202.545 219.488 204.362 220.907 208.316 223.044L208.473 223.132C208.069 223.841 212.643 240.481 213.444 243.686C213.534 244.037 213.51 243.925 213.584 244.22C213.782 245.026 213.815 245.121 213.964 245.958C214.071 246.477 214.055 246.915 214.624 246.915C214.855 246.915 215.029 246.804 215.136 246.644C215.26 246.413 215.186 246.182 215.136 245.911V245.895Z" fill="#6C7548"/>
<path d="M187.989 236.136C187.989 236.136 188.022 236.16 188.039 236.176C188.022 236.168 188.014 236.152 187.997 236.144C187.997 236.144 187.997 236.144 187.989 236.144V236.136Z" fill="#6C7548"/>
<path d="M188.253 236.47C188.245 236.375 188.171 236.287 188.088 236.215C188.575 236.71 187.973 237.22 187.519 237.746C187.626 238.017 187.552 238.161 187.42 238.344C189.195 247.983 192.233 256.132 192.679 266.074C192.704 266.855 193.868 266.776 193.843 266.074C193.471 255.781 189.723 245.592 188.27 236.47H188.253Z" fill="#6C7548"/>
<path d="M188.088 236.216C188.088 236.216 188.088 236.208 188.08 236.2C188.047 236.168 188.006 236.136 188.088 236.216Z" fill="#6C7548"/>
<path d="M224.78 277.906C222.996 272.277 221.461 267.358 220.082 262.861C218.373 257.264 216.911 252.337 215.615 247.8C216.688 246.74 224.961 237.874 227.512 231.447C228.206 229.725 228.47 228.234 228.313 226.887C228.421 226.775 228.478 226.6 228.462 226.432C228.421 225.898 221.799 220.803 221.37 220.469C219.091 218.699 218.629 218.013 218.026 218.412C209.86 213.317 178.461 206.452 142.744 215.836L142.885 215.94C147.698 218.834 141.415 215.43 161.288 225.396C166.985 227.317 171.543 230.379 176.331 232.532C176.81 232.683 182.416 234.501 182.457 234.979C184.274 235.761 185.9 236.167 186.165 236.686L186.487 236.845C183.754 239.309 181.491 242.354 179.031 245.121C169.107 253.963 160.991 265.141 149.259 274.78C149.135 274.892 149.06 275.044 149.06 275.219C149.027 275.275 149.011 275.362 149.011 275.458C149.011 275.61 149.077 275.817 149.209 275.921C153.701 279.301 170.073 293.142 170.816 293.142C170.89 293.142 170.948 293.134 171.006 293.11C171.105 293.086 171.212 293.031 171.311 292.935C171.708 292.759 179.064 283.822 179.337 283.495C183.96 277.89 187.865 273.074 193.149 267.549C193.529 269.558 200.349 299.353 200.654 299.76C200.638 299.776 200.646 299.824 200.671 299.879C200.902 300.732 201.53 300.134 205.394 299.624C210.356 298.795 219.793 299.234 226.39 295.462C227.661 294.753 229.015 293.684 229.015 293.684C229.197 293.637 229.345 293.525 229.436 293.381C229.742 292.895 229.51 292.815 224.78 277.898V277.906ZM188.031 236.167C188.031 236.167 188.006 236.143 187.989 236.135C188.014 236.151 188.006 236.151 188.031 236.167ZM192.671 266.074C192.25 256.211 189.162 247.848 187.411 238.344C187.552 238.161 187.626 238.009 187.519 237.746C187.973 237.22 188.584 236.702 188.088 236.215C188.253 236.359 188.253 236.415 188.27 236.55C189.962 246.532 193.463 255.98 193.826 266.074C193.859 266.776 192.695 266.863 192.662 266.074H192.671ZM214.327 246.827C214.046 246.66 214.055 246.437 213.997 246.118C213.906 245.671 213.889 245.528 213.782 245.017C213.724 244.786 213.642 244.427 213.518 243.965C212.899 241.621 208.069 223.817 208.473 223.116C204.345 220.899 202.57 219.48 199.862 218.3C199.391 218.077 199.507 217.248 200.151 217.248C200.795 217.248 204.651 219.584 205.212 219.934C206.459 220.692 207.879 221.545 209.324 222.215C209.604 222.358 209.712 222.773 209.481 223.06C209.522 223.171 209.538 223.211 209.547 223.259C210.925 230.004 214.756 243.766 215.194 246.189C215.31 246.803 214.748 247.05 214.335 246.835L214.327 246.827Z" fill="#889555"/>
<path d="M53.3692 217.255H44.4854V319.357H53.3692V217.255Z" fill="#8D96A0"/>
<path d="M73.1019 185.084H64.2181V287.186H73.1019V185.084Z" fill="#8D96A0"/>
<path d="M288.849 183.777H279.965V285.879H288.849V183.777Z" fill="#8D96A0"/>
<path d="M310.836 217.255H301.952V319.357H310.836V217.255Z" fill="#8D96A0"/>
<path d="M313.783 208.62L313.701 208.429C313.734 208.325 313.676 208.182 313.56 208.062C293.852 161.054 294.851 161.277 293.894 161.923C293.068 161.899 56.3662 161.277 61.3118 162.84C52.6096 182.055 58.8514 168.19 41.1085 207.991C40.6791 207.975 40.481 208.469 40.803 208.788C40.5223 209.123 40.3737 209.625 40.77 209.808C40.8525 209.88 40.9929 209.92 41.1498 209.856C41.4635 209.8 41.6534 209.155 41.7937 208.86L41.9011 208.915C154.056 208.931 96.5335 208.923 312.883 208.923L312.867 209.019C312.949 209.266 313.189 209.394 313.354 209.394C313.478 209.394 313.701 209.298 313.783 209.131C313.924 208.939 313.841 208.812 313.767 208.612L313.783 208.62Z" fill="#9CA6B3"/>
<path d="M313.874 208.883H40.7865V218.834H313.874V208.883Z" fill="#AEB7C1"/>
<path d="M141.646 177.271C140.499 179.87 139.5 182.525 138.368 185.132C136.676 188.975 136.04 189.31 136.758 189.725C137.923 190.386 138.434 187.66 142.653 177.996C142.629 178.044 142.612 178.092 142.587 178.14C142.629 178.052 142.662 177.964 142.703 177.877C143.091 176.992 141.894 176.673 141.638 177.271H141.646Z" fill="#9A7567"/>
<path d="M142.158 188.425C142.183 186.495 142.166 186.121 142.191 185.132C142.191 185.028 142.15 184.925 142.067 184.853C141.985 184.773 141.877 184.725 141.77 184.725C141.663 184.725 141.564 184.765 141.489 184.837C139.087 184.749 123.788 184.327 122.004 184.941C121.682 184.941 121.517 185.156 121.542 185.347C122.079 190.107 122.062 197.546 127.239 200.735C128.766 201.923 130.806 202.481 131.689 202.457C133.126 202.386 134.166 202.346 136.073 201.413C138.913 200.687 140.788 197.53 141.506 194.795C150.423 194.867 149.622 187.341 142.166 188.425H142.158ZM146.039 192.451C145.56 192.786 144.932 193.025 145.089 192.962C144.33 193.249 143.537 193.424 142.736 193.536C142.901 193.512 142.505 193.575 141.77 193.591C142.043 192.108 142.1 190.833 142.133 189.637C143.636 189.374 145.948 189.406 146.592 190.745C146.641 190.873 146.674 191.008 146.699 191.144C146.732 191.63 146.633 191.981 146.039 192.451Z" fill="white"/>
<path d="M287.916 190.506C287.107 190.825 286.562 190.897 285.968 190.921C286.001 190.426 285.604 190.091 285.15 190.075C284.176 190.043 283.202 189.964 282.219 189.964C282.095 188.266 281.905 186.575 281.583 184.901C281.55 184.71 281.427 184.55 281.237 184.438C280.221 183.211 266.309 183.657 265.475 183.681C240.128 184.327 232.937 182.676 226.043 183.856C225.523 183.673 224.961 184.032 224.937 184.614C224.127 201.261 224.053 201.748 224.879 202.107C225.399 202.896 225.647 202.266 239.137 202.266C274.252 202.266 284.415 204.052 282.723 201.413C282.492 198.144 282.5 194.915 282.318 191.574C285.026 191.59 285.398 191.885 285.802 191.335C290.211 191.255 292.317 186.918 295.751 184.303C295.751 184.303 295.751 184.303 295.743 184.303C295.768 184.279 295.801 184.255 295.776 184.279C296.379 183.833 297.023 183.442 297.725 183.147C297.725 183.147 297.725 183.147 297.716 183.147C298.699 182.748 299.516 182.676 299.467 182.676C299.475 182.676 299.508 182.676 299.492 182.676C301.151 182.493 302.769 182.796 304.156 183.777C304.156 183.777 304.156 183.777 304.148 183.777C304.173 183.801 304.206 183.817 304.181 183.801C306.419 185.491 307.228 188.473 306.567 191.184C306.493 191.447 306.906 191.534 306.964 191.287C307.054 190.905 307.12 190.522 307.162 190.131C307.286 188.999 307.145 187.691 306.658 186.448C306.344 185.634 305.923 184.997 305.453 184.431C304.313 183.091 302.546 182.23 300.383 182.23C298.526 182.23 296.973 182.868 295.495 183.984C292.73 186.065 290.864 189.254 287.924 190.506" fill="#956E5E"/>
<path d="M304.165 183.777C304.165 183.777 304.181 183.785 304.19 183.793C304.19 183.793 304.173 183.777 304.165 183.777Z" fill="#956E5E"/>
<path d="M295.768 184.287C295.768 184.287 295.784 184.279 295.793 184.271C295.793 184.271 295.776 184.287 295.768 184.287Z" fill="#956E5E"/>
<path d="M279.709 199.994C279.784 199.906 279.808 199.795 279.8 199.683C279.478 195.441 279.643 191.144 279.429 186.91C279.42 186.695 279.305 186.496 279.123 186.392C278.611 184.869 262.115 186.129 244.62 185.619C243.274 185.579 227.694 184.997 227.455 186.296C227.323 186.416 227.257 186.567 227.273 186.719C227.661 190.841 227.034 195.003 227.067 199.125C227.067 199.26 227.116 199.396 227.207 199.5C227.091 199.811 227.356 200.225 227.81 200.249C228.635 200.289 275.135 201.182 279.338 201.086C279.684 201.086 279.965 200.807 279.965 200.48C279.965 200.289 279.866 200.106 279.701 199.994H279.709Z" fill="#49362E"/>
<path d="M315.302 110.29L315.245 110.466C311.893 109.246 293.539 104.007 276.894 99.8616C255.815 94.703 256.847 94.1609 256.269 95.1655C256.17 95.2532 256.104 95.3568 256.071 95.4764C253.198 105.482 244.298 124.426 239.525 141.369C239.154 141.839 239.459 142.525 239.93 142.621C247.641 144.191 255.047 146.743 262.412 149.27C262.437 156.693 262.66 164.498 262.66 172.99C259.671 172.99 256.723 173.022 253.776 173.061C253.462 173.061 253.264 173.372 253.363 173.619C253.38 175.421 253.421 176.944 253.611 178.499C253.57 178.555 253.545 178.626 253.545 178.714C253.545 178.945 253.743 179.145 253.966 179.145C273.393 178.156 280.551 179.679 279.338 178.18C279.354 178.164 279.222 173.747 279.222 173.723C279.618 173.596 279.511 172.942 279.024 172.942C276.555 172.942 274.194 172.942 271.907 172.942C271.147 166.117 271.081 159.101 271.197 152.268C282.17 156.039 296.313 159.364 297.204 159.364C297.576 159.364 297.981 159.053 298.014 158.598C298.014 158.527 298.014 158.439 297.989 158.351C298.658 158.279 298.608 157.961 301.704 150.697C302.117 149.74 311.141 128.174 316.78 111.103C316.219 110.785 315.856 110.633 315.278 110.298L315.302 110.29Z" fill="#49362E"/>
<path d="M310.935 113.32C310.456 112.132 302.588 110.418 296.057 108.417C290.343 106.639 285.588 105.235 281.534 104.127C268.827 100.627 260.15 99.3672 259.324 99.3672C258.499 99.3672 258.391 100.3 258.135 101.034C247.65 130.725 248.426 129.09 246.915 132.878C246.246 134.6 244.62 138.315 245.255 139.081C245.131 139.431 245.387 139.854 245.817 140.013C255.568 143.721 265.649 146.272 275.449 149.166C283.292 151.494 294.447 155.545 294.447 155.545C296.057 157.076 296.304 151.869 305.651 129.202C305.75 128.963 305.741 128.987 305.775 128.891C312.041 113.599 311.967 113.687 310.918 113.32H310.935Z" fill="white"/>
<path d="M274.418 106.741L261.353 102.662L256.402 117.447L269.466 121.527L274.418 106.741Z" fill="#E2D5C4"/>
<path d="M286.3 114.007L278.051 111.432L276.4 116.363L284.648 118.939L286.3 114.007Z" fill="#E2D5C4"/>
<path d="M283.347 122.83L275.098 120.254L274.557 121.87L282.806 124.446L283.347 122.83Z" fill="#E2D5C4"/>
<path d="M297.409 133.792L273.095 126.199L271.444 131.13L295.757 138.723L297.409 133.792Z" fill="#E2D5C4"/>
<path d="M294.456 142.612L270.143 135.02L269.602 136.635L293.915 144.228L294.456 142.612Z" fill="#E2D5C4"/>
<path d="M202.413 189.948C202.24 189.748 200.745 189.35 200.489 189.27C200.357 189.063 199.944 188.991 199.689 188.991C190.136 187.707 189.393 186.583 188.848 187.564C188.675 187.652 188.6 187.747 188.526 187.939C187.742 189.828 183.861 197.921 181.582 201.126C181.467 201.277 181.458 201.485 181.549 201.684C181.475 202.043 181.698 202.37 182.16 202.409C184.579 202.657 196.353 204.897 196.576 204.897C196.815 204.897 197.005 204.761 197.104 204.578C197.93 204.355 201.332 196.246 202.933 190.705C203.032 190.354 202.768 189.98 202.413 189.948Z" fill="#E0D2C0"/>
<path d="M213.468 186.95C208.581 186.296 203.982 184.606 198.896 184.151C198.805 184.151 198.756 184.143 198.648 184.191C198.59 184.167 198.533 184.159 198.475 184.159C198.161 184.159 197.979 184.335 197.864 184.606C197.74 184.893 197.74 184.901 197.74 184.901L197.707 184.989C195.676 189.517 193.034 193.799 190.846 198.136C190.788 198.248 190.763 198.367 190.772 198.479C190.747 198.519 190.722 198.566 190.706 198.622C190.607 198.981 190.871 199.324 191.143 199.372C196.279 200.137 205.319 202.848 206.17 202.354C206.434 202.481 206.83 202.386 206.971 202.107C209.225 197.514 211.091 192.659 213.766 188.257C213.84 188.138 213.865 187.986 213.84 187.835C214.079 187.484 213.815 186.982 213.468 186.942V186.95Z" fill="white"/>
<path d="M87.0138 141.369C89.1853 138.849 95.5014 129.856 96.8389 126.722C97.2517 125.789 98.4324 122.505 97.3591 122.505C96.5334 122.505 90.9934 128.668 87.6166 133.922C89.0944 130.581 91.8934 121.803 90.5393 114.205C90.4898 114.005 90.2669 113.862 90.0935 113.862C89.2678 113.862 82.7783 124.163 83.0095 141.672C83.0095 141.887 83.1911 142.078 83.4223 142.11C83.1746 142.549 82.993 143.154 82.8279 143.625C81.7793 135.644 78.9391 127.974 76.2641 120.463C76.0989 119.961 75.3806 120.081 75.3724 120.583C75.3559 129.848 77.8823 137.167 81.9527 145.483C82.0518 145.706 82.382 145.809 82.671 145.57C82.6958 145.698 83.0095 145.77 83.2489 145.57C83.6287 145.219 83.992 144.869 84.3553 144.502C83.3976 145.602 82.6297 146.774 81.994 148.074C79.7235 140.587 75.5292 131.865 69.9479 126.172C69.7333 125.981 69.4773 126.013 69.2874 126.188C69.2049 126.276 69.1636 126.379 69.1636 126.491C69.6342 137.605 80.8711 149.66 81.9197 148.759C82.027 148.879 82.2252 148.959 82.3985 148.887C85.5855 147.867 88.1285 145.809 90.5806 143.649C91.1668 143.147 92.1823 142.254 92.7768 141.735C95.0886 139.686 97.326 137.573 98.837 135.421C99.3571 134.695 99.8855 133.802 100.158 132.957C101.165 130.581 91.7943 136.593 87.0138 141.353V141.369Z" fill="#7F8E49"/>
<path d="M98.9856 140.436C93.1483 143.474 85.1644 147.564 80.8711 152.363C78.8152 147.723 71.6652 138.307 65.7372 136.808C65.5968 136.768 65.4399 136.808 65.3161 136.912C65.217 137.008 65.151 137.175 65.2088 137.318C68.6351 145.945 80.3509 154.317 80.9784 153.288C86.5515 152.116 98.3746 146.32 99.613 140.89C99.6461 140.739 99.613 140.587 99.5057 140.484C99.3819 140.364 99.1754 140.316 98.9856 140.42V140.436Z" fill="#7F8E49"/>
<path d="M63.5823 151.439C64.4244 152.388 71.9955 144.088 73.0028 136.593C73.0606 136.131 73.234 134.225 72.8211 133.994C72.6643 133.906 72.4826 133.914 72.301 134.058C68.3792 137.103 64.251 145.284 63.6153 150.179C60.3293 147.5 51.1647 144.04 46.4338 144.686C44.8486 144.925 49.3896 148.194 54.2443 149.86C57.2414 150.897 62.7566 151.821 63.5823 151.439Z" fill="#7F8E49"/>
<path d="M52.9233 138.482C54.1205 139.455 61.254 144.59 61.6585 143.147C61.6916 143.035 61.675 142.915 61.6172 142.82C61.6172 142.748 61.6585 142.692 61.6916 142.636C61.9475 142.493 61.8897 142.278 61.8814 141.991C63.0208 137.789 64.862 132.742 64.8537 127.894C64.8537 126.914 64.507 123.087 63.7226 122.887C63.4914 122.84 63.3098 122.935 63.2272 123.079C60.3458 128.213 60.5769 134.345 60.9072 140.173C58.4716 130.517 56.9689 123.908 52.7747 118.423C52.5187 118.016 51.9243 118.255 51.9573 118.638C52.7334 126.26 56.3992 134.36 60.1476 141.074C60.3788 141.504 61.1466 141.217 60.9237 140.699C60.9485 140.699 60.965 140.659 60.9732 140.643C60.9567 141.409 60.9567 141.13 60.998 141.895C60.9567 142.054 60.9733 141.999 60.932 142.166C60.065 141.058 56.9689 137.645 54.8057 135.684C51.4206 132.614 47.8374 130.948 47.0117 130.948C46.7062 130.948 46.4668 131.315 46.6402 131.586C48.2254 134.169 50.5372 136.521 52.9315 138.467L52.9233 138.482Z" fill="#7F8E49"/>
<path d="M62.1374 145.937C54.6241 139.112 43.6184 136.553 51.1152 142.461C53.1875 144.087 55.9121 145.299 58.4468 146.168C58.8101 146.296 61.9227 147.285 62.286 147.285C62.4842 147.285 62.6493 147.157 62.6988 146.982C68.9819 138.387 69.3617 128.612 68.0407 128.612C67.8921 128.612 67.76 128.692 67.6692 128.819C64.1767 133.722 62.6823 140.061 62.1374 145.945V145.937Z" fill="#7F8E49"/>
<path d="M74.6045 142.621C74.4394 142.581 74.2991 142.621 74.1835 142.732C70.4433 146.025 65.2501 153.384 65.6629 158.072C61.3861 154.811 53.2783 152.188 47.8374 153.296C46.6072 153.544 48.8942 155.84 55.4167 157.187C56.3662 157.386 56.8534 157.482 59.0578 158.072C60.3541 158.415 66.5381 160.121 66.2739 158.838C66.5628 158.806 66.5711 158.511 66.5381 158.232C70.0223 155.864 74.3486 149.844 74.9348 144.957C75.0009 144.446 75.1247 142.764 74.5963 142.621H74.6045Z" fill="#7F8E49"/>
<path d="M62.0548 144.031C60.9898 140.388 61.0641 139.973 60.5604 139.973C60.288 139.973 60.0898 140.236 60.1641 140.483C61.0228 143.346 60.5109 141.839 62.319 147.707C64.5565 154.994 66.7444 162.305 68.6929 169.672C68.825 170.167 69.6342 169.983 69.4856 169.457C66.5215 158.255 62.9795 147.141 62.0548 144.031Z" fill="#A67538"/>
<path d="M83.3645 139.973C80.995 152.339 78.1217 159.132 77.775 169.784C77.775 170.294 78.5923 170.326 78.6006 169.784C78.6419 167.679 78.8235 165.59 79.1125 163.501C79.1125 163.533 79.1042 163.573 79.096 163.605C80.1858 155.863 82.382 149.485 84.1489 140.173C84.2562 139.583 83.4388 139.495 83.3563 139.957L83.3645 139.973Z" fill="#A67538"/>
<path d="M84.6113 164.865C83.2572 163.565 80.2767 163.063 78.3695 166.435C76.9741 164.307 74.0018 164.354 73.3991 166.818C69.8241 162.624 64.0364 163.717 64.4492 170.613C64.4905 171.339 65.151 171.753 65.762 171.578C71.657 177.271 78.3364 178.642 84.537 173.109C85.1479 173.388 85.924 172.989 85.9736 172.192L86.0149 171.602C86.147 169.641 86.3946 166.555 84.6113 164.857V164.865Z" fill="#926B5B"/>
<path d="M86.9478 178.913C87.0964 178.148 87.2368 177.446 87.3689 176.816C87.5257 176.035 87.6826 175.341 87.8147 174.735C88.6899 170.845 88.9954 170.287 88.0541 170.287C87.8642 170.287 87.6826 170.374 87.567 170.502C78.4602 170.637 70.9717 169.449 62.4099 169.888C62.0136 169.489 61.4439 169.705 61.3283 170.143C61.1219 170.382 61.1301 170.741 61.3943 170.98C61.5099 172.057 61.6255 173.125 61.7494 174.201C61.8237 174.863 61.898 175.533 61.9805 176.195C62.0796 177.087 62.1869 177.98 62.2943 178.873C60.2715 178.467 54.814 180.117 56.5561 183.681C57.7285 186.081 62.4181 186.751 63.2438 186.472C63.252 186.551 63.3428 187.261 63.4832 188.321C63.5575 188.911 63.6401 189.613 63.7474 190.37C63.83 191.08 63.929 191.837 64.0364 192.603C64.1189 193.257 64.2098 193.926 64.2923 194.58C64.6886 197.474 65.0767 200.066 65.1923 200.185C65.2996 200.289 65.44 200.353 65.5886 200.361C66.15 201.03 82.3655 200.831 83.2324 200.823C83.67 200.815 83.9672 200.392 83.8186 200.01C83.8269 199.994 84.1076 197.993 84.4378 195.553C84.5287 194.923 84.6277 194.253 84.7186 193.584C84.8672 192.531 85.0075 191.471 85.1479 190.506C85.247 189.772 85.3378 189.103 85.4121 188.537C85.569 187.468 85.6598 186.775 85.6598 186.767C94.1061 188.002 94.7253 178.236 86.9478 178.913ZM57.6047 181.831C58.2734 180.508 59.966 180.34 60.7916 180.149C60.7916 180.149 61.3448 180.069 62.4429 180.085C62.4924 180.532 62.5502 180.978 62.608 181.425C62.6823 182.087 62.7649 182.748 62.8557 183.41C62.93 184.04 63.0043 184.67 63.0869 185.308C58.6615 185.076 57.0102 183.275 57.6047 181.831ZM85.8332 185.579C85.924 184.981 86.0231 184.399 86.1139 183.833C86.2212 183.147 86.3286 182.493 86.4359 181.855C86.535 181.265 86.634 180.699 86.7331 180.141C93.0988 179.527 92.463 186.344 85.8332 185.579Z" fill="#D38E37"/>
<path d="M87.8147 174.736C87.6826 175.341 87.5258 176.035 87.3689 176.816C81.5729 176.968 69.4113 176.011 61.9806 176.195C61.898 175.533 61.8237 174.863 61.7494 174.201C70.4351 173.882 79.1125 175.126 87.8147 174.736Z" fill="#A06B29"/>
<path d="M86.4359 181.855C86.3286 182.493 86.2212 183.147 86.1139 183.833C81.8206 184.191 72.2267 183.099 62.8557 183.41C62.7649 182.748 62.6823 182.087 62.608 181.425C70.5424 181.146 78.485 181.935 86.4359 181.855Z" fill="#A06B29"/>
<path d="M85.4121 188.537C85.3378 189.103 85.247 189.773 85.1479 190.506C73.7872 189.996 67.3307 190.283 63.7474 190.371C63.6401 189.613 63.5575 188.912 63.4832 188.322C70.7818 188.242 78.1052 188.234 85.4121 188.537Z" fill="#A06B29"/>
<path d="M84.7186 193.583C84.6278 194.253 84.5287 194.923 84.4379 195.553C77.7337 195.05 71.013 194.317 64.2923 194.58C64.2098 193.926 64.1189 193.257 64.0364 192.603C70.9387 192.308 77.841 193.073 84.7186 193.583Z" fill="#A06B29"/>
<path d="M180.691 164.921C175.299 165.072 157.276 168.429 149.16 170.287C148.92 170.342 148.722 170.35 148.606 170.542C148.441 170.821 148.639 171.156 148.978 171.156C148.928 171.172 148.887 171.219 148.854 171.267C148.738 171.451 148.796 171.722 149.003 171.825C150.332 172.479 151.686 172.846 153.057 173.213C153.098 173.245 153.156 173.269 153.222 173.292C170.775 179.432 170.758 179.87 170.948 179.073C170.948 179.073 171.889 177.829 172.162 177.486H172.153C175.266 173.635 178.651 170.717 180.071 165.758C180.558 165.742 181.112 165.806 181.112 165.335C181.112 165.048 180.765 164.849 180.682 164.929L180.691 164.921Z" fill="#56423A"/>
<path d="M172.302 66.4065C172.261 66.271 172.145 66.1674 172.005 66.1275C171.947 66.0318 171.848 65.984 171.774 65.9601C168.124 64.6684 163.922 60.4029 161.544 57.4449C161.478 57.3652 161.346 57.3253 161.247 57.3253C161.107 57.2615 161.007 57.2217 160.908 57.2217C160.611 57.2217 159.224 58.5611 159.009 58.7525C153.461 63.7755 149.349 67.6184 144.941 69.4602L144.866 69.5C143.223 70.1459 142.885 70.0582 142.059 70.2655C141.844 70.2734 141.366 70.2734 141.192 70.401C134.075 67.3553 133.481 73.4307 136.816 76.7315C138.534 78.4138 139.293 78.94 141.663 82.775C143.372 84.7763 145.056 86.7536 146.633 88.8504C147.467 89.8231 148.739 90.764 148.747 91.4656C148.805 91.4975 148.879 91.5294 148.97 91.5294C148.945 93.8176 149.044 96.074 149.06 98.5615C149.06 98.5615 146.295 99.7176 144.792 100.14C144.619 100.196 144.486 100.355 144.486 100.523C143.653 101.703 147.748 109.54 149.68 114.651C151.925 120.455 154.799 125.558 155.624 125.558C156.549 125.558 166.06 102.109 165.515 101.384C165.557 101.232 165.499 101.025 165.326 100.945C165.103 100.842 164.904 100.778 164.706 100.73C164.673 100.722 164.64 100.714 164.599 100.714C164.541 100.714 164.483 100.73 164.426 100.754C163.567 100.427 161.742 99.8452 160.537 98.8246C160.644 97.1742 160.57 95.6035 160.619 93.7219C161.098 93.6262 160.545 93.7698 161.156 93.6023C161.173 93.6023 161.181 93.6023 161.197 93.6023C161.197 93.5784 161.197 93.6023 161.197 93.5864C161.577 93.4748 161.808 93.3871 162.097 93.2675C162.114 93.2675 162.122 93.2675 162.139 93.2675C162.436 93.124 164.293 92.1911 164.45 91.9041C171.988 86.8413 175.696 77.9275 172.319 66.3826L172.302 66.4065Z" fill="#FFC19C"/>
<path d="M197.071 160.679C197.063 160.727 197.038 160.775 197.005 160.815C196.997 161.038 196.824 161.214 196.584 161.222C189.566 161.517 184.315 161.859 180.187 162.186C179.791 162.218 179.403 162.25 179.031 162.282C178.222 162.354 177.454 162.425 176.736 162.489C175.233 162.633 173.904 162.768 172.698 162.904C171.584 163.015 170.577 163.135 169.627 163.239C169.206 163.287 168.801 163.334 168.397 163.382C167.728 163.454 167.084 163.526 166.448 163.589C165.094 163.725 163.773 163.837 162.337 163.916C160.9 163.988 159.34 164.036 157.523 164.036C156.987 164.036 156.483 164.028 156.004 164.012C155.583 164.012 155.187 163.996 154.807 163.98C154.138 163.964 153.494 163.932 152.85 163.9C151.603 163.845 150.34 163.773 148.78 163.717H148.689C146.939 163.653 144.363 163.653 141.655 163.629C140.276 163.621 138.872 163.605 137.526 163.582C133.126 163.494 129.361 163.255 129.402 162.561C128.989 161.963 128.585 152.962 128.337 146.049C128.18 141.935 128.081 138.554 128.073 138.124C127.156 140.125 125.662 142.724 124.399 145.355C122.236 149.876 120.758 154.492 124.118 156.35C124.192 156.294 124.275 156.27 124.366 156.27C124.407 156.27 124.44 156.27 124.473 156.286C124.688 156.342 124.836 156.573 124.77 156.789C124.027 159.109 123.028 161.501 121.715 164.116C121.666 164.211 121.369 164.785 120.964 165.567C120.667 166.133 120.312 166.811 119.94 167.496C119.618 168.094 119.288 168.7 118.983 169.25C118.322 170.406 117.769 171.299 117.604 171.315C117.356 171.547 115.655 171.291 114.805 171.156C114.615 171.116 114.466 171.092 114.392 171.076C113.104 170.821 111.932 170.486 110.875 170.056C110.445 169.896 110.041 169.713 109.653 169.521C109.24 169.314 108.844 169.099 108.464 168.868C106.623 167.735 105.219 166.292 104.195 164.61C100.802 159.093 101.421 150.96 103.783 142.676C103.816 142.549 103.857 142.405 103.898 142.262C104.674 139.687 106.375 134.99 108.282 130.079C108.497 129.521 108.72 128.955 108.943 128.397C109.323 127.424 109.702 126.451 110.09 125.495C111.106 122.975 112.105 120.551 112.997 118.502C114.128 115.895 115.077 113.886 115.63 113.041C116.085 112.347 116.555 111.701 117.051 111.111C117.604 110.442 118.182 109.836 118.784 109.31C118.875 109.23 118.958 109.15 119.049 109.078C119.338 108.831 119.66 108.592 120.006 108.353C120.981 107.683 122.178 107.045 123.515 106.439C124.754 105.881 126.108 105.347 127.528 104.853C127.965 104.693 128.411 104.542 128.865 104.39C129.303 104.247 129.757 104.103 130.203 103.968C131.945 103.433 133.72 102.947 135.437 102.517C136.874 102.158 138.261 101.839 139.557 101.56C140.028 101.456 140.474 101.36 140.911 101.273C141.333 101.185 141.745 101.105 142.133 101.034C142.81 100.898 143.446 100.786 144.016 100.691C143.991 100.563 144.008 100.468 144.057 100.38C144.115 100.284 144.206 100.22 144.313 100.188C144.346 100.18 144.387 100.173 144.42 100.173C144.594 100.173 144.792 100.276 144.833 100.475L144.891 100.635C145.122 100.77 145.155 101.073 144.99 101.249C145.345 102.843 145.857 104.486 146.468 106.136C147.805 109.708 149.622 113.304 151.347 116.517C151.851 117.442 152.347 118.343 152.817 119.196C153.271 120.017 153.709 120.791 154.105 121.524H154.113C154.708 122.624 155.236 123.597 155.657 124.442C156.995 120.488 158.886 116.716 160.702 112.929C161.305 111.654 161.907 110.378 162.469 109.094H162.477C162.642 108.632 163.666 105.993 164.632 103.585C165.144 102.325 165.639 101.129 165.994 100.332C166.118 100.037 166.234 99.7978 166.316 99.6303C166.473 99.3353 166.985 99.3752 167.076 99.718C167.968 99.8935 168.859 100.101 169.751 100.348C171.155 100.731 172.542 101.193 173.904 101.735C174.341 101.903 174.779 102.078 175.208 102.261C175.654 102.445 176.092 102.644 176.529 102.843C177.545 103.306 178.536 103.808 179.485 104.326C180.096 104.661 180.674 104.98 181.219 105.307C182.895 106.28 184.299 107.237 185.512 108.393C186.066 108.927 186.586 109.501 187.065 110.139C187.576 110.808 188.055 111.542 188.493 112.379C189.748 114.699 190.788 117.769 191.837 122.106C191.944 122.561 195.255 135.166 194.982 135.557C196.584 142.716 198.516 153.36 197.071 160.679Z" fill="#D08628"/>
<path d="M141.654 163.629V163.892C141.654 164.969 140.722 165.885 139.59 165.885C138.459 165.885 137.526 164.969 137.526 163.892V163.581C137.51 143.21 135.57 122.887 135.437 102.516C136.874 102.158 138.261 101.839 139.557 101.56C139.64 122.265 141.638 142.923 141.654 163.629Z" fill="#FFAB42"/>
<path d="M152.908 157.036C152.891 160.464 152.908 162.553 152.85 163.9C152.776 165.623 152.602 166.101 152.14 166.547C150.737 167.887 148.507 166.691 148.615 165.136C148.639 164.73 148.664 164.251 148.689 163.717C148.862 159.428 148.78 151.534 148.722 148.329C148.458 134.249 147.533 120.448 146.468 106.136C147.805 109.708 149.622 113.304 151.347 116.517C152.066 126.978 152.66 137.733 152.85 148.329C152.9 151.231 152.924 154.134 152.908 157.036Z" fill="#FFAB42"/>
<path d="M166.448 163.589C165.094 163.725 163.773 163.836 162.337 163.916C161.123 144.35 160.991 129.082 160.702 112.929C161.305 111.653 161.907 110.377 162.469 109.094H162.477C162.642 108.631 163.666 105.992 164.632 103.584C165.144 124.442 164.954 139.439 166.448 163.589Z" fill="#FFAB42"/>
<path d="M176.736 162.489C175.233 162.632 173.904 162.768 172.698 162.904C171.468 151.885 170.089 121.109 169.751 100.348C171.154 100.73 172.542 101.193 173.904 101.735C174.234 122.002 175.184 142.27 176.736 162.489Z" fill="#FFAB42"/>
<path d="M187.411 152.746C187.188 155.688 183.101 155.042 183.283 152.746C184.489 136.896 181.921 121.125 181.219 105.307C182.895 106.279 184.299 107.236 185.512 108.392C186.371 123.174 188.534 137.924 187.411 152.746Z" fill="#FFAB42"/>
<path d="M128.519 145.228C128.527 145.515 128.461 145.794 128.337 146.049C128.18 141.935 128.081 138.554 128.073 138.124C127.156 140.125 125.662 142.724 124.399 145.355C124.39 145.315 124.39 145.268 124.39 145.228C124.044 132.303 124.407 119.347 123.515 106.439C124.754 105.881 126.108 105.347 127.528 104.853C128.56 118.287 128.155 131.777 128.519 145.228Z" fill="#FFAB42"/>
<path d="M118.983 169.25C118.322 170.406 117.769 171.299 117.604 171.315C117.356 171.546 115.655 171.291 114.805 171.156C114.937 159.571 113.368 141.082 112.997 118.502C114.128 115.895 115.077 113.886 115.63 113.041C116.085 112.347 116.555 111.701 117.051 111.111C117.117 126.547 117.868 141.759 118.594 157.482C118.727 160.376 118.9 163.278 118.958 166.173C118.983 167.201 118.991 168.222 118.983 169.25Z" fill="#FFAB42"/>
<path d="M108.464 168.867C106.623 167.735 105.219 166.292 104.195 164.61C103.948 157.163 103.857 149.708 103.898 142.261C104.674 139.686 106.375 134.99 108.282 130.079C108.183 135.755 107.531 146.981 108.464 168.867Z" fill="#FFAB42"/>
<path d="M110.875 170.056C110.445 169.896 110.041 169.713 109.653 169.521C110.115 155.816 109.372 142.174 108.943 128.397C109.323 127.424 109.702 126.451 110.09 125.495C110.503 140.292 111.403 155.226 110.875 170.056Z" fill="#FFAB42"/>
<path d="M120.964 165.567C120.667 166.133 120.312 166.81 119.94 167.496C117.728 148.425 118.809 128.739 118.784 109.309C118.875 109.23 118.958 109.15 119.049 109.078C119.338 108.831 119.66 108.592 120.006 108.353C120.072 127.408 119.016 146.814 120.964 165.567Z" fill="#FFAB42"/>
<path d="M131.532 160.918C131.499 161.747 130.269 161.668 130.294 160.918C130.707 149.349 129.278 138.793 129.402 126.786C129.485 119.267 129.856 111.757 128.865 104.39C129.303 104.246 129.757 104.103 130.203 103.967C131.086 109.764 130.302 125.917 131.26 145.164C131.516 150.41 131.722 155.664 131.532 160.918Z" fill="#FFAB42"/>
<path d="M144.685 162.919C144.709 163.669 143.479 163.749 143.446 162.919C143.273 157.211 141.687 121.045 140.911 101.272C141.332 101.185 141.745 101.105 142.133 101.033C142.554 112.06 144.016 145.498 144.685 162.919Z" fill="#FFAB42"/>
<path d="M156.029 163.836C156.029 163.9 156.029 163.956 156.004 164.012C155.847 164.578 154.931 164.554 154.807 163.98C154.807 163.932 154.79 163.884 154.79 163.836C154.856 148.847 153.048 134.081 152.817 119.196C153.271 120.017 153.709 120.79 154.105 121.524H154.113C154.179 124.283 154.32 127.815 154.584 132.367C155.195 142.852 156.078 153.328 156.029 163.836Z" fill="#FFAB42"/>
<path d="M169.627 163.238C169.206 163.286 168.801 163.334 168.397 163.382C167.414 152.323 166.754 141.919 166.366 132.287C165.928 121.731 165.78 111.159 165.936 100.595C165.936 100.499 165.961 100.412 165.994 100.332C166.242 99.8056 167.191 99.9252 167.175 100.595C166.927 120.137 167.571 140.085 169.627 163.238Z" fill="#FFAB42"/>
<path d="M180.195 162.09C180.195 162.09 180.195 162.154 180.195 162.186C180.154 162.617 179.535 162.896 179.138 162.521C179.105 162.489 179.072 162.409 179.039 162.282C178.238 159.364 176.876 132.12 176.827 131.099C176.017 114.101 175.44 106.064 175.217 102.261C175.662 102.445 176.1 102.644 176.538 102.843C177.561 113.057 177.991 140.97 180.203 162.09H180.195Z" fill="#FFAB42"/>
<path d="M191.127 140.643C191.16 141.137 190.474 141.464 190.07 141.074C189.946 140.954 189.896 140.811 189.888 140.643C188.675 125.024 187.552 115.544 187.065 110.146C187.576 110.808 188.055 111.542 188.493 112.379C189.162 121.827 190.392 131.155 191.127 140.643Z" fill="#FFAB42"/>
<path d="M165.705 97.8523C165.284 97.8523 164.929 98.2988 165.078 98.6656C167.266 104.589 165.862 113.392 164.318 119.212C163.055 123.956 160.57 130.709 156.532 133.643C153.453 129.633 150.778 125.064 148.582 120.065L148.565 120.232C146.658 115.656 145.452 111.622 144.916 107.882L144.866 107.795C144.561 105.299 144.552 103.13 144.825 101.169L144.726 101.297C144.965 100.236 145.18 99.3592 145.411 98.6337C145.461 98.4742 145.444 98.3068 145.353 98.1633C145.081 97.669 144.321 97.7168 144.14 98.2909C140.688 109.03 148.606 125.439 155.467 134.488C154.642 135.158 153.882 137.127 155.03 138.219C156.45 139.519 159.538 138.355 157.523 134.456C160.512 132.343 162.683 127.902 163.971 124.546C164.533 123.087 165.037 121.524 165.515 119.762C168.9 107.348 167.241 97.8523 165.689 97.8523H165.705Z" fill="#573C31"/>
<path d="M146.625 100.348C146.625 99.5585 145.386 99.5585 145.386 100.348C145.386 101.137 146.625 101.137 146.625 100.348Z" fill="#573C31"/>
<path d="M146.617 102.827C146.617 102.038 145.378 102.038 145.378 102.827C145.378 103.617 146.617 103.617 146.617 102.827Z" fill="#573C31"/>
<path d="M145.337 104.287C145.337 104.566 145.543 104.797 145.816 104.861C145.444 105.73 147.005 106.057 147.005 105.084C147.005 104.805 146.798 104.574 146.526 104.51C146.906 103.617 145.337 103.346 145.337 104.287Z" fill="#573C31"/>
<path d="M146.658 106.862C146.749 106.447 146.418 106.144 146.063 106.144C145.403 106.144 145.196 107.037 145.824 107.292C145.816 107.332 145.799 107.364 145.799 107.412C145.799 108.201 147.038 108.201 147.038 107.412C147.038 107.165 146.881 106.949 146.658 106.862Z" fill="#573C31"/>
<path d="M146.732 109.836C146.617 109.948 146.55 110.091 146.55 110.258C146.55 111.048 147.789 111.048 147.789 110.258C147.789 109.94 147.525 109.676 147.194 109.668C147.591 109.286 147.294 108.648 146.757 108.648C145.964 108.648 145.923 109.804 146.732 109.836Z" fill="#573C31"/>
<path d="M146.666 112.459C146.666 113.248 147.905 113.248 147.905 112.459C147.905 111.669 146.666 111.669 146.666 112.459Z" fill="#573C31"/>
<path d="M147.847 114.357C148.664 114.357 148.664 113.161 147.847 113.161C147.029 113.161 147.029 114.357 147.847 114.357Z" fill="#573C31"/>
<path d="M148.639 115.273C149.457 115.273 149.457 114.077 148.639 114.077C147.822 114.077 147.822 115.273 148.639 115.273Z" fill="#573C31"/>
<path d="M149.044 117.195C149.861 117.195 149.861 115.999 149.044 115.999C148.227 115.999 148.227 117.195 149.044 117.195Z" fill="#573C31"/>
<path d="M149.721 118.726C150.538 118.726 150.538 117.53 149.721 117.53C148.904 117.53 148.904 118.726 149.721 118.726Z" fill="#573C31"/>
<path d="M150.398 120.791C151.215 120.791 151.215 119.595 150.398 119.595C149.581 119.595 149.581 120.791 150.398 120.791Z" fill="#573C31"/>
<path d="M151.273 121.963C152.091 121.963 152.091 120.767 151.273 120.767C150.456 120.767 150.456 121.963 151.273 121.963Z" fill="#573C31"/>
<path d="M151.686 123.302C152.503 123.302 152.503 122.106 151.686 122.106C150.869 122.106 150.869 123.302 151.686 123.302Z" fill="#573C31"/>
<path d="M152.743 124.769C152.355 125.662 153.932 125.933 153.932 124.992C153.932 124.578 153.494 124.275 153.081 124.442C153.255 124.044 152.941 123.621 152.512 123.621C151.529 123.621 151.835 125.136 152.743 124.769Z" fill="#573C31"/>
<path d="M155.211 125.79C155.211 125 153.973 125 153.973 125.79C153.973 126.579 155.211 126.579 155.211 125.79Z" fill="#573C31"/>
<path d="M156.45 126.292C156.45 125.502 155.211 125.502 155.211 126.292C155.211 127.081 156.45 127.081 156.45 126.292Z" fill="#573C31"/>
<path d="M157.713 126.882C158.638 127.257 158.927 125.734 157.944 125.734C157.738 125.734 157.556 125.846 157.449 125.997C157.036 125.83 156.599 126.133 156.599 126.547C156.599 127.113 157.358 127.384 157.713 126.882Z" fill="#573C31"/>
<path d="M159.769 125.63C159.769 124.841 158.531 124.841 158.531 125.63C158.531 126.419 159.769 126.419 159.769 125.63Z" fill="#573C31"/>
<path d="M160.702 124.363C160.702 123.573 159.463 123.573 159.463 124.363C159.463 125.152 160.702 125.152 160.702 124.363Z" fill="#573C31"/>
<path d="M161.792 123.063C161.792 122.736 161.511 122.465 161.173 122.465C160.834 122.465 160.553 122.736 160.553 123.063C160.553 123.852 161.792 123.852 161.792 123.063Z" fill="#573C31"/>
<path d="M162.593 121.652C162.593 120.862 161.354 120.862 161.354 121.652C161.354 122.441 162.593 122.441 162.593 121.652Z" fill="#573C31"/>
<path d="M162.948 119.34C162.948 118.55 161.709 118.55 161.709 119.34C161.709 120.129 162.948 120.129 162.948 119.34Z" fill="#573C31"/>
<path d="M163.831 117.952C163.831 117.163 162.593 117.163 162.593 117.952C162.593 118.742 163.831 118.742 163.831 117.952Z" fill="#573C31"/>
<path d="M164.186 116.254C164.186 115.465 162.948 115.465 162.948 116.254C162.948 117.043 164.186 117.043 164.186 116.254Z" fill="#573C31"/>
<path d="M164.673 115.114C164.673 114.325 163.435 114.325 163.435 115.114C163.435 115.903 164.673 115.903 164.673 115.114Z" fill="#573C31"/>
<path d="M165.012 113.455C165.012 113.129 164.731 112.857 164.393 112.857C164.054 112.857 163.773 113.129 163.773 113.455C163.773 114.245 165.012 114.245 165.012 113.455Z" fill="#573C31"/>
<path d="M164.558 112.148C164.896 112.148 165.177 111.877 165.177 111.55C165.177 111.223 164.896 110.952 164.558 110.952C163.74 110.952 163.74 112.148 164.558 112.148Z" fill="#573C31"/>
<path d="M165.103 110.521C165.92 110.521 165.92 109.325 165.103 109.325C164.285 109.325 164.285 110.521 165.103 110.521Z" fill="#573C31"/>
<path d="M165.309 108.99C166.126 108.99 166.126 107.794 165.309 107.794C164.492 107.794 164.492 108.99 165.309 108.99Z" fill="#573C31"/>
<path d="M165.969 106.455C165.969 105.666 164.731 105.666 164.731 106.455C164.731 107.245 165.969 107.245 165.969 106.455Z" fill="#573C31"/>
<path d="M181.995 72.0516C179.452 61.2323 178.569 59.9885 174.449 54.4234C172.236 51.4495 167.051 43.6998 161.222 46.4504C158.349 43.6998 152.735 45.7887 149.135 47.5826C125.761 59.1673 133.373 76.668 131.037 82.273C130.583 83.2776 129.922 84.2263 129.229 85.0954C128.32 86.2276 127.379 87.2162 126.331 88.3563C124.572 90.2938 123.408 91.697 122.698 93.4032C122.029 94.9898 121.98 97.1107 123.334 98.2269C124.704 99.375 123.92 100.061 124.11 101.982C124.209 102.923 124.44 103.617 124.754 104.334C124.869 104.589 125.001 104.836 125.142 105.084C125.01 105.347 125.307 105.706 125.67 105.61C132.639 104.135 138.03 102.516 141.977 101.344C142.439 101.201 142.265 101.257 142.81 101.089C144.519 100.563 150.233 99.2315 149.605 98.1631C149.713 98.1153 149.787 97.9877 149.779 97.8601C149.737 97.0389 149.614 91.1309 149.168 90.8439C146.65 89.4646 137.658 76.668 136.907 75.9345C133.976 72.0835 135.504 69.7315 138.608 70.0584C138.839 70.0903 141.737 70.76 141.927 70.6803C148.458 70.2019 158.778 59.6935 161.255 57.5807C163.765 62.9066 170.387 65.6972 172.112 66.7416C172.178 66.8453 172.591 69.7315 172.608 69.8511C173.78 78.2785 172.872 85.1831 165.416 90.82C163.955 91.8963 162.353 92.7893 160.562 93.2677C160.33 93.3315 160.223 93.5388 160.223 93.7859C158.877 109.572 163.848 105.379 167.084 109.541C167.48 110.051 167.703 110.354 168.182 110.768C168.983 111.438 170.238 112.108 171.336 111.996C172.046 111.916 172.575 111.59 173.078 111.135C173.937 110.338 174.655 109.03 175.712 108.209C176.752 107.476 177.57 107.771 178.8 107.388C180.468 106.886 180.947 105.458 181.26 104.573C181.549 103.776 181.731 103.274 183.118 101.464C187.543 95.7871 187.411 95.0217 181.995 72.0516Z" fill="#4F3327"/>
<path d="M174.168 174.416C173.012 172.304 171.477 170.246 170.362 167.982C170.321 167.886 170.222 167.823 170.106 167.791C170.007 167.552 169.941 167.36 169.644 167.36C169.536 167.113 168.281 166.531 168.034 166.411C167.976 166.324 164.822 164.96 164.715 164.905C163.98 164.554 163.369 164.211 162.816 163.836C162.7 163.756 162.543 163.756 162.411 163.828C158.498 162.082 160.818 162.848 158.027 162.202C150.728 160.535 125.662 156.358 124.836 156.597C124.39 156.597 124.399 156.86 124.366 157.195C124.258 157.33 123.21 159.826 123.284 159.722C122.723 160.966 119.057 168.851 117.653 170.932C117.595 171.02 117.579 171.124 117.604 171.227C117.653 171.411 117.818 171.546 118.008 171.546C118.033 171.546 118.066 171.546 118.091 171.538C121.724 172.495 123.152 172.184 138.897 172.184C145.419 172.184 148.887 171.857 151.447 171.538C152.891 171.363 154.378 171.179 155.855 171.163C155.905 171.163 155.955 171.155 156.004 171.131C157.02 171.45 158.25 171.363 159.307 171.395C161.709 174.464 165.854 176.968 166.391 176.968C168.273 178.235 168.636 178.809 169.074 178.395C169.198 178.499 169.445 178.499 169.602 178.347C170.263 177.733 170.568 177.789 171.27 177.789C171.543 177.789 171.774 177.518 171.658 177.223C172.484 176.752 173.243 175.947 174.366 175.341C174.441 175.301 174.507 175.23 174.54 175.15C174.977 174.839 174.597 174.257 174.168 174.424V174.416Z" fill="#FFC5A3"/>
<path d="M150.819 77.1624C150.819 77.1624 150.819 77.1545 150.811 77.1465C150.811 77.1465 150.811 77.1465 150.819 77.1624Z" fill="#5B4136"/>
<path d="M154.906 75.9505C154.221 78.4062 152.057 78.6135 150.827 77.1624C150.836 77.1704 150.844 77.1863 150.852 77.2022C150.844 77.1863 150.794 77.1305 150.786 77.1225C150.794 77.1305 150.803 77.1464 150.811 77.1544C150.464 76.692 150.299 76.2774 150.175 75.7512C150.126 75.5439 149.878 75.4163 149.663 75.4721C148.466 75.791 151.257 80.6466 154.411 78.2467C155.079 77.7205 155.484 76.9631 155.69 76.1658C155.831 75.6395 155.03 75.4562 154.898 75.9505H154.906Z" fill="#5B4136"/>
<path d="M170.791 76.3812C170.577 77.0748 170.263 77.5771 169.594 77.888C168.512 78.3026 167.274 77.7924 166.886 76.3094C166.746 75.8071 165.945 75.9985 166.093 76.5247C166.267 77.1705 166.597 77.7605 167.125 78.199C167.662 78.6216 168.166 78.789 168.785 78.8289C169.957 78.8926 171.179 78.1113 171.592 76.5964C171.741 76.0862 170.94 75.8789 170.799 76.3812H170.791Z" fill="#5B4136"/>
<path d="M149.407 69.9867C149.127 70.0026 148.879 70.0824 148.672 70.2817C148.483 70.4651 148.375 70.7202 148.375 70.9833C148.375 72.6497 150.299 71.5653 153.791 71.956C154.617 72.0756 155.633 72.4583 155.93 71.4218C156.458 69.5322 151.48 69.8432 149.399 69.9867H149.407Z" fill="#5B4136"/>
<path d="M171.848 70.9754C170.288 70.5927 168.661 70.4572 167.026 70.521C165.581 70.5688 165.747 72.5541 167.026 72.5142C168.909 72.4425 170.18 72.6179 171.303 72.8969C172.674 73.2318 173.128 71.2864 171.848 70.9754Z" fill="#5B4136"/>
<path d="M161.371 85.4302C161.371 85.4302 160.595 85.6056 160.264 85.6535C158.778 85.8129 157.366 85.5179 156.318 84.5054C155.913 84.1147 155.22 84.3937 155.236 84.9518C155.236 85.7491 158.06 87.6387 161.544 86.6341C162.254 86.4428 162.106 85.4302 161.371 85.4302Z" fill="#C07E67"/>
<path d="M162.642 72.5061C162.659 72.2908 162.436 72.1074 162.229 72.1074C162.023 72.1074 161.841 72.243 161.817 72.5061C161.528 75.5916 162.172 79.004 161.643 81.8185C160.851 82.6317 160.025 82.4244 159.307 81.5713C159.307 81.5713 159.315 81.5873 159.323 81.5873C159.174 81.4039 159.117 81.2444 158.861 81.2444C158.514 81.2444 158.341 81.6271 158.497 81.8424C159.761 83.5725 161.453 83.3573 162.328 82.273C162.361 82.2411 162.411 82.1454 162.427 82.0896C162.461 81.97 162.444 82.0098 162.444 81.97C163.03 78.5815 162.337 75.7989 162.642 72.4981V72.5061Z" fill="#C3967D"/>
<path d="M137.791 72.6019C138.203 72.1953 138.682 72.1156 139.26 72.1714C139.59 72.2113 139.879 72.299 139.987 71.9322C140.201 71.1509 138.36 71.2705 137.625 71.709C136.139 72.5541 136.247 75.1453 137.097 74.9141C137.551 74.7945 137.287 74.4437 137.336 73.6464C137.733 74.4915 138.269 75.3765 139.59 76.5087C140.028 76.8834 140.556 76.2695 140.177 75.9426C139.079 75.0098 138.228 73.9653 137.791 72.6099V72.6019Z" fill="#C3967D"/>
<path d="M157.309 57.3494C154.667 59.5579 152.446 61.5352 149.688 63.6081C147.128 65.5057 144.643 67.0365 141.729 68.2325C141.25 68.4159 141.299 68.8304 141.58 68.9819C142.034 69.253 145.824 67.1242 146.286 66.8531C150.423 64.4294 154.262 60.9532 157.886 57.9234C158.052 57.7799 158.035 57.5088 157.886 57.3573C157.721 57.1979 157.474 57.2138 157.3 57.3573L157.309 57.3494Z" fill="#936D5C"/>
<path d="M149.696 63.6006C149.696 63.6006 149.704 63.5926 149.713 63.5846C149.77 63.5368 149.737 63.5607 149.696 63.6006Z" fill="#936D5C"/>
<path d="M158.052 53.9054C156.805 54.32 156.565 54.3599 155.145 54.9738C148.648 57.7962 142.934 63.6085 138.245 68.2647C137.857 68.6474 138.459 69.1976 138.831 68.8308C142.158 65.53 145.353 62.3249 149.085 59.5184C152.891 56.696 155.434 55.6196 158.275 54.6708C158.489 54.5991 158.621 54.3998 158.564 54.1845C158.506 53.9772 158.266 53.8337 158.06 53.9054H158.052Z" fill="#936D5C"/>
<path d="M149.077 59.5181C149.077 59.5181 149.077 59.5181 149.068 59.526C149.011 59.5659 149.036 59.55 149.077 59.5181Z" fill="#936D5C"/>
<path d="M136.734 68.9503C137.592 67.0527 138.79 65.3465 140.086 63.7041C142.34 60.8896 144.264 59.0957 143.042 59.0957C142.942 59.0957 142.81 59.1356 142.744 59.2073C141.291 61.0172 134.876 68.3762 136.164 69.0858C136.379 69.2054 136.659 69.1097 136.725 68.9423L136.734 68.9503Z" fill="#936D5C"/>
<path d="M136.387 60.9054C135.718 61.0888 133.522 64.8361 133.489 69.6438C133.489 70.17 134.315 70.17 134.315 69.6438C134.348 66.1277 135.462 63.7996 135.462 63.7996C135.47 63.7756 135.479 63.7597 135.487 63.7358C135.776 63.0661 136.28 62.205 136.849 61.4794C137.056 61.2323 136.767 60.7938 136.387 60.8974V60.9054Z" fill="#936D5C"/>
<path d="M135.495 63.7358C135.495 63.7358 135.495 63.7358 135.495 63.7438C135.479 63.7916 135.487 63.7757 135.495 63.7358Z" fill="#936D5C"/>
<path d="M174.523 64.6368C171.774 64.2381 168.686 61.8143 166.944 59.6696C166.944 59.6696 166.944 59.6776 166.952 59.6856C166.878 59.5899 166.952 59.6856 166.886 59.6058C166.886 59.6058 166.894 59.6138 166.902 59.6218C166.688 59.3427 166.49 59.0637 166.3 58.7687C166.217 58.6411 166.077 58.5693 165.936 58.5693C164.104 58.5693 169.784 64.7484 174.3 65.4022C174.952 65.4899 174.985 64.6926 174.523 64.6368Z" fill="#936D5C"/>
<path d="M166.944 59.6696C166.944 59.6696 166.919 59.6377 166.902 59.6138C166.927 59.6457 166.927 59.6457 166.944 59.6696Z" fill="#936D5C"/>
<path d="M174.465 68.4481C174.969 75.0178 175.481 80.9816 173.359 86.9613C173.186 87.4317 173.97 87.7108 174.152 87.1766C174.68 85.6936 175.06 84.1708 175.307 82.624C176.084 77.8562 175.638 72.9687 175.291 68.4481C175.25 67.874 174.432 67.9537 174.465 68.4481Z" fill="#936D5C"/>
<path d="M177.71 67.1486C175.514 65.0278 179.807 78.3187 178.238 90.0469C177.958 92.0721 177.487 94.0653 176.802 96.0028C176.645 96.4652 177.413 96.7522 177.594 96.218C178.42 93.9218 178.882 91.6575 179.155 89.2975C179.436 86.9215 179.46 84.5137 179.37 82.1218C179.287 80.1047 178.131 67.5632 177.71 67.1566V67.1486Z" fill="#936D5C"/>
<path d="M181.425 89.2572C181.368 91.378 181.013 93.4749 180.748 95.5718C180.707 95.8747 181.161 96.1299 181.45 95.8508C181.756 95.5558 182.243 89.6877 182.251 89.2572C182.268 88.7549 181.442 88.707 181.425 89.2572Z" fill="#936D5C"/>
<path d="M170.354 91.2186C168.752 95.0934 166.911 98.9364 168.413 102.851C168.859 104.007 169.396 104.964 169.627 106.256C169.685 106.718 169.602 107.244 170.089 107.244C171.493 107.244 169.016 102.684 168.735 100.962C168.339 97.7803 169.908 94.4636 171.155 91.4339C171.196 91.3382 171.154 91.2106 171.113 91.1229C170.956 90.8678 170.527 90.812 170.362 91.2186H170.354Z" fill="#936D5C"/>
<path d="M171.881 100.898C172.137 101.663 172.335 102.445 172.459 103.242C172.583 104.167 172.409 104.789 172.971 104.789C173.194 104.789 173.392 104.605 173.384 104.39C173.342 103.123 173.07 101.887 172.674 100.691C172.5 100.157 171.724 100.42 171.881 100.906V100.898Z" fill="#936D5C"/>
<path d="M164.145 96.1618C164.17 95.9944 163.988 95.7632 163.732 95.7632C163.526 95.7632 163.352 95.8908 163.319 96.1618C163.154 97.3976 163.063 101.544 164.112 101.257C164.326 101.201 164.459 100.978 164.401 100.77C163.98 99.2633 163.947 97.6687 164.145 96.1698V96.1618Z" fill="#936D5C"/>
<path d="M145.221 91.3302C145.056 93.6185 144.635 95.8509 143.975 98.0355C143.826 98.5298 144.619 98.761 144.767 98.2508C145.444 95.9944 145.873 93.6743 146.039 91.3302C146.072 90.8359 145.254 90.7642 145.213 91.3302H145.221Z" fill="#936D5C"/>
<path d="M141.721 85.239C141.233 90.1344 141.027 94.9102 139.268 99.4548C139.095 99.9092 139.855 100.22 140.061 99.67C141.844 95.0537 142.059 90.0865 142.538 85.239C142.579 84.7686 141.762 84.641 141.712 85.239H141.721Z" fill="#936D5C"/>
<path d="M132.391 84.4575C132.366 84.5133 132.358 84.5372 132.391 84.4735C132.391 84.4735 132.391 84.4655 132.391 84.4575Z" fill="#936D5C"/>
<path d="M133.357 76.8197C133.737 79.8733 133.39 82.1217 132.391 84.4578C132.391 84.4578 132.391 84.4578 132.391 84.4498C130.467 88.8349 128.296 90.0628 127.132 94.3124C126.777 95.604 126.554 96.9355 126.265 98.243C126.141 98.7932 126.95 98.9446 127.057 98.4583C127.784 95.2053 127.949 93.2121 129.691 90.6209C132.903 85.8211 134.901 82.6559 134.182 76.8276C134.092 76.1978 133.299 76.3891 133.357 76.8276V76.8197Z" fill="#936D5C"/>
<path d="M132.812 92.064C131.516 95.7475 130.492 98.6736 130.162 102.509C130.129 103.011 130.954 103.075 130.987 102.509C131.342 98.7215 132.341 95.899 133.613 92.2793C133.778 91.8009 133.002 91.5298 132.82 92.064H132.812Z" fill="#936D5C"/>
<path d="M136.527 92.2234C136.346 92.3988 136.123 94.99 136.106 95.2212C136.073 95.7155 136.891 95.7953 136.932 95.2212C137.006 94.3123 137.122 93.4113 137.237 92.5024C137.27 92.1835 136.808 91.9523 136.527 92.2154V92.2234Z" fill="#936D5C"/>
<path d="M171.79 57.2381C172.063 57.6926 172.781 57.294 172.5 56.8395C170.725 53.8736 168.05 51.8644 165.614 49.9987C165.392 49.8313 165.177 49.8632 165.028 49.9987C164.855 50.1661 164.88 50.4452 165.028 50.5648C167.703 52.6138 170.147 54.5034 171.79 57.2461V57.2381Z" fill="#936D5C"/>
<path d="M167.984 55.7471C167.596 55.7471 167.439 56.2175 167.687 56.4327C168.471 57.0706 169.264 57.6925 169.933 58.4499C170.255 58.8246 170.907 58.3303 170.519 57.8838C170.263 57.5968 168.372 55.7471 167.984 55.7471Z" fill="#936D5C"/>
<path d="M146.831 52.4462C146.831 52.4462 146.823 52.4462 146.815 52.4542C146.831 52.4382 146.889 52.3984 146.897 52.3904C149.226 50.6842 151.967 49.1055 154.823 48.954C155.393 48.9221 155.344 48.1567 154.84 48.1567C151.636 48.1567 147.954 50.5088 145.469 52.4781C145.296 52.6136 145.32 52.9007 145.469 53.0442C145.824 53.4029 146.385 52.7731 146.831 52.4382V52.4462Z" fill="#936D5C"/>
<path d="M146.831 52.4463C146.831 52.4463 146.873 52.4144 146.898 52.3984C146.848 52.4383 146.881 52.4064 146.831 52.4463Z" fill="#936D5C"/>
<path d="M177.751 139.742C177.058 127.902 177.57 127.807 176.62 127.807C175.753 127.807 175.803 127.775 176.604 142.038C177.372 155.792 176.645 156.182 177.71 156.182C178.536 156.182 178.701 156.27 177.743 139.742H177.751Z" fill="#936731"/>
<path d="M186.478 136.784C186.437 136.736 186.387 136.696 186.33 136.672C186.297 136.672 185.975 136.704 185.942 136.696C185.909 136.712 179.898 151.414 179.881 151.454C175.935 161.341 173.772 169.577 170.065 178.403C170.048 178.435 170.048 178.475 170.048 178.53C169.173 179.615 175.258 179.758 176.298 179.758C181.153 179.758 183.845 179.104 191.407 178.953C207.664 178.602 203.008 179.758 225.564 177.502C225.671 177.263 225.787 177.032 225.902 176.8C225.886 176.784 225.861 176.768 225.845 176.76C226.778 172.71 235.273 144.717 237.049 138.283C238.361 136.29 190.474 136.784 186.47 136.792L186.478 136.784Z" fill="#3C271F"/>
<path d="M208.589 153.216C208.407 151.861 208.3 150.753 208.267 149.716C208.259 149.405 207.928 149.214 207.656 149.358C207.491 149.35 207.301 149.461 207.243 149.653C206.657 151.439 205.84 152.977 204.552 155.266C204.345 155.632 202.314 159.244 202.463 159.635C202.463 160.217 202.925 160.009 205.98 160.296C208.465 160.528 209.167 160.536 209.167 160.536C209.398 160.536 209.588 160.344 209.588 160.129C209.745 159.874 208.622 153.519 208.581 153.224L208.589 153.216Z" fill="#936D5C"/>
</g>
<defs>
<clipPath id="clip0_86_755">
<rect width="354" height="361" fill="white"/>
</clipPath>
</defs>
</svg>
